<svg width="120" height="60" viewBox="0 0 120 60" fill="none" xmlns="http://www.w3.org/2000/svg">
<path d="M78.646 22.515C79.046 22.515 79.426 22.32 79.718 22.612C79.815 23.012 79.718 23.294 79.718 23.684V37.328C79.3673 37.4256 78.9967 37.4256 78.646 37.328V35.088C77.769 36.258 76.599 37.135 75.246 37.428C73.589 37.828 71.64 37.525 70.276 36.453C69.399 35.771 68.716 34.796 68.229 33.823C67.547 32.166 67.742 30.12 68.716 28.56C69.496 27.293 70.763 26.32 72.322 26.026C73.882 25.626 75.636 25.929 76.902 26.806C77.584 27.206 78.072 27.781 78.559 28.366L78.656 22.519L78.646 22.515ZM72.7 27C70.36 27.487 68.704 29.924 68.997 32.263C69.192 33.92 70.361 35.283 71.823 36.063C73.09 36.55 74.553 36.648 75.721 35.966C77.671 35.186 78.937 32.946 78.547 30.801C78.352 29.339 77.377 28.071 76.111 27.401C75.039 26.914 73.871 26.816 72.711 27.001L72.7 27ZM114.5 22.517C114.792 22.225 115.182 22.42 115.572 22.517V37.33C115.221 37.4276 114.851 37.4276 114.5 37.33V35.1C113.525 36.464 111.87 37.536 110.114 37.634C108.944 37.731 107.774 37.439 106.8 36.854C105.338 36.074 104.266 34.614 103.876 32.956C103.584 31.494 103.779 29.936 104.656 28.668C105.533 27.304 106.896 26.328 108.456 26.038C110.016 25.748 111.672 26.038 112.939 26.915C113.524 27.315 114.011 27.792 114.499 28.377V22.52L114.5 22.517ZM108.554 27C107.287 27.292 106.118 28.17 105.434 29.34C104.849 30.315 104.752 31.484 104.947 32.556C105.239 34.116 106.409 35.48 107.967 36.064C108.942 36.464 110.014 36.464 111.087 36.161C112.062 35.761 113.037 35.186 113.621 34.211C114.401 33.139 114.693 31.677 114.303 30.411C114.011 28.949 112.939 27.781 111.673 27.097C110.698 26.805 109.529 26.805 108.553 27H108.554ZM100.954 22.613C101.539 22.418 102.124 23.198 101.734 23.685C101.539 24.085 100.857 24.172 100.564 23.782C100.164 23.382 100.467 22.71 100.964 22.612L100.954 22.613ZM46.954 25.83C48.221 25.635 49.584 25.733 50.657 26.415C51.534 26.815 52.217 27.487 52.897 28.267V25.927H53.872C53.969 29.727 53.872 33.529 53.872 37.329C53.58 37.426 53.19 37.426 52.8 37.329V35.089C51.825 36.259 50.656 37.233 49.097 37.429C47.83 37.721 46.467 37.526 45.199 36.942C43.445 36.065 42.275 34.408 41.983 32.556C41.886 31.484 41.983 30.316 42.47 29.34C43.347 27.488 45.1 26.22 46.953 25.832L46.954 25.83ZM47.05 27.002C45.393 27.402 43.93 28.659 43.444 30.402C42.859 32.352 43.736 34.602 45.394 35.665C46.564 36.445 48.024 36.64 49.292 36.347C50.852 35.86 52.118 34.69 52.606 33.131C53.288 31.279 52.509 29.038 50.852 27.868C49.78 26.991 48.318 26.698 47.052 26.991L47.05 27.002ZM58.083 26.9C59.935 25.34 62.858 25.34 64.71 26.9C65.88 27.875 66.66 29.434 66.66 30.993V37.328C66.26 37.425 65.88 37.425 65.588 37.328V30.8C65.491 28.656 63.541 26.804 61.388 26.902C59.244 26.902 57.392 28.754 57.295 30.898V37.33C56.9443 37.4276 56.5737 37.4276 56.223 37.33V31.2C56.126 29.543 56.808 27.984 58.075 26.912L58.083 26.9ZM81.667 30.7C81.667 27.97 84.201 25.535 86.832 25.73C86.832 26.022 86.929 26.412 86.832 26.705C86.54 26.9 86.247 26.802 85.955 26.9C84.785 27.192 83.715 27.972 83.129 29.14C82.642 30.212 82.729 31.38 82.729 32.54V37.315C82.437 37.51 82.047 37.412 81.657 37.412V30.7H81.667ZM91.413 25.926C92.777 25.634 94.337 25.829 95.506 26.608C96.968 27.485 98.136 28.948 98.43 30.701C98.625 31.773 98.527 32.941 98.03 34.015C97.25 35.965 95.3 37.415 93.255 37.621C91.891 37.718 90.429 37.426 89.259 36.549C88.0026 35.6723 87.1307 34.3468 86.823 32.846C86.531 31.384 86.823 29.922 87.603 28.646C88.383 27.184 89.843 26.21 91.403 25.916L91.413 25.926ZM91.598 26.988C89.258 27.475 87.505 29.912 87.895 32.348C88.09 33.615 88.675 34.688 89.747 35.468C90.819 36.443 92.477 36.735 93.947 36.345C94.824 36.053 95.701 35.565 96.287 34.883C97.164 34.006 97.554 32.739 97.554 31.483C97.457 29.826 96.482 28.267 95.02 27.487C93.948 26.902 92.68 26.805 91.62 27L91.598 26.988ZM100.574 26.208C100.866 25.916 101.354 26.013 101.744 26.111V36.831C101.744 37.318 101.062 37.026 100.769 37.123C100.718 37.1195 100.671 37.0979 100.635 37.062C100.599 37.0262 100.577 36.9786 100.574 36.928V26.208Z" fill="black"/>
<path d="M13.7999 11.5201L15.4869 14.5321C12.3539 16.0981 10.1849 19.1121 10.1849 22.6051H30.4299C30.4299 19.1111 28.2599 16.0981 25.1279 14.5321L26.8149 11.5201C26.8149 11.5201 26.9349 11.4001 26.6949 11.2801C26.5749 11.1601 26.4549 11.4001 26.4549 11.4001L24.6479 14.4121C23.246 13.7817 21.7271 13.4532 20.1899 13.4481C18.6528 13.4532 17.1339 13.7817 15.7319 14.4121L13.9319 11.4001C13.9319 11.4001 13.8119 11.2801 13.6919 11.2801C13.6919 11.4001 13.8119 11.5201 13.8119 11.5201H13.7999ZM15.4869 17.4241C15.7367 17.4417 15.9718 17.549 16.1489 17.7261C16.326 17.9032 16.4332 18.1382 16.4509 18.3881C16.4332 18.6379 16.326 18.8729 16.1489 19.05C15.9718 19.2271 15.7367 19.3344 15.4869 19.3521C15.3598 19.3539 15.2336 19.3303 15.1158 19.2825C14.998 19.2347 14.891 19.1638 14.8011 19.0739C14.7112 18.984 14.6402 18.877 14.5925 18.7592C14.5447 18.6414 14.521 18.5152 14.5229 18.3881C14.521 18.2609 14.5447 18.1347 14.5925 18.0169C14.6402 17.8991 14.7112 17.7921 14.8011 17.7022C14.891 17.6123 14.998 17.5414 15.1158 17.4936C15.2336 17.4458 15.3598 17.4222 15.4869 17.4241ZM25.1269 17.4241C25.3767 17.4417 25.6118 17.549 25.7889 17.7261C25.966 17.9032 26.0732 18.1382 26.0909 18.3881C26.0732 18.6379 25.966 18.8729 25.7889 19.05C25.6118 19.2271 25.3767 19.3344 25.1269 19.3521C24.9998 19.3539 24.8736 19.3303 24.7558 19.2825C24.638 19.2347 24.531 19.1638 24.4411 19.0739C24.3512 18.984 24.2802 18.877 24.2325 18.7592C24.1847 18.6414 24.161 18.5152 24.1629 18.3881C24.161 18.2609 24.1847 18.1347 24.2325 18.0169C24.2802 17.8991 24.3512 17.7921 24.4411 17.7022C24.531 17.6123 24.638 17.5414 24.7558 17.4936C24.8736 17.4458 24.9998 17.4222 25.1269 17.4241ZM10.0659 23.8001V39.2241C10.0659 39.9471 11.0299 41.0311 11.7529 41.0311H14.1529V46.3331C14.1529 47.6581 15.1169 48.7331 16.3229 48.7331C17.5289 48.7331 18.4929 47.6491 18.4929 46.3331V41.0401H21.9869V46.3421C21.9869 47.6671 22.9509 48.7421 24.1569 48.7421C25.3629 48.7421 26.3269 47.6581 26.3269 46.3421V41.0401H28.7269C29.4499 41.0401 30.4139 40.0761 30.4139 39.2331V23.8001H10.0659Z" fill="#A4C639"/>
<path d="M6.69197 23.4501C7.89697 23.4501 8.86197 24.5341 8.86197 25.8501V35.0081C8.86197 36.3331 7.89797 37.4081 6.69197 37.4081C5.48597 37.4081 4.52197 36.3241 4.52197 35.0081V25.8601C4.52197 24.5351 5.48597 23.4601 6.69197 23.4601V23.4501Z" fill="#A4C639"/>
<path d="M33.9249 23.4501C35.1299 23.4501 36.0949 24.5341 36.0949 25.8501V35.0081C36.0949 36.3331 35.1309 37.4081 33.9249 37.4081C32.7189 37.4081 31.7549 36.3241 31.7549 35.0081V25.8601C31.7549 24.5351 32.7189 23.4601 33.9249 23.4601V23.4501Z" fill="#A4C639"/>
</svg>
