<svg width="60" height="60" viewBox="0 0 60 60" fill="none" xmlns="http://www.w3.org/2000/svg">
<path d="M39.0274 23.7637C40.3582 23.1613 41.8357 22.8259 43.3916 22.8259C49.2426 22.8259 53.9857 27.5691 53.9857 33.42C53.9857 39.271 49.2426 44.0142 43.3916 44.0142C43.3697 44.0142 43.3479 44.0141 43.326 44.014C43.3078 44.0141 43.2896 44.0142 43.2713 44.0142H13.3994C9.32657 44.0142 6.0249 40.7125 6.0249 36.6397C6.0249 32.7707 9.0044 29.9472 12.7941 29.6393C13.0623 22.2464 19.1402 15.9858 26.5986 15.9858C32.0635 15.9858 36.7871 19.1592 39.0274 23.7637Z" fill="white"/>
<path fill-rule="evenodd" clip-rule="evenodd" d="M40.5702 19.6634C41.4831 19.4769 42.4269 19.3792 43.3916 19.3792C51.1461 19.3792 57.4325 25.6655 57.4325 33.42C57.4325 41.1746 51.1461 47.4609 43.3916 47.4609C43.3703 47.4609 43.349 47.4609 43.3276 47.4608C43.3087 47.4609 43.29 47.4609 43.2713 47.4609H13.3994C7.42296 47.4609 2.57812 42.6161 2.57812 36.6397C2.57812 31.8355 5.63326 28.2137 9.66126 26.8065C11.206 18.8899 18.1143 12.5391 26.5986 12.5391C32.3477 12.5391 37.4356 15.3501 40.5702 19.6634ZM39.0274 23.7637C36.7871 19.1592 32.0634 15.9858 26.5986 15.9858C19.1402 15.9858 13.0623 22.2464 12.7941 29.6393C9.00439 29.9472 6.02489 32.7707 6.02489 36.6397C6.02489 40.7125 9.32655 44.0142 13.3994 44.0142H43.2713C43.2896 44.0142 43.3078 44.0141 43.326 44.014C43.3478 44.0141 43.3697 44.0142 43.3916 44.0142C49.2425 44.0142 53.9857 39.271 53.9857 33.42C53.9857 27.5691 49.2425 22.8259 43.3916 22.8259C41.8357 22.8259 40.3582 23.1613 39.0274 23.7637Z" fill="#959595"/>
<path d="M25.1662 32.0806C25.1662 32.3529 25.1965 32.5734 25.2483 32.7376C25.3089 32.8975 25.3823 33.0747 25.4818 33.2693C25.5207 33.3298 25.5336 33.386 25.5336 33.4378C25.5336 33.5113 25.4904 33.5848 25.3953 33.6583L24.9328 33.9695C24.868 34.0127 24.7988 34.0343 24.7426 34.0343C24.6692 34.0343 24.5957 33.9954 24.5222 33.9306C24.4185 33.8182 24.332 33.7015 24.2585 33.5848C24.1851 33.4594 24.1116 33.3211 24.0295 33.1525C23.4546 33.8312 22.7328 34.1683 21.864 34.1683C21.2459 34.1683 20.7531 33.9911 20.3901 33.6367C20.0313 33.2822 19.8455 32.8111 19.8455 32.2233C19.8455 31.5965 20.0659 31.0908 20.5154 30.7061C20.9649 30.3214 21.5614 30.1312 22.3178 30.1312C22.5685 30.1312 22.8235 30.1529 23.1002 30.1918C23.3725 30.2307 23.6534 30.2869 23.9473 30.3517V29.8157C23.9473 29.2581 23.8306 28.8648 23.6015 28.6401C23.3681 28.411 22.9705 28.3029 22.3999 28.3029C22.1406 28.3029 21.8769 28.3332 21.6046 28.398C21.3323 28.4628 21.0687 28.545 20.8093 28.6487C20.6926 28.7006 20.6019 28.7308 20.55 28.7438C20.4981 28.7568 20.4635 28.7654 20.4333 28.7654C20.3296 28.7654 20.2777 28.6919 20.2777 28.5363V28.1776C20.2777 28.0609 20.2907 27.9701 20.3296 27.9182C20.3685 27.8664 20.4333 27.8145 20.537 27.7626C20.7964 27.6286 21.1033 27.5206 21.4663 27.4298C21.8251 27.3347 22.2098 27.2915 22.6161 27.2915C23.4935 27.2915 24.1332 27.4903 24.5438 27.888C24.9501 28.2856 25.1533 28.8907 25.1533 29.699V32.0849H25.1662V32.0806ZM22.1795 33.2001C22.4216 33.2001 22.6723 33.1569 22.9359 33.0661C23.1996 32.9797 23.4373 32.8154 23.6361 32.595C23.7528 32.4567 23.8436 32.3011 23.8868 32.1238C23.93 31.9466 23.9603 31.7348 23.9603 31.4841V31.1729C23.7485 31.1211 23.5194 31.0778 23.2817 31.0476C23.0483 31.0173 22.8192 31.0044 22.5901 31.0044C22.0974 31.0044 21.7343 31.0994 21.4923 31.2983C21.2502 31.4971 21.1335 31.7781 21.1335 32.1455C21.1335 32.4912 21.22 32.7506 21.4058 32.9278C21.583 33.1093 21.838 33.2001 22.1795 33.2001ZM28.0881 33.9954C27.9541 33.9954 27.8677 33.9738 27.8072 33.9219C27.7466 33.8787 27.6948 33.775 27.6516 33.6367L25.9226 27.9485C25.8794 27.8015 25.8578 27.7064 25.8578 27.6546C25.8578 27.5379 25.9183 27.4687 26.035 27.4687H26.7568C26.8951 27.4687 26.9902 27.4903 27.0421 27.5422C27.1026 27.5854 27.1458 27.6891 27.1891 27.8275L28.4252 32.6987L29.575 27.8275C29.6139 27.6805 29.6571 27.5854 29.7133 27.5422C29.7738 27.499 29.8732 27.4687 30.0072 27.4687H30.5994C30.7377 27.4687 30.8328 27.4903 30.8933 27.5422C30.9538 27.5854 31.0057 27.6891 31.0316 27.8275L32.1943 32.7592L33.4694 27.8275C33.5126 27.6805 33.5645 27.5854 33.6163 27.5422C33.6769 27.499 33.7719 27.4687 33.9016 27.4687H34.5845C34.7012 27.4687 34.7704 27.5292 34.7704 27.6546C34.7704 27.6935 34.7618 27.728 34.7574 27.7713C34.7488 27.8145 34.7358 27.875 34.7056 27.9571L32.9334 33.6453C32.8902 33.7923 32.8383 33.8873 32.7778 33.9306C32.7173 33.9738 32.6222 34.004 32.4969 34.004H31.8658C31.7275 34.004 31.6324 33.9824 31.5719 33.9306C31.5114 33.8787 31.4595 33.7836 31.4336 33.6367L30.2925 28.8907L29.16 33.6323C29.1211 33.7793 29.0779 33.8744 29.0217 33.9262C28.9612 33.9781 28.8618 33.9997 28.7278 33.9997H28.0881V33.9954ZM37.5453 34.1942C37.1606 34.1942 36.7803 34.151 36.4129 34.0602C36.0455 33.9695 35.7559 33.8744 35.5657 33.7663C35.449 33.7015 35.3669 33.628 35.3366 33.5588C35.3064 33.494 35.2934 33.4205 35.2934 33.3514V32.9753C35.2934 32.8197 35.3539 32.7463 35.462 32.7463C35.5052 32.7463 35.5484 32.7549 35.596 32.7679C35.6392 32.7808 35.7083 32.8111 35.7818 32.8413C36.0325 32.9537 36.3048 33.0402 36.5901 33.1007C36.884 33.1612 37.1736 33.1871 37.4675 33.1871C37.93 33.1871 38.2931 33.105 38.5438 32.9451C38.7945 32.7852 38.9285 32.5474 38.9285 32.2449C38.9285 32.0374 38.8636 31.8688 38.7296 31.7305C38.5956 31.5922 38.3449 31.4668 37.9862 31.3458L36.9186 31.013C36.3826 30.8444 35.985 30.5937 35.7429 30.2609C35.5009 29.9367 35.3755 29.578 35.3755 29.1933C35.3755 28.8821 35.4404 28.6098 35.5743 28.3764C35.7083 28.143 35.8856 27.9355 36.106 27.7713C36.3264 27.6027 36.5771 27.4773 36.871 27.3866C37.165 27.3001 37.4762 27.2612 37.8003 27.2612C37.9603 27.2612 38.1332 27.2699 38.2931 27.2915C38.4617 27.3131 38.6173 27.3434 38.7729 27.3736C38.9198 27.4125 39.0581 27.4471 39.1921 27.4903C39.3261 27.5335 39.4255 27.5768 39.5033 27.6243C39.6071 27.6848 39.6805 27.741 39.7238 27.8102C39.767 27.8707 39.7886 27.9485 39.7886 28.0522V28.398C39.7886 28.5536 39.7281 28.6314 39.62 28.6314C39.5595 28.6314 39.4644 28.6011 39.3391 28.545C38.9198 28.3548 38.4487 28.2597 37.9257 28.2597C37.5064 28.2597 37.1736 28.3245 36.9488 28.4672C36.7198 28.6055 36.6031 28.8216 36.6031 29.1241C36.6031 29.3316 36.6765 29.5088 36.8235 29.6472C36.9705 29.7855 37.2428 29.9281 37.6318 30.0534L38.6778 30.3863C39.2094 30.5548 39.5898 30.7926 39.8189 31.0908C40.0479 31.3934 40.156 31.7392 40.156 32.1195C40.156 32.435 40.0912 32.7246 39.9658 32.9753C39.8318 33.226 39.6546 33.4465 39.4298 33.6237C39.2008 33.8095 38.9285 33.9392 38.6129 34.0343C38.2671 34.1424 37.9214 34.1942 37.5453 34.1942Z" fill="#252F3E"/>
<path d="M38.9371 37.7687C36.5166 39.5582 32.9982 40.5047 29.9726 40.5047C25.7324 40.5047 21.9115 38.9357 19.0285 36.3294C18.7994 36.1219 19.0069 35.8453 19.2792 36.0052C22.3999 37.8163 26.2511 38.9141 30.2319 38.9141C32.9204 38.9141 35.8682 38.3566 38.587 37.2068C38.9889 37.0253 39.3347 37.4748 38.9371 37.7687ZM39.9442 36.6233C39.6329 36.2257 37.8997 36.4331 37.1087 36.5282C36.8753 36.5585 36.8364 36.351 37.0482 36.1954C38.4313 35.2229 40.7049 35.5038 40.9729 35.828C41.2365 36.1608 40.8994 38.4344 39.6027 39.5236C39.4039 39.6921 39.2137 39.6057 39.3001 39.3853C39.5984 38.6548 40.2554 37.0123 39.9442 36.6233Z" fill="#FF9900"/>
</svg>
