<svg width="60" height="60" viewBox="0 0 60 60" fill="none" xmlns="http://www.w3.org/2000/svg">
<g clip-path="url(#clip0)">
<path d="M2.43443 40.9801C2.43443 40.9801 -2.95277 37.0447 2.30071 33.5106L25.3205 18.1513C25.3205 18.1513 28.0523 16.0882 33.8789 17.8266L56.6312 32.8993C56.6312 32.8993 63.3365 35.994 57.4526 40.9801L35.1015 55.8808C35.1015 55.8808 30.0964 59.8162 22.8943 55.3077L2.43443 40.9801Z" fill="url(#paint0_linear)"/>
<g filter="url(#filter0_f)">
<path d="M5.99026 36.8284C5.99026 36.8284 1.29963 33.4019 5.87383 30.3247L25.9172 16.9514C25.9172 16.9514 28.2957 15.155 33.369 16.6686L53.1794 29.7924C53.1794 29.7924 59.0178 32.4871 53.8947 36.8284L34.4335 49.8025C34.4335 49.8025 30.0755 53.229 23.8047 49.3035L5.99026 36.8284Z" fill="black" fill-opacity="0.35"/>
</g>
<path d="M2.56407 34.3736C2.56407 34.3736 -2.82313 30.4383 2.43034 26.9041L25.4501 11.5449C25.4501 11.5449 28.1819 9.48171 34.0085 11.2201L56.7608 26.2928C56.7608 26.2928 63.4662 29.3876 57.5823 34.3736L35.2311 49.2744C35.2311 49.2744 30.226 53.2097 23.024 48.7013L2.56407 34.3736Z" fill="url(#paint1_linear)"/>
<g filter="url(#filter1_f)">
<path d="M5.99026 28.8284C5.99026 28.8284 1.29963 25.4019 5.87383 22.3247L25.9172 8.95141C25.9172 8.95141 28.2957 7.155 33.369 8.66864L53.1794 21.7924C53.1794 21.7924 59.0178 24.4871 53.8947 28.8284L34.4335 41.8025C34.4335 41.8025 30.0755 45.229 23.8047 41.3035L5.99026 28.8284Z" fill="black" fill-opacity="0.35"/>
</g>
<path d="M2.43443 25.8501C2.43443 25.8501 -2.95277 21.9147 2.30071 18.3806L25.3205 3.02134C25.3205 3.02134 28.0523 0.958153 33.8789 2.69658L56.6312 17.7693C56.6312 17.7693 63.3365 20.864 57.4526 25.8501L35.1015 40.7508C35.1015 40.7508 30.0964 44.6862 22.8943 40.1777L2.43443 25.8501Z" fill="url(#paint2_linear)"/>
<path d="M18.5386 18.1132C19.6658 17.4064 20.7738 16.6422 21.8818 15.8781C22.6268 15.4387 23.2954 14.8847 24.0787 14.4835C26.2183 13.3946 28.4534 13.0317 30.784 13.7767C32.064 14.197 33.172 14.8656 33.7833 16.1264C34.2227 17.2344 34.0125 18.2087 33.1911 19.0684C33.3821 19.1257 33.4585 19.0302 33.554 18.992C35.3689 18.1514 37.2219 17.9222 39.1705 18.4189C39.2087 18.438 39.266 18.4189 39.3042 18.4189C40.1256 18.7054 40.9089 19.0493 41.6157 19.5651C42.3417 20.1191 42.9339 20.7686 43.2586 21.6474C43.4114 22.2778 43.3541 22.8891 43.144 23.5004C42.59 24.7421 41.6157 25.6209 40.5268 26.3659C39.1705 27.302 37.7759 28.219 36.4196 29.155C35.5981 29.6899 34.7767 30.2057 33.9934 30.7788C33.6686 31.0081 33.4585 30.9508 33.1911 30.7406C32.4651 30.1675 31.6628 29.6708 30.8986 29.1741C30.8795 29.155 30.8413 29.1359 30.8222 29.1168C30.8031 29.0977 30.784 29.0977 30.7649 29.0786C29.2175 28.0279 27.6701 26.9963 26.1228 25.9457C25.0339 25.2006 23.9258 24.4747 22.8178 23.7487C21.5952 22.9082 20.3535 22.0867 19.1309 21.2462C18.9398 21.1125 18.7488 20.9978 18.5577 20.8832C17.8891 20.4247 17.2014 19.9471 16.5137 19.4887C17.2014 19.0493 17.87 18.5908 18.5386 18.1132ZM31.6819 21.7429C30.9177 22.2205 30.1727 22.7363 29.4277 23.252C28.9883 23.5386 28.5489 23.8443 28.0904 24.1308C27.8612 24.2645 27.9376 24.341 28.1095 24.4556C29.9817 25.6973 31.8347 26.9581 33.7069 28.219C33.8597 28.3145 33.9552 28.3145 34.0889 28.219C35.5408 27.2256 37.0118 26.2513 38.4827 25.2388C39.0176 24.8758 39.5143 24.4556 39.8773 23.8825C40.5841 22.9273 40.4313 21.8957 39.4761 21.1698C38.6356 20.4056 37.6231 20.0044 36.496 19.9853C34.6429 19.9471 33.1146 20.7304 31.6819 21.7429ZM22.1683 18.266C21.7098 18.5717 21.2513 18.8964 20.7738 19.183C20.5445 19.3358 20.5636 19.4122 20.7738 19.546C22.4549 20.6731 24.136 21.8002 25.8171 22.9273C25.989 23.0419 26.0845 23.0037 26.2374 22.9082C26.7723 22.5452 27.3072 22.1823 27.8421 21.8193C28.7399 21.208 29.6951 20.654 30.4975 19.9089C30.975 19.4695 31.4144 18.992 31.5673 18.3233C31.7965 17.4446 31.338 16.8524 30.7076 16.3748C29.2557 15.2668 27.6701 15.1904 26.0272 15.859C24.6136 16.4321 23.4292 17.4255 22.1683 18.266Z" fill="#FEFEFE"/>
</g>
<defs>
<filter id="filter0_f" x="0.387803" y="12.5793" width="59.0949" height="42.0911" filterUnits="userSpaceOnUse" color-interpolation-filters="sRGB">
<feFlood flood-opacity="0" result="BackgroundImageFix"/>
<feBlend mode="normal" in="SourceGraphic" in2="BackgroundImageFix" result="shape"/>
<feGaussianBlur stdDeviation="1.7414" result="effect1_foregroundBlur"/>
</filter>
<filter id="filter1_f" x="0.387803" y="4.57933" width="59.0949" height="42.0911" filterUnits="userSpaceOnUse" color-interpolation-filters="sRGB">
<feFlood flood-opacity="0" result="BackgroundImageFix"/>
<feBlend mode="normal" in="SourceGraphic" in2="BackgroundImageFix" result="shape"/>
<feGaussianBlur stdDeviation="1.7414" result="effect1_foregroundBlur"/>
</filter>
<linearGradient id="paint0_linear" x1="29.9244" y1="57.4831" x2="29.9244" y2="17.1448" gradientUnits="userSpaceOnUse">
<stop stop-color="#351465"/>
<stop offset="1" stop-color="#8753D4"/>
</linearGradient>
<linearGradient id="paint1_linear" x1="30.0541" y1="50.8787" x2="30.0541" y2="10.5404" gradientUnits="userSpaceOnUse">
<stop stop-color="#471B85"/>
<stop offset="1" stop-color="#8753D4"/>
</linearGradient>
<linearGradient id="paint2_linear" x1="29.9244" y1="42.3496" x2="29.9244" y2="2.01127" gradientUnits="userSpaceOnUse">
<stop stop-color="#5723A2"/>
<stop offset="1" stop-color="#8753D4"/>
</linearGradient>
<clipPath id="clip0">
<rect width="60" height="60" fill="white"/>
</clipPath>
</defs>
</svg>
