<svg width="850" height="860" viewBox="0 0 850 860" fill="none" xmlns="http://www.w3.org/2000/svg">
<mask id="mask0" mask-type="alpha" maskUnits="userSpaceOnUse" x="0" y="0" width="850" height="860">
<rect width="850" height="860" fill="white"/>
</mask>
<g mask="url(#mask0)">
<g opacity="0.0594754">
<mask id="mask1" mask-type="alpha" maskUnits="userSpaceOnUse" x="-590" y="-77" width="1097" height="919">
<path fill-rule="evenodd" clip-rule="evenodd" d="M-590 -76.2305H506.48V841.319H-590V-76.2305Z" fill="white"/>
</mask>
<g mask="url(#mask1)">
<path fill-rule="evenodd" clip-rule="evenodd" d="M365.135 -110.778C341.854 -59.5915 302.946 -15.4041 252.945 13.0895C229.465 26.4729 203.797 36.2631 177.05 41.4546C146.919 47.3031 117.558 45.9194 87.4242 40.9573C57.8941 36.0943 26.3047 30.8771 -1.0807 45.9011C-11.7568 51.7587 -21.1372 60.1341 -27.1591 70.5391C-33.8554 82.1113 -34.5431 94.3257 -34.3018 107.3C-34.1366 116.101 -34.0834 125.276 -38.6122 133.211C-42.4438 139.921 -48.8494 144.413 -55.8002 147.811C-67.2153 153.392 -76.6242 158.973 -81.5272 171.099C-83.577 176.166 -84.504 181.667 -84.2153 187.101C-83.8486 193.986 -80.9592 200.328 -79.865 207.098C-76.9415 225.205 -84.4489 242.598 -83.8467 260.633C-82.9919 286.193 -63.8548 307.082 -40.7474 317.615C-10.7841 331.276 23.8979 328.105 55.1453 337.5C112.598 354.776 154.807 401.191 174.801 454.809C184.145 479.871 190.948 507.889 209.564 528.411C229.763 550.676 259.717 553.119 288.107 557.481C316.239 561.803 341.664 572.47 363.448 590.362C385.128 608.172 402.026 631.224 412.926 656.578C418.591 669.754 422.609 683.604 424.814 697.714C427.487 714.808 426.835 732.271 431.039 749.155C434.863 764.51 441.78 778.921 448.915 793.055C456.567 808.214 464.053 823.402 470.615 839.037C484.264 871.551 496.023 905.889 501.822 940.599C504.957 959.357 505.43 978.196 501.579 996.875C498.711 1010.8 494.476 1024.61 493.583 1038.84C492.867 1050.28 494.87 1061.46 502.559 1070.52C503.384 1071.49 504.839 1070.14 504.02 1069.17C493.318 1056.57 494.661 1039.82 497.493 1024.75C500.116 1010.79 504.389 997.114 505.802 982.954C509.218 948.75 499.14 914.024 488.604 881.71C478.179 849.737 464.331 819.443 449.259 789.305C441.599 773.986 434.459 758.25 431.429 741.385C428.494 725.042 428.95 708.339 425.861 692.001C416.292 641.395 383.06 593.491 335.24 569.679C324.138 564.152 312.355 560.094 300.136 557.598C284.888 554.484 269.272 553.348 254.085 549.931C238.834 546.503 224.48 540.415 213.497 529.371C203.748 519.57 197.213 507.263 191.913 494.794C180.752 468.523 174.007 440.98 158.809 416.38C144.676 393.508 125.687 373.387 103.087 358.086C79.381 342.037 52.9284 332.942 24.3785 329.046C-7.38945 324.713 -41.2204 322.44 -64.5728 298.453C-75.1919 287.547 -81.6982 273.567 -81.6583 258.474C-81.6146 241.673 -75.2109 225.51 -77.4221 208.607C-78.3738 201.323 -81.5994 194.469 -82.0003 187.127C-82.3992 179.838 -80.5147 172.494 -76.5995 166.249C-72.5134 159.734 -66.5656 155.08 -59.5046 151.841C-53.7182 149.188 -47.9889 146.52 -43.2359 142.275C-32.9018 133.048 -31.8513 120.142 -32.0887 107.326C-32.3794 91.729 -30.8293 77.7749 -20.7497 64.9696C-0.805252 39.6305 32.2468 35.6263 62.8427 39.3241C80.3898 41.4454 97.6747 45.3395 115.303 46.881C128.16 48.0059 141.116 47.949 153.971 46.7966C179.497 44.5064 204.483 37.8523 227.864 27.7427C277.416 6.31612 319.759 -30.5529 347.665 -75.4743C354.635 -86.6977 360.629 -98.4075 365.756 -110.519C365.9 -110.859 365.29 -111.119 365.135 -110.778Z" fill="#034CCB"/>
<path fill-rule="evenodd" clip-rule="evenodd" d="M315.559 -107.414C312.82 -75.7479 289.46 -51.1668 263.114 -34.4105C249.123 -25.5139 234.222 -18.0708 220.083 -9.40909C206.694 -1.20803 195.347 8.54369 183.811 18.9817C172.335 29.3629 159.531 37.4043 143.24 35.8738C129.838 34.6131 117.446 28.304 105.75 22.3014C82.7472 10.4944 59.239 -2.5238 32.6154 6.46819C18.3148 11.2963 5.83974 20.1599 -6.15848 28.8766C-18.0826 37.5383 -29.7864 46.7321 -39.3986 57.8235C-47.9832 67.7256 -54.6661 79.1051 -57.7873 91.7251C-61.484 106.677 -61.6398 121.753 -76.7477 130.559C-91.8044 139.337 -118.531 142.031 -118.922 163.733C-119.171 177.556 -107.991 188.532 -103.255 200.89C-97.3039 216.418 -98.6545 233.461 -99.4771 249.668C-100.214 264.175 -100.866 279.045 -96.6143 293.149C-93.1949 304.488 -86.814 314.778 -78.3434 323.271C-61.2085 340.453 -37.081 350.094 -13.2936 355.018C16.303 361.142 47.256 361.389 75.7413 372.152C104.874 383.163 123.818 405.426 137.49 431.826C150.301 456.561 158.94 483.088 171.776 507.814C184.498 532.325 202.237 553.836 225.497 569.765C248.957 585.829 274.973 593.695 303.36 596.26C312.275 597.064 321.294 598.189 329.288 602.375C336.518 606.157 342.382 611.937 347.42 618.133C357.585 630.633 365.497 645.173 372.387 659.558C399.896 716.988 408.819 780.557 426.182 841.095C435.289 872.848 447.889 903.399 459.281 934.414C470.816 965.811 481.361 998.398 482.434 1031.96C482.957 1048.3 480.991 1064.53 476.276 1080.25C475.877 1081.58 478.022 1082.16 478.42 1080.83C497.719 1016.26 467.75 951.333 445.271 891.458C433.98 861.375 425.122 830.791 417.462 799.675C409.94 769.119 403.04 738.374 393.479 708.33C384.384 679.752 372.807 651.53 355.859 626.381C348.421 615.343 339.356 604.217 326.437 598.98C312.072 593.157 295.695 594.597 280.632 591.573C251.298 585.681 224.583 570.53 203.793 549.823C182.817 528.928 170.156 503.103 158.823 476.507C148.198 451.573 138.418 425.449 121.291 403.828C103.433 381.287 78.2469 369.273 49.944 363.428C21.7645 357.609 -7.55473 357.088 -34.8376 347.494C-60.519 338.465 -84.8592 321.814 -94.0555 295.931C-104.637 266.148 -91.2839 234.112 -100.472 204.189C-104.781 190.152 -118.854 177.255 -117.239 161.965C-115.962 149.878 -105.049 144.227 -94.614 140.047C-85.1499 136.252 -74.6638 132.963 -67.5857 125.401C-58.1919 115.363 -59.0088 100.805 -55.2778 88.5063C-46.3039 58.9098 -18.2973 38.3879 6.83136 21.6096C21.2364 11.99 37.695 3.38706 55.7721 4.78724C69.5845 5.85711 82.4775 11.9331 94.565 18.0477C114.509 28.1334 137.83 42.9536 161.281 35.1802C174.615 30.7594 184.206 20.1287 194.227 11.1018C207.009 -0.411598 221.783 -9.22925 236.824 -17.6872C262.206 -31.957 288.066 -46.5442 303.973 -71.2923C311.031 -82.2772 315.328 -94.4861 316.228 -107.405C316.255 -107.822 315.595 -107.825 315.559 -107.414Z" fill="#034CCB"/>
<path fill-rule="evenodd" clip-rule="evenodd" d="M255.076 -98.4115C239.075 -68.725 216.808 -42.1528 189.257 -21.7593C174.518 -10.8497 158.458 -3.66341 139.446 -5.04341C121.641 -6.33348 106.928 -16.4541 90.1179 -21.251C59.9874 -29.8521 27.2925 -26.8077 1.5446 -8.6347C-20.5142 6.93795 -35.8159 29.6859 -51.7806 50.6629C-68.1575 72.1813 -86.2004 93.9382 -112.849 103.673C-124.275 107.846 -137.337 110.839 -146.338 119.338C-150.426 123.195 -153.26 128.117 -154.402 133.538C-156.039 141.291 -152.73 147.964 -152.35 155.592C-151.927 164.186 -154.951 172.91 -161.136 179.173C-165.296 183.385 -169.719 185.831 -172.241 191.358C-175.786 199.128 -176.326 210.909 -168.993 216.927C-164.536 220.58 -158.908 220.085 -153.446 219.758C-143.317 219.151 -137.001 223.744 -136.049 233.639C-134.433 250.5 -147.379 260.723 -157.206 272.682C-165.699 283.018 -169.443 295.065 -166.385 308.122C-163.296 321.316 -154.578 333.235 -143.72 341.598C-130.411 351.85 -113.685 356.86 -98.3449 363.481C-90.5202 366.856 -82.9976 370.724 -76.0506 375.591C-69.1092 380.452 -62.6618 385.965 -55.5058 390.54C-48.9102 394.757 -41.872 397.855 -34.0017 398.994C-25.8712 400.172 -17.5811 399.638 -9.39171 399.658C5.85112 399.695 21.1927 400.459 36.1943 403.217C67.0789 408.896 93.978 424.056 107.916 452.179C122.252 481.111 124.038 514.475 142.258 541.838C158.19 565.766 182.627 582.434 208.107 595.854C259.219 622.774 324.864 643.672 345.53 702.4C350.412 716.274 352.654 731.995 347.671 746.162C345.061 753.576 340.399 760.101 332.985 763.616C325.588 767.122 318.365 768.514 313.092 775.16C304.663 785.787 303.715 800.824 305.778 813.582C308.215 828.657 315.603 842.593 324.879 854.783C344.282 880.28 373.111 897.049 392.951 922.15C415.265 950.381 419.59 985.89 417.892 1020.4C417.083 1036.87 415.004 1053.26 412.77 1069.6C412.556 1071.17 415.126 1071.2 415.341 1069.63C419.719 1037.33 423.889 1004 417.706 971.661C414.786 956.391 409.307 941.56 400.54 928.488C391.656 915.239 379.95 904.133 367.908 893.577C343.306 872.015 315.861 849.711 308.683 816.663C305.164 800.47 306.583 777.261 324.355 769.33C331.18 766.284 337.875 764.656 342.966 758.927C346.64 754.789 349.041 749.735 350.557 744.518C358.007 718.867 346.075 690.458 329.883 670.306C312.187 648.285 287.42 632.384 262.124 619.571C235.842 606.258 208.24 595.398 183.763 578.94C171.212 570.501 159.611 560.641 150.212 548.938C139.678 535.825 133.006 520.843 128.025 505.054C118.983 476.388 113.489 444.793 89.0636 423.953C68.3896 406.314 40.4419 400.18 13.6169 398.256C6.25005 397.73 -1.13771 397.511 -8.52167 397.478C-17.545 397.442 -26.8153 398.196 -35.7285 396.515C-53.2338 393.21 -65.3802 379.427 -79.7986 370.462C-108.783 352.441 -149.267 348.812 -162.487 313.267C-165.251 305.832 -166.204 297.702 -164.198 289.978C-161.976 281.421 -156.252 274.644 -150.319 268.175C-141.756 258.84 -133.806 249.619 -133.737 236.485C-133.682 226.253 -139.117 217.4 -150.576 217.512C-159.073 217.596 -167.868 219.154 -171.368 209.705C-173.624 203.617 -172.597 196.337 -169.531 190.674C-166.398 184.888 -160.008 181.939 -156.21 176.587C-152.702 171.642 -150.734 165.773 -150.278 159.815C-149.651 151.636 -153.634 144.022 -152.574 135.914C-151.528 127.902 -146.801 121.441 -139.932 117.009C-128.72 109.773 -114.967 107.61 -103.022 101.811C-91.7873 96.3569 -82.0383 88.4366 -73.4233 79.6703C-54.3603 60.2733 -40.2801 36.9749 -22.486 16.5686C-13.6279 6.40761 -3.78392 -3.21014 7.86665 -10.3854C22.9803 -19.6893 40.5996 -24.1908 58.4715 -23.9963C76.788 -23.7981 94.734 -18.9406 111.139 -11.2387C124.971 -4.74429 139.461 -1.48148 154.852 -3.90198C170.426 -6.35367 182.958 -14.6428 194.941 -24.0954C207.408 -33.9316 218.755 -45.0688 228.829 -57.1914C239.322 -69.8188 248.251 -83.5416 255.789 -97.9967C256.028 -98.4555 255.325 -98.8721 255.076 -98.4115Z" fill="#034CCB"/>
<path fill-rule="evenodd" clip-rule="evenodd" d="M-245.539 -123.458C-261.257 -55.0257 -310.491 -0.903091 -367.689 39.5994C-400.375 62.7455 -435.499 82.3682 -469.6 103.448C-478.154 108.735 -486.645 114.115 -495.019 119.665C-502.528 124.642 -510.252 129.561 -517.186 135.283C-523.191 140.24 -528.461 146.263 -530.657 153.724C-532.737 160.788 -531.891 168.148 -529.127 174.916C-523.088 189.707 -510.285 200.591 -499.939 212.515C-488.955 225.174 -480.107 239.418 -472.347 254.095C-456.772 283.558 -445.434 314.918 -429.612 344.263C-421.843 358.679 -412.927 372.573 -402.046 385.004C-390.835 397.811 -377.725 408.99 -363.46 418.529C-335.099 437.499 -302.558 449.876 -269.566 459.066C-249.732 464.592 -229.294 469.404 -208.525 469.341C-188.784 469.282 -169.84 463.885 -151.379 457.593C-141.721 454.303 -132.153 450.766 -122.463 447.557C-117.727 445.988 -112.961 444.492 -108.147 443.16C-104.515 442.154 -100.757 441.455 -97.2924 439.965C-86.8044 435.452 -80.3513 424.79 -80.7046 413.798C-80.8775 408.387 -82.6746 403.056 -85.9401 398.65C-90.3682 392.674 -97.1727 389.424 -103.658 385.914C-119.416 377.381 -135.81 369.952 -150.912 360.316C-164.204 351.834 -176.692 341.833 -186.377 329.529C-196.175 317.087 -203.793 300.903 -203.464 284.987C-203.365 280.284 -202.303 275.432 -199.042 271.784C-196.407 268.833 -192.807 266.946 -189.515 264.786C-183.603 260.901 -179.392 255.895 -178.996 248.773C-178.087 232.402 -192.437 222.181 -203.002 211.79C-209.203 205.694 -214.645 198.163 -214.189 189.219C-213.737 180.403 -208.27 172.736 -200.86 167.915C-194.631 163.863 -189.887 158.275 -188.331 151.021C-186.673 143.299 -189.532 135.272 -189.695 127.491C-189.857 119.826 -188.956 111.669 -184.91 104.916C-180.444 97.4619 -172.79 93.9275 -164.094 93.2559C-156.639 92.6797 -149.206 93.1953 -141.881 91.4703C-137.016 90.3252 -132.326 88.4608 -128.008 86.0182C-108.666 75.0829 -96.9884 54.4912 -86.8405 35.9677C-75.2754 14.8586 -65.1122 -7.74252 -48.9595 -26.0844C-41.4577 -34.5974 -32.5142 -42.0038 -21.8248 -46.4888C-4.54559 -53.7411 14.6903 -52.1648 32.775 -49.1497C50.6261 -46.1713 68.3688 -41.6937 86.5656 -41.2386C102.532 -40.8385 118.277 -44.3381 132.114 -52.1501C159.643 -67.6952 174.463 -97.5945 169.579 -128.044C167.443 -141.369 161.477 -154.268 151.108 -163.493C149.849 -164.612 147.907 -162.84 149.173 -161.713C172.77 -140.721 172.981 -102.226 156.101 -77.4139C146.984 -64.014 133.151 -53.8457 117.572 -48.4175C101.026 -42.6535 83.625 -43.1508 66.4749 -45.7584C34.5151 -50.616 -1.02362 -62.6175 -31.0591 -44.7693C-50.6996 -33.0999 -63.1822 -12.923 -73.8393 6.20058C-85.1137 26.4289 -94.6405 48.1528 -109.486 66.2836C-115.958 74.1855 -123.734 81.3424 -133.228 85.7209C-137.954 87.8992 -143.047 89.3159 -148.247 89.927C-156.753 90.929 -165.646 89.5343 -173.837 92.5071C-187.872 97.6014 -192.342 112.19 -192.438 125.451C-192.465 128.98 -192.214 132.507 -191.787 136.012C-191.204 140.809 -189.94 145.481 -190.962 150.311C-191.774 154.154 -193.624 157.771 -196.27 160.742C-198.966 163.766 -202.495 165.493 -205.626 167.988C-211.501 172.668 -215.66 179.583 -216.693 186.888C-217.7 193.992 -215.329 200.809 -211.139 206.604C-201.842 219.457 -185.4 226.846 -182.139 243.47C-181.343 247.533 -181.59 251.832 -183.662 255.519C-185.809 259.338 -189.555 261.672 -193.214 263.99C-199.313 267.851 -204.15 272.202 -205.59 279.405C-208.426 293.608 -202.212 309.924 -194.804 321.997C-178.666 348.289 -150.574 364.526 -123.337 378.373C-114.085 383.077 -104.699 387.687 -95.8126 393.019C-90.334 396.304 -86.1338 401.145 -84.2475 407.161C-80.5887 418.821 -85.9343 432.006 -97.3133 437.539C-100.89 439.28 -104.866 439.987 -108.692 441.048C-113.506 442.382 -118.27 443.877 -123.006 445.45C-132.694 448.665 -142.263 452.203 -151.921 455.497C-171.069 462.032 -190.647 467.528 -211.142 467.187C-231.894 466.84 -252.268 461.799 -272.066 456.161C-288.574 451.46 -304.871 445.96 -320.595 439.176C-352.199 425.537 -381.549 406.48 -403.412 380.264C-445.786 329.455 -455.343 260.318 -499.193 210.444C-509.893 198.275 -523.755 186.681 -528.539 170.838C-531.033 162.568 -529.992 153.844 -525.151 146.54C-520.304 139.221 -512.741 134.052 -505.551 129.068C-473.243 106.672 -438.786 87.4386 -405.382 66.6561C-346.508 30.0293 -289.682 -14.325 -259.905 -77.2836C-252.948 -91.9901 -247.734 -107.313 -244.51 -123.179C-244.381 -123.824 -245.389 -124.114 -245.539 -123.458Z" fill="#034CCB"/>
<path fill-rule="evenodd" clip-rule="evenodd" d="M-230.931 -111.461C-222.413 -78.7189 -235.234 -45.7514 -253.938 -18.6066C-272.862 8.86119 -298.04 32.3285 -323.921 53.6542C-349.673 74.8752 -377.535 93.7052 -407.092 109.656C-421.704 117.541 -436.728 124.72 -452.099 131.125C-464.811 136.421 -480.679 140.792 -486.452 154.342C-491.919 167.179 -485.943 182.113 -477.168 192.145C-466.232 204.648 -449.72 210.898 -437.768 222.327C-416.942 242.24 -411.214 272.104 -404.146 298.433C-400.456 312.172 -396.48 325.97 -390.187 338.845C-383.831 351.847 -375.117 363.746 -364.69 373.996C-344.384 393.955 -317.909 407.592 -289.957 414.519C-272.826 418.769 -255.044 420.441 -237.386 420.502C-227.975 420.535 -218.566 420.096 -209.192 419.329C-201.717 418.716 -193.523 418.644 -186.451 415.965C-166.959 408.586 -161.218 382.816 -176.048 368.44C-181.271 363.379 -188.459 360.531 -194.857 357.167C-202.167 353.322 -209.458 349.435 -216.023 344.464C-228.198 335.245 -238.957 322.905 -244.134 308.667C-246.548 302.024 -247.688 294.904 -246.75 287.884C-245.701 280.049 -241.794 273.573 -237.485 267.021C-233.832 261.468 -230.8 255.772 -229.987 249.162C-229.322 243.75 -230.052 238.241 -231.45 232.987C-234.512 221.478 -240.519 210.941 -245.454 200.13C-249.854 190.487 -254.554 179.094 -251.06 168.502C-246.645 155.12 -230.392 151.458 -223.597 139.625C-217.548 129.088 -217.74 116.248 -217.7 104.554C-217.658 93.0923 -218.428 79.8098 -211.931 69.6544C-203.284 56.137 -186.692 58.3006 -172.618 59.4182C-160.965 60.3449 -149.649 59.6953 -139.514 53.5715C-131.247 48.5764 -124.908 41.1645 -119.72 33.2901C-107.363 14.5372 -100.313 -6.95737 -89.5952 -26.5507C-84.5098 -35.8473 -78.6266 -44.9348 -70.819 -52.3412C-60.2987 -62.3223 -46.7922 -67.3578 -32.3947 -69.4865C-3.38507 -73.7752 28.0903 -68.9489 53.331 -86.4814C74.6147 -101.265 87.5077 -125.925 90.758 -150.721C92.3936 -163.189 91.4818 -175.928 87.7451 -187.977C87.1543 -189.882 84.0408 -189.142 84.6354 -187.228C92.538 -161.741 87.3804 -133.218 72.6239 -110.941C65.6844 -100.459 56.4218 -91.2325 45.1454 -85.1014C32.0815 -78.0014 16.9887 -76.0911 2.2569 -75.157C-12.9878 -74.1936 -28.5441 -74.2762 -43.4222 -70.5032C-55.9409 -67.3266 -67.0862 -61.08 -75.817 -51.8329C-90.9382 -35.8217 -99.1029 -14.8263 -108.147 4.66066C-116.234 22.0831 -125.565 43.2546 -144.125 52.4889C-155.802 58.2988 -168.448 56.4545 -181.031 55.5773C-194.025 54.6708 -207.305 56.4251 -214.731 68.0285C-221.122 78.0169 -220.914 90.7782 -220.962 102.103C-221.013 113.932 -220.259 127.293 -226.406 137.993C-233.063 149.58 -248.269 153.148 -253.558 165.874C-257.54 175.457 -254.81 185.974 -251.115 195.205C-246.64 206.382 -240.394 216.85 -236.378 228.209C-234.537 233.411 -233.131 238.841 -233.036 244.365C-232.916 251.32 -235.209 257.389 -238.929 263.29C-242.81 269.449 -247.016 275.275 -248.929 282.353C-250.65 288.73 -250.69 295.414 -249.4 301.864C-246.683 315.466 -238.41 327.741 -228.602 337.605C-216.988 349.285 -202.623 356.587 -188.037 364.217C-182.654 367.036 -177.76 370.079 -174.523 375.252C-171.82 379.572 -170.545 384.579 -170.729 389.617C-171.096 399.64 -177.334 408.953 -186.958 412.899C-194.488 415.984 -203.584 415.873 -211.606 416.483C-220.983 417.195 -230.39 417.565 -239.797 417.455C-272.188 417.074 -304.25 410.48 -332.361 394.507C-357.984 379.948 -378.852 358.371 -390.383 331.754C-401.758 305.496 -404.928 276.701 -416.146 250.39C-421.345 238.192 -428.535 226.645 -438.864 217.859C-451.056 207.487 -467.096 201.079 -477.016 188.301C-486.3 176.343 -490.538 158.288 -478.002 146.896C-472.533 141.924 -465.383 139.151 -458.544 136.419C-450.835 133.341 -443.204 130.092 -435.665 126.643C-406.03 113.089 -377.847 96.6505 -351.476 77.8408C-324.269 58.4401 -298.639 36.5198 -275.965 12.2598C-254.675 -10.5193 -235.5 -37.7063 -229.106 -68.257C-226.095 -82.6442 -226.27 -97.4296 -230.284 -111.617C-230.396 -112.017 -231.036 -111.865 -230.931 -111.461Z" fill="#034CCB"/>
<path fill-rule="evenodd" clip-rule="evenodd" d="M-164.821 890.643C-165.422 859.223 -155.298 829.131 -144.748 799.798C-139.45 785.064 -133.996 770.369 -129.533 755.374C-125.111 740.527 -121.908 725.444 -120.307 710.066C-117.108 679.317 -119.076 648.372 -117.968 617.542C-116.91 588.05 -113.092 556.831 -97.0797 531.03C-89.9655 519.571 -79.6466 508.361 -66.026 504.309C-51.2277 499.91 -36.7239 506.214 -25.2974 515.186C-19.3762 519.836 -14.0515 525.169 -9.05161 530.727C-3.81805 536.546 1.24263 542.585 5.26419 549.263C13.3681 562.718 15.2564 577.968 11.098 592.97C7.02896 607.643 -1.62015 620.957 -11.6085 632.54C-20.9472 643.371 -31.9386 652.719 -42.1455 662.761C-51.9002 672.355 -61.2579 682.604 -67.996 694.449C-71.347 700.334 -74.0331 706.601 -75.7694 713.11C-77.7963 720.713 -78.4289 728.562 -78.4745 736.39C-78.5713 752.906 -76.0771 769.951 -80.9345 786.076C-85.0549 799.747 -94.3461 811.013 -103.77 821.658C-112.735 831.782 -122.075 841.716 -127.691 854.042C-132.757 865.165 -135.755 878.11 -132.787 890.161C-131.433 895.671 -128.692 900.744 -124.642 904.852C-123.23 906.284 -120.932 904.168 -122.341 902.737C-131.515 893.433 -132.067 879.757 -129.19 867.853C-125.958 854.479 -118.595 843.322 -109.602 832.893C-100.341 822.152 -90.1117 811.894 -83.3072 799.431C-79.6978 792.825 -77.2435 785.758 -76.0847 778.368C-74.8119 770.253 -74.8461 762.036 -75.0874 753.853C-75.5699 737.624 -76.4209 721.425 -70.3496 705.963C-65.2339 692.928 -56.4024 681.62 -46.735 671.42C-36.986 661.133 -26.1314 651.904 -16.2798 641.721C-5.68352 630.767 3.69698 618.421 9.77206 604.557C15.6819 591.072 17.9501 575.982 13.6531 561.74C9.30095 547.313 -1.18515 535.1 -11.637 524.313C-21.5741 514.061 -33.7718 503.859 -48.4694 501.101C-62.1241 498.539 -75.0646 503.744 -85.053 512.631C-95.8696 522.258 -103.094 535.065 -108.282 548.21C-113.768 562.105 -116.823 576.775 -118.546 591.524C-122.184 622.658 -120.096 654.071 -121.105 685.319C-121.614 701.002 -122.885 716.692 -126.047 732.102C-129.231 747.619 -134.087 762.759 -139.318 777.731C-149.637 807.255 -161.579 836.655 -165.209 867.842C-166.09 875.406 -166.438 883.017 -166.2 890.627C-166.176 891.48 -164.804 891.504 -164.821 890.643Z" fill="#034CCB"/>
</g>
<path fill-rule="evenodd" clip-rule="evenodd" d="M242.336 683.843C238.146 687.026 236.872 692.347 236.564 697.261C236.281 701.739 237.176 706.204 236.505 710.656C235.909 714.627 234.825 718.517 234.014 722.451C233.36 725.618 232.469 729.356 233.406 732.556C234.248 735.435 236.829 736.381 239.698 735.939C240.785 735.773 241.327 735.094 242.076 734.36C242.878 733.572 243.663 732.768 244.436 731.955C246.272 730.02 248.032 728.019 249.723 725.966C253.184 721.77 256.405 717.344 258.973 712.574C261.204 708.426 263.218 703.721 262.981 698.948C262.715 693.616 259.995 688.258 255.736 684.863C251.776 681.705 246.644 680.759 242.336 683.843C241.352 684.546 242.674 685.873 243.646 685.18C247.152 682.67 251.46 683.776 254.581 686.316C258.116 689.188 260.495 693.557 261.006 698C261.506 702.338 259.883 706.639 257.945 710.472C255.702 714.909 252.832 719.044 249.748 722.967C246.922 726.56 243.86 729.998 240.576 733.209C239.858 733.908 239.672 734.146 238.655 734.212C238.068 734.251 237.446 734.238 236.889 734.035C235.998 733.709 235.506 732.973 235.249 732.11C234.419 729.301 235.226 725.972 235.793 723.188C236.534 719.553 237.498 715.962 238.146 712.309C238.461 710.534 238.733 708.725 238.71 706.919C238.682 704.492 238.368 702.082 238.385 699.647C238.419 694.498 239.183 688.57 243.646 685.18C244.611 684.446 243.292 683.116 242.336 683.843Z" fill="#034CCB"/>
<path fill-rule="evenodd" clip-rule="evenodd" d="M237.798 668.632C231.014 673.709 228.951 682.31 228.436 690.187C228.144 694.61 228.318 699.049 228.658 703.467C228.908 706.718 228.659 709.747 227.845 712.919C226.165 719.474 223.151 725.647 221.675 732.257C220.357 738.145 220.656 744.414 225.433 748.813C226.812 750.086 228.411 751.128 230.099 751.982C230.976 752.427 231.882 752.819 232.798 753.182C233.634 753.515 234.267 753.454 235.144 753.321C237.945 752.899 240.578 751.639 242.884 750.079C248.722 746.118 253.128 740.319 256.788 734.484C260.937 727.864 264.273 720.728 266.86 713.406C269.063 707.17 271.193 700.285 270.986 693.626C270.742 685.747 267.105 677.909 261.403 672.306C256.557 667.543 249.345 663.955 242.369 666.244C240.702 666.792 239.205 667.616 237.798 668.632C236.822 669.336 238.14 670.656 239.105 669.958C244.924 665.761 252.09 667.277 257.485 671.354C263.471 675.878 267.512 682.94 268.743 690.143C269.848 696.593 268.126 703.26 266.201 709.415C264.026 716.373 261.111 723.138 257.535 729.532C254.201 735.495 250.257 741.372 245.081 746.006C242.988 747.883 240.649 749.563 238.002 750.632C236.883 751.088 235.691 751.418 234.486 751.573C233.575 751.693 232.766 751.213 231.956 750.839C231.056 750.422 230.177 749.96 229.336 749.44C226.744 747.845 224.553 745.605 223.562 742.75C222.658 740.149 222.692 737.343 223.126 734.658C224.151 728.351 226.922 722.435 228.824 716.356C229.718 713.509 230.465 710.582 230.669 707.604C230.912 704.027 230.283 700.384 230.205 696.8C230.038 689.075 230.535 680.365 235.269 673.814C236.335 672.338 237.635 671.057 239.105 669.958C240.069 669.237 238.754 667.916 237.798 668.632Z" fill="#034CCB"/>
<path fill-rule="evenodd" clip-rule="evenodd" d="M244.815 697.428C241.98 699.523 241.867 703.435 242.06 706.528C242.074 706.742 242.091 706.956 242.108 707.17C242.116 707.276 242.122 707.38 242.133 707.486C242.135 707.513 242.179 707.891 242.146 707.616C242.19 707.984 242.244 708.347 242.351 708.707C242.542 709.342 242.846 709.935 243.259 710.471C244.039 711.483 245.151 712.215 246.419 712.592C249.013 713.367 251.918 712.44 253.346 710.23C255.332 707.15 255.646 703.279 253.65 700.156C252.719 698.701 251.381 697.437 249.693 696.792C248.001 696.143 246.266 696.425 244.815 697.428C244.398 697.714 244.457 698.379 244.781 698.699C245.176 699.088 245.715 699.019 246.134 698.73C248.147 697.338 250.567 699.053 251.719 700.643C252.476 701.689 253.017 702.939 253.117 704.208C253.239 705.762 252.727 707.301 252.042 708.7C251.176 710.464 249.345 711.397 247.376 710.974C246.434 710.773 245.65 710.359 245.012 709.674C244.727 709.369 244.492 709.009 244.324 708.613C244.22 708.369 244.154 708.108 244.1 707.851C244.077 707.741 244.06 707.634 244.045 707.522C244.035 707.443 244.024 707.36 244.018 707.281C244.031 707.472 244.016 707.143 244.014 707.112C243.8 704.367 243.563 700.627 246.134 698.73C247.101 698.014 245.775 696.72 244.815 697.428Z" fill="#034CCB"/>
<path fill-rule="evenodd" clip-rule="evenodd" d="M380.674 -120.38C367.268 -98.4803 375.137 -71.0102 368.353 -47.27C362.113 -25.4378 347.5 -7.00513 329.524 7.17847C310.99 21.8042 289.184 32.3387 266.732 40.0938C237.81 50.0834 207.79 57.1779 177.345 61.1279C152.195 64.3917 126.212 63.2928 101.393 68.6995C90.9142 70.9818 80.6315 74.7171 71.9523 80.9402C62.1218 87.9852 55.9544 97.562 51.1684 108.285C45.818 120.275 40.8058 132.011 32.7689 142.619C24.7775 153.168 14.8216 162.409 3.49952 169.585C-5.73253 175.433 -14.9095 179.625 -22.0477 188.102C-28.7338 196.042 -33.0373 205.692 -34.4813 215.828C-37.4624 236.778 -27.4133 260.021 -9.00241 271.723C-4.52224 274.57 -0.425861 276.353 3.05112 280.444C6.8796 284.945 9.86258 290.08 13.2218 294.903C19.2732 303.596 25.8928 310.404 37.0951 312.072C48.8181 313.815 60.6398 313.011 72.3836 315.215C83.7893 317.354 94.9308 320.832 105.516 325.454C126.575 334.645 145.476 348.176 161.258 364.434C178.004 381.689 191.294 402.068 200.156 424.115C204.744 435.523 207.832 447.248 210.298 459.23C212.561 470.225 214.662 481.545 219.81 491.696C224.645 501.234 232.38 508.367 242.826 511.904C254.79 515.955 268.001 516.128 280.385 518.396C306.196 523.125 331.46 531.761 353.633 545.523C376.804 559.904 395.036 579.597 408.363 602.798C422.075 626.67 430.978 652.781 439.296 678.765C458.526 738.848 477.372 799.046 496.378 859.195C501.122 874.207 505.866 889.22 510.609 904.233C511.059 905.661 513.396 905.105 512.942 903.672C493.761 842.969 474.63 782.252 455.45 721.551C446.809 694.207 438.819 666.539 428.4 639.759C419.193 616.096 407.675 592.871 390.651 573.46C374.288 554.804 353.213 540.479 330.136 530.6C307.553 520.931 283.915 516.17 259.582 512.908C245.288 510.993 231.981 506.868 224.155 494.292C217.75 483.998 215.472 471.772 213.084 460.155C208.427 437.508 201.078 416.03 188.91 396.042C166.433 359.125 130.453 328.85 87.6614 316.292C77.525 313.318 67.0504 311.388 56.4807 310.63C50.2127 310.18 43.8648 310.49 37.6385 309.584C30.24 308.507 24.7053 305.161 20.0104 299.627C13.3149 291.735 9.13869 281.101 0.854733 274.528C-3.25304 271.269 -8.29752 269.345 -12.4186 265.999C-17.7975 261.632 -21.8273 256.319 -24.9148 250.252C-30.6205 239.04 -33.6092 227.372 -31.4717 214.873C-29.6002 203.922 -24.1871 193.567 -16.0115 185.746C-7.57552 177.675 3.81682 173.338 13.1078 166.253C22.8053 158.859 31.2489 149.934 38.104 140.01C45.7078 129.004 49.9543 116.787 55.791 104.935C61.2972 93.7551 69.4406 84.6443 80.7854 78.7129C101.735 67.7601 126.769 68.0316 149.898 66.4905C179.914 64.489 209.732 59.4712 238.671 51.5181C262.612 44.939 286.319 36.7492 307.844 24.525C326.494 13.9318 343.771 0.203163 356.043 -17.1544C362.145 -25.7882 366.89 -35.3026 369.876 -45.3583C373.27 -56.7844 373.766 -68.4674 374.047 -80.2788C374.368 -93.7506 374.74 -107.716 381.706 -119.782C382.08 -120.434 381.069 -121.026 380.674 -120.38Z" fill="#034CCB"/>
<path fill-rule="evenodd" clip-rule="evenodd" d="M399.031 -121.376C385.482 -97.8435 380.681 -69.9378 384.77 -43.3462C387.044 -28.5408 392.165 -13.9704 391.429 1.15428C390.867 12.6818 386.528 23.644 379.466 32.9013C365.158 51.6562 342.256 61.7925 318.996 65.4539C288.987 70.1798 258.183 67.8141 229.122 77.7761C201.021 87.4096 174.154 105.109 143.129 102.934C137.102 102.512 131.365 100.558 125.382 102.373C120.57 103.832 116.375 107.044 113.917 111.32C111.429 115.649 110.943 120.608 112.179 125.376C114.084 132.719 116.668 139.873 117.902 147.374C119.887 159.452 117.064 171.017 106.993 178.855C99.4037 184.759 89.9356 187.967 81.2533 192.016C72.4912 196.103 63.7918 201.271 58.5984 209.486C52.6988 218.813 51.5238 230.913 54.7811 241.309C58.6971 253.816 69.3155 261.113 80.2187 267.808C92.3842 275.278 105.083 282.059 116.298 290.873C136.105 306.432 148.667 328.638 165.539 346.851C170.153 351.832 175.05 356.554 180.269 360.944C181.605 362.069 183.624 360.23 182.279 359.096C171.89 350.333 162.953 340.209 154.58 329.658C147.046 320.166 139.949 310.307 131.732 301.343C123.042 291.864 112.725 284.238 101.731 277.416C95.6131 273.619 89.3585 270.029 83.2027 266.285C77.4227 262.771 71.4719 259.239 66.5594 254.611C57.4348 246.011 54.1452 233.31 56.8634 221.366C59.2475 210.879 66.3297 203.323 75.7238 198.029C91.7502 188.993 114.109 184.776 120.086 165.265C124.27 151.61 118.441 137.833 115.032 124.688C111.955 112.821 122.52 102.71 134.714 104.683C148.965 106.989 163.016 105.607 176.782 101.402C190.803 97.1183 204.007 90.7572 217.513 85.2128C231.645 79.4132 245.974 75.348 261.222 73.454C276.212 71.5912 291.351 71.2186 306.375 69.666C319.237 68.3354 332.029 66.1752 344.05 61.42C354.35 57.3438 364.027 51.5809 372.168 44.2195C380.019 37.1206 386.378 28.458 390.077 18.6667C394.673 6.49684 394.2 -6.25114 391.833 -18.8284C389.122 -33.2429 385.322 -47.1985 385.256 -61.9598C385.193 -75.5446 387.38 -89.1497 391.77 -102.057C393.97 -108.523 396.67 -114.818 399.935 -120.851C400.246 -121.427 399.363 -121.952 399.031 -121.376Z" fill="#034CCB"/>
<path fill-rule="evenodd" clip-rule="evenodd" d="M431.869 -115.601C413.514 -123.646 396.364 -107.741 389.642 -92.3263C379.688 -69.4955 389.424 -43.7886 398.661 -22.3335C409.356 2.50949 423.308 30.8357 413.896 58.1604C406.489 79.6614 385.695 91.4519 364.156 97.0537C343.041 102.544 320.88 102.186 299.725 107.544C289.865 110.038 280.246 113.731 271.917 119.485C262.436 126.033 255.768 134.898 250.56 144.867C244.95 155.608 240.776 167.037 234.015 177.201C228.148 186.018 220.842 193.836 213.46 201.479C200.277 215.133 185.228 228.982 178.832 247.095C173.007 263.586 176.396 281.259 186.909 295.225C197.881 309.802 213.832 319.995 227.747 331.694C235.12 337.892 242.215 344.572 247.771 352.386C254.568 361.949 258.276 372.944 260.54 384.257C265.091 406.98 264.47 431.17 275.298 452.341C292.318 485.61 330.339 496.966 364.16 507.928C383.211 514.1 402.523 520.569 419.362 531.413C437.216 542.908 450.698 559.34 460.364 577.7C481.104 617.087 486.659 662.466 494.277 705.474C503.863 759.606 520.042 811.81 538.922 863.538C543.773 876.829 548.74 890.081 553.711 903.33C554.207 904.654 556.428 904.133 555.927 902.796C536.224 850.338 516.474 797.664 503.971 743.077C493.914 699.169 490.06 653.878 476.281 610.785C470.181 591.701 461.993 572.97 449.698 556.792C438.423 541.958 423.885 530.335 406.945 521.982C373.65 505.567 334.282 501.179 303.33 480.251C285.731 468.352 274.709 451.244 270.044 431.066C264.878 408.708 265.871 384.87 256.497 363.498C249.083 346.59 234.645 334.388 220.246 323.027C206.141 311.895 190.275 300.631 182.475 284.19C162.845 242.81 208.594 213.427 230.867 184.859C245.248 166.416 249.482 141.363 267.367 125.455C284.79 109.959 309.527 106.689 332.097 104.083C351.902 101.795 372.078 99.0108 389.519 88.9518C407.404 78.636 418.069 61.3942 418.605 41.1845C419.294 15.2593 406.009 -8.08142 396.584 -31.5542C386.878 -55.7295 380.422 -85.3874 400.598 -106.461C408.608 -114.829 420.063 -119.855 431.533 -115.062C431.909 -114.904 432.254 -115.432 431.869 -115.601Z" fill="#034CCB"/>
<path fill-rule="evenodd" clip-rule="evenodd" d="M557.982 867.667C533.778 768.385 507.811 669.482 482.663 570.418C476.729 547.031 471.662 523.229 464.612 500.13C462.016 491.624 458.581 482.939 452.328 476.262C445.817 469.31 436.775 465.937 427.555 463.717C417.801 461.371 408.06 459.671 398.751 455.867C389.982 452.284 381.777 447.486 374.236 441.891C357.729 429.647 344.341 413.773 333.169 396.94C321.959 380.052 312.227 361.775 304.852 343.018C298.278 326.3 293.668 307.959 295.071 289.978C295.724 281.608 297.872 273.176 302.579 266.026C307.452 258.628 314.751 254.165 322.463 249.886C333.736 243.631 348.66 235.439 344.745 220.517C341.06 206.483 314.283 193.344 330.23 177.793C342.467 165.863 361.61 170.687 376.541 165.089C382.662 162.792 388.273 158.907 390.709 152.821C394.444 143.494 388.271 134.344 389.623 124.921C391.792 109.757 410.405 104.011 422.443 97.6861C436.261 90.4241 446.689 80.3411 448.653 64.6414C451.078 45.2971 443.038 25.6831 437.5 7.4558C430.817 -14.5391 428.461 -36.0718 433.139 -58.7288C437.879 -81.6812 447.778 -103.326 459.1 -123.906C464.565 -133.839 470.41 -143.572 476.323 -153.26C477.298 -154.858 474.747 -156.34 473.761 -154.744C450.34 -116.877 425.863 -74.4908 427.454 -28.9786C428.174 -8.3869 435.884 10.6951 441.381 30.3623C446.529 48.784 450.808 71.52 434.706 86.2108C423.57 96.3727 407.797 99.7276 396.145 109.161C391.294 113.09 387.742 118.219 386.825 124.342C385.371 134.032 392.262 144.101 387.369 153.336C379.202 168.752 355.908 163.918 341.745 168.403C328.375 172.637 317.608 184.191 325.228 197.99C329.142 205.078 336.363 209.86 340.263 216.938C344.916 225.387 341.684 233.583 334.435 239.318C321.924 249.214 306.205 253.046 298.289 267.816C290.651 282.07 291.066 299.222 293.803 314.636C297.031 332.836 304.25 349.922 312.522 366.477C329.258 399.972 352.28 434.338 386.792 452.943C394.826 457.274 403.416 460.605 412.346 462.753C422.814 465.266 434.07 466.392 443.444 471.935C453.604 477.94 458.704 488.495 462.096 499.084C465.585 509.969 468.034 521.2 470.857 532.259C496.321 631.956 521.559 731.71 547.288 831.343C550.439 843.552 553.587 855.759 556.827 867.944C557.017 868.659 558.155 868.386 557.982 867.667Z" fill="#034CCB"/>
<path fill-rule="evenodd" clip-rule="evenodd" d="M583.92 868.54C538.942 793.591 549.038 702.02 537.185 619.307C531.361 578.676 519.652 539.973 497.054 504.959C475.535 471.618 448.114 442.292 426.02 409.333C405.009 377.99 386.306 337.992 394.82 299.788C396.874 290.575 400.739 280.886 408.255 274.512C416.44 267.572 426.812 267.731 436.809 270.283C451.131 273.937 469.326 284.159 483.241 274.137C495.485 265.319 494.038 250.298 490.659 237.582C486.274 221.068 477.678 204.13 479.466 186.695C481.509 166.762 502.506 156.911 508.322 138.599C515.013 117.527 499.5 97.4871 487.799 81.18C474.668 62.8824 463.527 40.7434 464.15 17.988C464.445 7.20645 467.904 -3.22467 474.804 -11.7827C481.724 -20.3646 491.131 -26.6204 499.382 -33.8998C514.15 -46.9231 521.967 -63.7934 522.401 -83.0834C522.87 -103.814 516.199 -124.292 507.94 -143.201C503.797 -152.687 499.068 -161.924 494.046 -171.003C493.002 -172.889 489.99 -171.295 491.032 -169.414C501.726 -150.091 511.338 -129.822 516.187 -108.326C520.794 -87.91 520.65 -65.272 507.662 -47.5816C495.327 -30.7811 473.924 -22.1606 465.225 -2.56424C457.077 15.7975 461.102 36.6487 468.696 54.5042C472.942 64.4822 478.499 73.8731 484.863 82.7283C491.959 92.5963 499.586 102.536 503.78 113.961C507.955 125.333 507.451 136.972 500.549 147.221C495.199 155.163 487.706 161.53 482.467 169.551C472.85 184.264 476.209 201.145 481.012 216.865C485.277 230.82 495.186 250.314 487.687 264.644C477.694 283.739 454.326 271.965 438.977 267.808C431.027 265.654 422.433 264.422 414.524 267.406C407.193 270.173 401.74 275.986 398.037 282.532C388.96 298.568 388.88 317.982 391.461 335.61C394.098 353.633 400.55 370.914 409.114 387.08C427.507 421.795 454.631 451.266 478.137 482.719C489.861 498.408 500.886 514.684 509.545 532.16C518.961 551.163 525.299 571.45 529.735 592.033C538.955 634.825 540.295 678.714 543.892 722.154C547.275 763.013 552.255 804.675 568.918 842.763C572.897 851.861 577.601 860.631 582.926 869.063C583.303 869.659 584.285 869.149 583.92 868.54Z" fill="#034CCB"/>
<path fill-rule="evenodd" clip-rule="evenodd" d="M603.618 867.208C554.811 780.057 562.937 678.082 566.381 582.666C567.238 558.878 566.837 534.385 559.074 511.551C551.526 489.356 536.338 471.406 522.419 452.719C509.228 435.008 498.276 416.103 496.72 393.878C495.267 373.051 503.222 352.634 524.697 344.923C542.168 338.65 561.88 340.408 578.793 332.383C594.975 324.706 602.9 308.454 601.539 291.461C600.118 273.696 590.808 256.378 578.011 243.743C562.836 228.759 534.24 218.11 538.182 192.531C541.718 169.583 571.161 177.646 587.212 171.446C604.266 164.857 607.779 144.569 603.114 129.139C596.691 107.887 576.664 93.3505 562.471 77.0195C546.422 58.5526 531.863 37.3516 525.932 13.6368C522.991 1.88394 522.434 -10.4341 525.257 -22.2621C528.098 -34.1746 534.398 -44.6191 541.205 -54.7792C552.831 -72.1341 562.49 -89.1991 566.89 -109.628C574.773 -146.233 568.511 -186.789 547.834 -218.629C542.813 -226.36 536.921 -233.494 530.218 -239.922C528.618 -241.454 526.087 -239.134 527.68 -237.588C557.085 -209.021 569.43 -166.66 565.838 -127.093C563.997 -106.818 557.7 -87.1385 546.74 -69.7267C534.78 -50.7185 521.165 -33.5213 519.82 -10.4396C518.53 11.6642 527.275 33.1826 538.977 51.778C551.497 71.6743 568.161 87.5539 583.906 104.927C591.945 113.799 599.149 124.022 600.946 135.936C602.444 145.863 600.604 157.891 592.195 164.662C578.096 176.013 556.308 166.547 542.296 178.153C526.114 191.555 536.883 214.857 549.808 226.103C557.983 233.219 567.717 238.487 575.44 246.108C582.635 253.206 588.43 261.676 592.488 270.799C600.375 288.532 601.564 311.439 584.666 324.776C569.419 336.811 547.579 335.129 529.505 339.916C511.796 344.608 498.844 356.282 494.701 373.82C490.449 391.812 494.577 411.468 502.561 427.953C512.503 448.477 529.044 465.259 541.614 484.211C555.916 505.768 562.017 529.466 563.153 554.884C564.255 579.589 561.909 604.359 560.951 629.041C560.007 653.354 559.636 677.708 560.588 702.03C562.376 747.758 568.821 793.871 586.48 836.606C590.943 847.401 596.288 857.837 602.185 867.966C602.702 868.852 604.119 868.101 603.618 867.208Z" fill="#034CCB"/>
<path fill-rule="evenodd" clip-rule="evenodd" d="M614.544 -153.262C587.081 -116.686 559.565 -77.5685 556.671 -30.9898C555.434 -11.0485 558.628 9.73468 568.801 27.3468C578.799 44.6636 595.171 56.6361 611.849 67.5376C628.54 78.4463 647.109 89.0415 657.866 106.072C667.031 120.585 672.528 139.508 668.587 156.436C666.798 164.117 662.743 171.299 656.003 175.919C648.241 181.238 637.987 181.753 630.981 188.313C618.718 199.791 620.689 219.472 625.504 233.744C632.108 253.317 647.975 268.368 655.034 287.767C660.561 302.953 658.877 318.991 649.646 332.394C633.972 355.158 606.078 367.325 584.781 384.328C574.722 392.359 565.34 401.777 560.128 413.515C552.743 430.144 556.278 447.371 562.812 463.73C572.123 487.055 580.684 510.063 585.643 534.692C590.258 557.616 592.368 580.935 593.224 604.253C594.895 649.854 591.817 695.452 592.251 741.06C592.66 784.086 596.205 828.052 611.758 868.723C615.42 878.295 619.737 887.599 624.683 896.613C625.57 898.229 628.142 896.864 627.256 895.25C583.328 815.096 596.977 719.817 597.03 632.688C597.058 586.988 593.715 541.188 579.396 497.37C575.793 486.344 571.361 475.668 566.95 464.934C562.309 453.638 558.23 441.807 559.371 429.478C560.617 416.049 567.942 404.484 577.555 395.05C597.218 375.756 623.659 364.433 643.185 344.994C651.952 336.27 658.854 325.735 660.817 313.546C663.798 295.037 655.127 278.481 645.209 263.272C634.245 246.463 622.72 229.337 624.681 208.475C625.614 198.553 630.349 189.801 639.944 185.456C648.042 181.79 656.337 180.091 662.518 173.37C672.106 162.94 673.239 147.734 671.062 134.536C668.515 119.105 661.211 103.659 649.72 92.5426C635.341 78.6316 617.167 69.19 600.927 57.5697C582.344 44.2712 568.175 27.6604 562.212 5.71817C549.716 -40.2754 570.013 -85.5758 595.302 -123.7C601.813 -133.515 608.638 -143.12 615.509 -152.701C615.925 -153.281 614.967 -153.823 614.544 -153.262Z" fill="#034CCB"/>
<path fill-rule="evenodd" clip-rule="evenodd" d="M636.397 854.395C640.354 825.862 640.581 796.882 637.947 768.222C636.649 754.063 634.628 739.965 631.873 726.002C629.192 712.41 625.576 698.997 623.462 685.3C622.428 678.618 621.746 671.867 621.789 665.103C621.82 660.51 621.457 655.046 625.546 651.885C628.277 649.774 632.189 649.263 635.42 650.508C640.313 652.394 641.18 657.414 642.303 661.858C645.803 675.71 647.333 689.937 649.015 704.077C650.767 718.83 652.521 733.581 654.275 748.33C657.78 777.832 661.284 807.336 664.78 836.838C665.205 840.418 665.632 843.998 666.072 847.574C666.203 848.631 668.117 848.427 667.994 847.355C664.483 817.156 660.715 786.983 657.073 756.799C655.257 741.746 653.441 726.694 651.625 711.641C649.86 697 648.435 682.246 645.413 667.785C644.678 664.264 643.837 660.762 642.855 657.298C642.267 655.231 641.558 653.314 640.079 651.679C637.605 648.949 633.754 647.776 630.095 648.256C626.406 648.737 623.01 650.938 621.415 654.253C620.329 656.515 620.232 658.978 620.109 661.433C619.945 664.704 619.973 667.982 620.145 671.255C620.88 685.325 624.063 699.153 627.141 712.877C630.32 727.036 632.939 741.283 634.708 755.677C636.499 770.248 637.488 784.913 637.743 799.585C637.996 814.363 637.282 829.078 636.297 843.818C636.061 847.344 635.76 850.865 635.422 854.382C635.364 854.998 636.316 854.985 636.397 854.395Z" fill="#034CCB"/>
<path fill-rule="evenodd" clip-rule="evenodd" d="M701.911 863.558C691.393 845.711 687.312 825.194 684.803 805.014C682.225 784.237 681.262 763.246 677.078 742.677C674.762 731.282 670.98 720.289 667.859 709.094C664.936 698.605 663.253 688.004 662.521 677.168C661.152 656.864 662.36 636.336 659.021 616.177C657.461 606.767 654.79 597.465 650.24 588.979C647.977 584.761 645.346 580.318 641.272 577.507C637.243 574.728 632.792 575.226 629.399 578.664C622.515 585.635 617.759 594.92 614.407 603.908C610.866 613.397 608.862 623.38 607.827 633.401C605.425 656.653 608.773 679.916 611.262 703.019C612.58 715.224 613.619 727.456 613.594 739.737C613.569 751.916 612.786 764.089 613.09 776.266C613.372 787.544 614.804 798.671 617.971 809.54C620.794 819.218 624.665 828.576 628.764 837.805C637.012 856.377 646.5 874.815 650.115 894.906C651.001 899.817 651.505 904.788 651.575 909.772C651.598 911.199 653.894 911.236 653.873 909.798C653.585 889.937 646.313 871.287 638.246 853.299C630.002 834.916 620.802 816.604 617.234 796.69C612.986 772.983 616.809 748.708 615.418 724.816C614.017 700.771 609.543 676.946 609.24 652.831C608.986 632.851 611.64 611.889 621.317 593.963C623.657 589.629 626.402 585.469 629.619 581.697C631.27 579.762 633.285 577.593 636.121 577.78C638.775 577.956 641.029 579.865 642.726 581.69C646.07 585.29 648.43 589.961 650.417 594.369C652.407 598.791 653.916 603.404 655.084 608.091C659.914 627.516 659.05 647.777 659.806 667.598C660.187 677.589 660.894 687.61 662.8 697.448C665.014 708.897 668.995 719.912 672.093 731.144C677.679 751.389 679.205 772.342 681.42 793.109C683.526 812.853 686.113 832.973 694.136 851.409C696.047 855.802 698.267 860.059 700.794 864.149C701.215 864.83 702.32 864.25 701.911 863.558Z" fill="#034CCB"/>
<path fill-rule="evenodd" clip-rule="evenodd" d="M753.348 903.265C740.841 844.774 727.364 786.485 714.03 728.163C707.389 699.112 700.748 670.059 694.102 641.012C690.704 626.168 687.308 611.325 683.911 596.482C680.946 583.528 678.745 570.103 674.468 557.48C671.226 547.904 665.805 538.613 655.209 535.586C649.374 533.922 643.153 534.119 637.351 532.341C633.283 531.095 629.589 528.858 626.493 526.032C613.838 514.483 609.633 494.244 615.094 478.497C616.52 474.381 618.71 470.459 621.692 467.198C625.115 463.454 629.458 460.643 633.243 457.272C640.833 450.517 643.593 441.872 640.315 432.301C636.905 422.344 629.202 413.609 628.301 402.892C627.405 392.228 634.207 383.824 641.884 376.997C649.61 370.123 658.47 364.401 665.257 356.569C672.406 348.315 677.227 338.446 679.984 328.046C682.955 316.843 683.678 305.146 683.158 293.623C682.769 285.004 679.088 274.127 686.953 267.604C692.243 263.219 700.678 262.508 706.416 266.498C709.8 268.854 711.468 272.44 712.307 276.286C713.857 283.39 714.694 290.639 715.183 297.877C717.008 324.874 714.508 351.877 718.722 378.745C725.958 424.874 747.35 469.636 780.924 503.353C810.789 533.346 852.077 550.833 879.556 583.207C895.328 601.792 902.707 624.005 902.278 648.014C902.02 662.56 899.577 676.957 897.313 691.31C895.228 704.517 893.511 717.759 892.524 731.091C888.519 785.086 894.602 839.894 910.573 891.782C914.372 904.124 918.76 916.283 923.671 928.253C924.532 930.353 927.708 928.64 926.856 926.563C905.587 874.734 894.958 818.977 894.881 763.243C894.862 749.359 895.505 735.472 896.82 721.646C898.171 707.44 900.533 693.387 902.633 679.272C906.445 653.666 908.122 627.408 896.624 603.322C878.469 565.287 837.358 544.926 804.868 520.076C765.827 490.214 739 447.787 726.673 401.293C723.444 389.123 721.201 376.703 720.038 364.19C718.758 350.39 718.965 336.531 718.959 322.691C718.955 308.565 718.703 294.363 716.276 280.399C714.904 272.493 712.55 264.915 704.042 261.913C697.883 259.741 690.609 260.97 685.479 264.881C682.815 266.908 680.824 269.645 679.749 272.756C678.227 277.149 679.134 281.597 679.546 286.091C681.699 309.623 679.348 335.562 663.16 354.439C651.071 368.535 627.396 378.17 625.48 398.511C624.489 409.019 630.623 418.087 635.078 427.176C637.414 431.943 639.497 437.163 638.886 442.537C638.22 448.413 634.313 452.775 629.881 456.499C626.001 459.76 621.795 462.668 618.562 466.581C616.04 469.631 614.122 473.086 612.737 476.751C609.783 484.557 609.381 493.175 610.764 501.331C613.498 517.463 624.038 533.157 641.624 536.032C648.006 537.077 654.846 537.132 660.381 540.795C665.542 544.208 668.674 549.836 670.837 555.364C675.641 567.646 677.637 581.154 680.57 593.932C687.382 623.614 694.191 653.297 701.006 682.976C714.589 742.121 727.945 801.32 741.947 860.373C745.358 874.765 748.857 889.134 752.373 903.502C752.522 904.115 753.481 903.878 753.348 903.265Z" fill="#034CCB"/>
<path fill-rule="evenodd" clip-rule="evenodd" d="M778.011 898.583C770.703 854.075 763.112 809.609 755.506 765.147C751.736 743.112 747.921 721.081 744.111 699.051C740.88 680.366 737.745 661.65 733.588 643.132C726.054 609.574 715.16 575.211 692.759 547.952C687.291 541.298 681 535.542 674.73 529.626C668.282 523.539 662.03 516.759 659.899 508.045C657.397 497.823 660.068 486.437 661.304 476.182C662.604 465.4 663.989 454.624 665.705 443.897C667.374 433.46 669.348 423.064 671.847 412.783C673.068 407.763 674.416 402.77 675.913 397.821C677.395 392.922 678.729 387.623 680.934 382.977C682.412 379.866 687.251 379.635 688.185 383.335C688.682 385.305 688.261 387.812 688.307 389.837C688.363 392.342 688.475 394.844 688.638 397.34C689.218 406.197 690.45 415.017 692.319 423.702C699.754 458.256 717.385 491.347 744.865 514.897C770.333 536.724 802.489 550.918 824.657 576.382C836.674 590.187 844.174 606.742 847.633 624.428C851.298 643.157 850.796 662.445 849.179 681.36C847.521 700.724 844.555 719.949 842.574 739.281C840.432 760.173 839.577 781.186 839.998 802.176C840.84 844.007 846.655 885.788 857.458 926.302C860.123 936.293 863.146 946.164 866.415 955.982C867.122 958.108 870.617 957.278 869.905 955.14C856.266 914.162 847.89 871.515 844.843 828.567C843.317 807.084 843.12 785.511 844.242 764.004C845.309 743.578 848.006 723.339 850.392 703.033C854.715 666.239 858.195 625.779 839.378 591.948C822.538 561.674 790.738 544.982 763.097 525.351C748.237 514.798 734.797 502.823 724.085 488.222C712.999 473.113 704.699 456.129 699.209 438.392C696.436 429.437 694.366 420.275 693.02 411.015C692.317 406.179 691.822 401.314 691.529 396.439C691.267 392.116 691.762 387.515 691.144 383.243C690.378 377.952 683.182 375.762 679.49 379.804C678.551 380.83 678.123 382.124 677.655 383.39C676.664 386.061 675.727 388.75 674.84 391.452C673.169 396.531 671.669 401.661 670.312 406.825C664.892 427.465 661.757 448.592 659.115 469.712C658.442 475.072 657.805 480.435 657.172 485.8C656.539 491.171 655.785 496.586 656.057 502.005C656.505 510.824 660.29 518.423 666.129 525.081C671.882 531.636 678.851 537.069 684.827 543.423C690.93 549.91 696.294 557.016 700.99 564.516C710.619 579.89 717.468 596.746 722.789 613.926C734.562 651.946 739.822 691.77 746.59 730.817C754.42 775.992 762.466 821.129 770.481 866.272C772.42 877.179 774.359 888.086 776.345 898.985C776.538 900.046 778.184 899.631 778.011 898.583Z" fill="#034CCB"/>
<path fill-rule="evenodd" clip-rule="evenodd" d="M807.037 896.422C807.176 872.001 805.621 847.563 802.115 823.371C798.604 799.168 793.318 775.223 786.215 751.762C779.011 727.983 769.879 704.796 762.984 680.924C756.156 657.291 750.911 633.238 747.285 608.955C746.817 605.842 746.38 602.724 745.968 599.602C745.621 596.971 745.116 594.295 745.108 591.638C745.096 588.142 746.167 584.767 748.269 581.917C752.102 576.722 759.184 573.953 765.697 574.998C774.913 576.476 779.711 585.094 784.073 592.154C790.002 601.751 794.695 612.033 798.335 622.626C806.19 645.476 808.765 669.587 809.656 693.532C810.58 718.413 809.662 743.315 810.412 768.199C811.158 792.835 813.764 817.394 817.705 841.742C821.652 866.125 826.941 890.29 833.042 914.253C834.543 920.147 836.092 926.027 837.684 931.9C838.229 933.911 841.486 933.134 840.938 931.117C834.328 906.72 828.423 882.134 823.799 857.31C819.168 832.454 815.835 807.366 814.351 782.148C812.861 756.838 813.653 731.487 813.212 706.153C812.787 681.607 811.263 656.716 804.763 632.875C801.75 621.838 797.7 611.03 792.478 600.781C789.916 595.75 787.06 590.854 783.878 586.161C781.316 582.381 778.723 578.382 774.938 575.622C763.058 566.964 744.646 574.063 742.277 588.221C741.462 593.091 742.641 598.176 743.303 603.003C744.158 609.239 745.119 615.461 746.186 621.666C748.298 633.94 750.822 646.148 753.76 658.264C756.713 670.444 760.084 682.529 763.881 694.489C767.742 706.658 772.069 718.684 776.218 730.764C784.368 754.493 791.112 778.581 795.905 803.153C800.712 827.81 803.755 852.835 804.938 877.895C805.232 884.064 805.404 890.232 805.472 896.405C805.48 897.373 807.031 897.397 807.037 896.422Z" fill="#034CCB"/>
<path fill-rule="evenodd" clip-rule="evenodd" d="M649.813 -113.689C617.769 -92.0138 605.361 -51.1015 608.461 -14.8329C610.037 3.61867 615.57 22.0977 626.119 37.6828C631.297 45.3342 637.621 52.0979 645 57.8235C653.623 64.5157 663.06 70.1295 671.91 76.5245C680.806 82.9544 689.339 90.437 694.179 100.278C699.991 112.104 698.731 125.046 695.496 137.374C692.276 149.636 687.463 161.628 686.433 174.336C685.467 186.246 688.883 197.548 695.144 207.751C701.386 217.924 709.627 226.754 716.966 236.17C725.272 246.827 731.802 258.61 736.814 271.023C746.993 296.231 751.386 323.274 754.807 349.993C761.47 401.998 764.752 461.758 804.292 501.912C820.023 517.892 841.687 530.328 865.2 529.292C876.607 528.789 889.008 525.343 894.868 515.053C897.989 509.573 899.099 503.281 899.901 497.151C900.789 490.36 901.133 483.505 900.954 476.664C899.502 420.766 866.304 372.439 838.349 325.651C823.486 300.779 809.709 274.859 801.691 247.089C793.598 219.053 792.554 190.097 802.001 162.246C806.592 148.721 812.807 135.788 817.907 122.447C822.279 111.001 825.778 99.2493 828.44 87.3248C833.682 63.8206 835.716 39.6489 834.718 15.6312C832.736 -32.1603 819.032 -80.0361 793.094 -120.954C787.051 -130.485 780.29 -139.468 772.947 -148.098C771.544 -149.749 769.069 -147.455 770.463 -145.817C801.324 -109.532 820.177 -64.2805 827.674 -18.1322C835.336 29.0302 831.26 78.3438 813.809 123.14C808.688 136.288 802.587 149.084 798.15 162.477C793.833 175.519 791.516 189.042 791.459 202.74C791.341 229.635 799.357 255.92 810.323 280.425C832.986 331.072 870.07 374.781 888.019 427.539C892.351 440.269 895.539 453.424 896.816 466.783C898.082 480.013 898.217 494.63 894.277 507.473C886.236 533.699 848.822 527.401 830.046 517.261C780.871 490.714 768.828 431.717 762.255 382.38C755.524 331.85 752.54 276.736 719.653 234.406C712.183 224.788 703.704 215.827 697.454 205.376C690.778 194.209 688.185 182.134 690.248 169.353C693.968 146.318 708.098 123.309 697.494 100.036C688.9 81.1792 668.479 71.0263 652.085 59.4227C636.006 48.043 624.428 33.0484 617.781 14.8719C604.94 -20.2542 609.09 -62.9912 631.565 -93.7065C636.852 -100.927 643.312 -107.294 650.709 -112.508C651.402 -112.996 650.522 -114.17 649.813 -113.689Z" fill="#034CCB"/>
<path fill-rule="evenodd" clip-rule="evenodd" d="M666.762 -108.484C651.541 -78.9948 650.413 -43.4755 660.837 -12.3331C665.954 2.9536 673.988 17.4127 685.043 29.4531C690.811 35.7348 697.459 40.9264 704.356 45.9877C712.422 51.9061 720.397 58.0887 725.317 66.8441C734.943 83.966 731.731 104.806 729 123.225C727.55 132.988 725.949 142.759 725.388 152.617C724.775 163.274 725.799 173.886 727.99 184.336C732.681 206.739 741.454 228.383 748.961 250.003C756.822 272.645 764.686 295.285 772.547 317.927C780.363 340.437 788.179 362.948 795.995 385.458C799.905 396.713 803.777 407.981 807.721 419.223C809.719 424.917 814.025 429.201 820.641 428.889C826.098 428.634 831.171 425.152 832.57 419.928C833.59 416.123 832.555 411.877 831.95 408.084C831.092 402.714 829.915 397.392 828.486 392.138C822.845 371.416 813.261 352.156 802.744 333.397C792.673 315.431 781.976 297.722 773.747 278.858C765.078 258.982 760.023 238.127 759.898 216.498C759.635 171.769 776.535 129.145 786.398 86.0031C795.516 46.1217 796.918 5.23285 790.838 -35.1862C784.779 -75.4511 771.655 -114.731 752.566 -150.965C747.879 -159.864 742.697 -168.405 737.301 -176.909C736.245 -178.573 733.488 -177.118 734.549 -175.45C756.142 -141.419 772.051 -103.712 781.459 -64.8476C790.853 -26.0527 793.736 14.3242 788.689 53.9211C783.248 96.6028 766.958 137.038 759.743 179.383C756.233 199.991 755.027 221.049 758.604 241.735C761.993 261.338 769.746 279.903 778.896 297.595C788.126 315.442 798.779 332.558 808.04 350.389C818.016 369.595 825.963 390.184 828.897 411.585C829.392 415.197 830.095 419.001 827.568 422.069C825.851 424.156 823.143 425.351 820.412 425.453C817.446 425.563 814.567 424.316 812.836 421.946C811.588 420.236 811.072 418.093 810.392 416.138C809.414 413.325 808.438 410.512 807.458 407.696C799.831 385.752 792.203 363.805 784.576 341.861C769.373 298.111 753.665 254.489 738.999 210.569C732.099 189.902 727.241 169.146 729.237 147.308C730.96 128.439 735.959 109.656 734.997 90.6166C734.566 82.1291 732.796 73.6544 728.721 66.0697C724.402 58.0226 717.638 51.9006 710.334 46.3951C703.304 41.0952 696.093 36.1404 689.895 29.8954C684.171 24.1293 679.21 17.6916 675 10.8135C657.619 -17.5817 652.223 -52.8495 660.022 -84.9333C661.929 -92.7767 664.603 -100.374 668.196 -107.649C668.653 -108.577 667.247 -109.423 666.762 -108.484Z" fill="#034CCB"/>
<path fill-rule="evenodd" clip-rule="evenodd" d="M691.003 -124.677C692.584 -105.693 694.203 -86.7132 695.864 -67.7348C696.69 -58.3017 697.319 -48.841 698.313 -39.4226C698.743 -35.3743 699.495 -31.2653 701.865 -27.8164C703.985 -24.7278 706.925 -22.3929 709.882 -20.0912C713.38 -17.3666 716.211 -14.392 718.56 -10.6783C721.059 -6.72743 723.04 -2.47691 724.785 1.82875C728.589 11.2306 731.299 21.0186 734.082 30.7367C735.321 35.0607 736.553 39.3885 737.961 43.6629C739.063 47.0162 740.239 50.41 741.913 53.5409C743.004 55.5779 744.469 57.8797 746.797 58.7327C749.132 59.5876 752.463 58.2088 753.058 55.8041C757.181 39.0778 759.028 21.8422 759 4.65814C758.967 -12.6068 757.035 -29.8497 753.805 -46.8187C750.531 -64.0267 745.894 -80.9772 740.385 -97.6355C734.884 -114.27 728.511 -130.625 721.619 -146.763C719.955 -150.664 718.256 -154.551 716.536 -158.43C715.696 -160.327 712.798 -158.772 713.633 -156.893C720.576 -141.231 727.103 -125.391 732.893 -109.293C738.725 -93.0761 743.81 -76.5925 747.724 -59.8387C751.595 -43.2668 754.321 -26.4228 755.346 -9.45201C756.36 7.34781 755.752 24.2818 752.97 40.9052C752.282 45.016 751.469 49.1084 750.523 53.1695C750.403 53.6806 750.169 54.2781 750.137 54.8003C750.131 54.872 749.9 55.6588 750.278 55.0135C750.253 55.054 750.188 55.0944 750.152 55.1275C750.063 55.2121 749.964 55.2911 749.869 55.372C749.812 55.4198 749.432 55.6956 749.626 55.5632C749.751 55.4768 749.293 55.7507 749.155 55.8316C749.069 55.8813 748.972 55.9162 748.881 55.9567C748.959 55.9217 749.121 55.8997 748.826 55.9695C748.628 56.0155 748.163 56.0559 748.611 56.0376C748.41 56.0449 748.22 56.0431 748.018 56.0284C748.475 56.0614 748.034 55.9989 747.832 55.9567C747.604 55.9089 747.599 55.85 747.851 55.9769C747.76 55.9309 747.657 55.8923 747.57 55.8353C747.393 55.7232 747.217 55.6184 747.047 55.4989C747.395 55.7434 746.911 55.3757 746.747 55.2194C746.572 55.0484 746.405 54.8683 746.244 54.6826C746.164 54.5907 746.088 54.4969 746.01 54.4032C745.837 54.1973 745.883 54.2414 745.909 54.2781C744.186 51.9102 743.076 49.1139 742.105 46.5015C740.661 42.6186 739.462 38.6531 738.288 34.6894C735.481 25.2195 732.882 15.6815 729.507 6.37895C726.485 -1.94743 722.947 -10.6856 716.89 -17.4328C712.939 -21.834 707.161 -24.4888 703.921 -29.517C701.618 -33.0891 701.135 -37.3488 700.738 -41.4522C700.289 -46.087 699.864 -50.7236 699.402 -55.3565C697.565 -73.8808 695.83 -92.4143 693.981 -110.935C693.523 -115.511 693.065 -120.085 692.607 -124.659C692.51 -125.637 690.92 -125.681 691.003 -124.677Z" fill="#034CCB"/>
<path fill-rule="evenodd" clip-rule="evenodd" d="M820.011 -141.196C827.792 -98.466 835.899 -55.7944 844.109 -13.1375C852.275 29.3011 862.223 72.0277 863.159 115.35C864.031 155.744 852.114 193.812 846.31 233.426C843.722 251.092 842.636 269.238 846.236 286.851C849.593 303.282 857.404 317.883 868.319 330.79C879.675 344.219 893.344 355.693 904.103 369.612C915.353 384.167 922.789 401.209 926.478 418.998C930.223 437.065 930.178 455.971 925.93 473.954C921.526 492.588 911.753 509.418 906.404 527.753C900.846 546.802 901.699 566.666 902.245 586.241C902.853 608.149 903.462 630.057 904.072 651.965C905.27 695.018 906.372 738.073 907.7 781.123C909.901 852.553 913.584 927.909 946.474 993.321C950.435 1001.2 954.844 1008.86 959.648 1016.29C960.844 1018.14 963.928 1016.51 962.728 1014.66C921.904 951.486 914.858 874.505 911.941 801.804C910.261 759.961 909.44 718.078 908.271 676.221C907.672 654.696 907.067 633.174 906.461 611.651C905.869 590.568 904.031 569.063 906.087 548.025C908.057 527.883 917.023 510.259 924.089 491.524C930.257 475.168 933.224 457.994 932.57 440.57C931.948 424.086 928.297 407.711 921.636 392.517C914.896 377.142 904.776 364.172 893.057 352.038C880.528 339.065 866.886 326.645 858.267 310.731C849.157 293.905 846.522 274.885 847.28 256.095C848.844 217.244 862.636 179.987 865.527 141.264C868.662 99.3132 860.659 57.5348 852.663 16.4901C844.437 -25.7431 836.35 -68.0149 827.642 -110.158C825.485 -120.596 823.328 -131.037 821.173 -141.477C821.021 -142.216 819.876 -141.926 820.011 -141.196Z" fill="#034CCB"/>
<path fill-rule="evenodd" clip-rule="evenodd" d="M465.983 118.241C464.43 115.582 461.527 113.963 458.658 112.913C455.508 111.762 452.071 111.217 448.71 111.149C447.254 111.119 445.788 111.191 444.348 111.421C443.822 111.505 443.296 111.611 442.788 111.764C442.508 111.846 442.235 111.942 441.965 112.052C441.821 112.109 441.174 112.39 441.648 112.206C435.891 114.44 430.168 116.537 424.861 119.718C421.641 121.648 418.335 123.946 416.243 127.065C413.565 131.053 414.391 135.684 416.383 139.76C418.76 144.625 422.566 149.007 423.602 154.408C424.616 159.698 422.454 164.888 419.121 169.017C415.523 173.478 410.618 176.95 405.431 179.49C400.251 182.026 394.633 183.672 389.213 185.646C383.942 187.566 378.668 189.692 374.054 192.864C369.751 195.823 364.939 200.169 364.041 205.45C363.164 210.624 366.474 215.031 369.519 218.933C371.207 221.099 372.962 223.256 374.215 225.697C375.576 228.345 376.23 231.286 376.277 234.234C376.49 246.971 367.421 257.073 359.478 266.254C355.449 270.908 351.369 275.701 348.574 281.175C346.215 285.798 344.871 290.971 345.01 296.139C345.146 301.178 346.747 306.115 349.996 310.095C353.349 314.2 358.611 317.765 364.191 317.831C368.31 317.88 372.193 315.951 374.969 313.082C376.093 311.923 377.088 310.611 377.775 309.162C378.597 307.433 378.726 305.516 378.985 303.651C380.616 291.768 380.623 279.685 382.647 267.853C384.06 259.581 387.136 250.925 394.048 245.436C401.02 239.897 410.474 239.326 419.032 240.821C423.369 241.579 427.633 242.684 431.982 243.407C436.394 244.142 441.212 244.85 445.64 243.835C447.457 243.417 449.044 242.624 450.311 241.285C452.523 238.954 454.486 236.363 455.965 233.538C458.285 229.112 459.349 224.214 459.068 219.259C458.823 214.989 457.678 210.868 456.36 206.807C454.457 200.958 452.849 195.06 451.925 188.985C450.29 178.246 450.673 167.244 453.223 156.666C455.082 148.952 458.063 141.568 461.722 134.495C462.949 132.127 464.248 129.799 465.507 127.447C466.067 126.404 464.443 125.45 463.879 126.502C460.911 132.044 457.906 137.542 455.54 143.362C452.177 151.639 450.022 160.354 449.304 169.226C448.353 181.014 449.993 192.903 453.529 204.197C454.759 208.132 456.163 212.017 456.821 216.094C457.592 220.866 457.228 225.73 455.422 230.254C454.332 232.984 452.733 235.525 450.871 237.825C449.382 239.666 448.019 241.296 445.638 241.941C441.449 243.072 436.692 242.337 432.492 241.638C423.619 240.162 414.999 237.346 405.885 238.618C398.012 239.717 391.298 243.967 387.017 250.433C381.717 258.435 380.47 268.079 379.575 277.333C378.988 283.389 378.578 289.459 378.001 295.515C377.733 298.34 377.431 301.165 377.037 303.978C376.792 305.733 376.638 307.429 375.743 308.993C374.044 311.971 371.093 314.49 367.714 315.498C362.31 317.108 357.048 314.414 353.228 310.814C345.259 303.315 345.555 291.232 350.203 282.121C355.778 271.194 365.976 263.353 372.366 252.944C375.32 248.127 377.498 242.739 378.054 237.134C378.609 231.565 377.194 226.287 373.94 221.673C371.069 217.605 366.705 213.642 365.894 208.571C364.996 202.974 369.973 198.142 374.186 195.032C383.172 188.399 394.634 186.336 404.734 181.851C413.989 177.741 424.028 169.975 425.562 159.61C426.346 154.31 424.269 149.607 421.603 145.098C419.144 140.938 415.415 136.006 416.588 130.928C417.395 127.443 420.452 124.881 423.333 122.892C426.684 120.578 430.381 118.727 434.127 117.086C436.575 116.016 439.066 115.032 441.595 114.163C443.268 113.587 444.793 113.12 446.597 113.018C449.794 112.84 453.052 113.203 456.132 114.044C458.975 114.82 462.077 116.085 463.883 118.463C465.753 120.926 465.227 123.932 463.879 126.502C463.331 127.55 464.954 128.503 465.507 127.447C467.022 124.559 467.713 121.198 465.983 118.241Z" fill="#034CCB"/>
<path fill-rule="evenodd" clip-rule="evenodd" d="M309.091 160.487C313.915 157.355 319.101 154.811 324.537 152.831C329.417 151.053 334.437 149.68 339.433 148.247C343.89 146.967 348.278 145.644 352.312 143.356C356.165 141.171 359.647 138.356 362.529 135.054C365.415 131.749 367.709 128.016 369.325 123.981C370.832 120.218 372.046 116.116 369.625 112.44C368.557 110.822 367.012 109.55 365.168 108.829C363.013 107.99 360.859 108.214 358.615 108.525C353.226 109.269 347.948 110.664 342.854 112.501C332.642 116.178 323.167 121.523 314.246 127.528C305.116 133.676 296.377 140.44 288.248 147.786C284.201 151.445 279.957 155.212 276.523 159.43C273.821 162.746 272.419 166.723 272.149 170.913C271.641 178.724 275.024 186.621 273.337 194.38C272.347 198.924 269.258 202.318 265.64 205.215C261.743 208.333 257.451 210.95 253.565 214.086C247.044 219.349 241.447 225.578 237.178 232.682C232.82 239.939 229.801 247.869 227.126 255.822C225.431 260.865 223.712 266.1 224.041 271.472C224.35 276.517 226.689 280.788 230.199 284.445C234.231 288.64 239.049 292.275 243.5 296.042C245.025 297.333 246.598 298.982 248.463 299.802C251.681 301.211 255.561 300.238 257.794 297.626C258.925 296.302 259.58 294.638 259.572 292.915C259.563 290.495 258.399 288.061 257.825 285.726C256.496 280.337 255.882 274.653 257.576 269.269C259.927 261.79 266.325 256.783 272.8 252.605C279.058 248.569 285.901 245.002 291.075 239.626C293.605 236.999 295.627 233.956 296.786 230.538C298.126 226.591 298.179 222.392 297.574 218.313C296.297 209.689 292.307 201.717 290.489 193.216C289.599 189.058 289.273 184.712 290.358 180.557C291.54 176.033 294.333 172.187 297.752 168.961C301.182 165.726 305.135 163.076 309.091 160.487C310.094 159.829 309.189 158.216 308.18 158.878C300.657 163.8 292.517 169.297 289.235 177.87C286.216 185.752 288.463 194.229 290.969 201.926C293.508 209.716 297.006 217.978 295.851 226.305C294.819 233.723 289.645 239.184 283.638 243.466C277.616 247.755 270.909 251.102 265.177 255.78C262.418 258.035 259.902 260.632 258.067 263.655C255.624 267.68 254.544 272.316 254.641 276.962C254.698 279.574 255.085 282.177 255.646 284.729C255.937 286.045 256.276 287.352 256.643 288.65C256.986 289.854 257.517 291.089 257.648 292.339C258.009 295.747 254.961 298.707 251.467 298.632C249.057 298.581 247.463 296.97 245.778 295.543C243.667 293.756 241.555 291.969 239.441 290.182C233.854 285.456 227.287 280.641 226.107 273.085C225.272 267.737 226.938 262.377 228.613 257.336C229.983 253.214 231.435 249.113 233.102 245.094C236.1 237.87 239.912 230.921 245.05 224.894C247.735 221.743 250.729 218.845 253.931 216.185C257.641 213.106 261.707 210.508 265.562 207.614C269.155 204.918 272.592 201.763 274.312 197.608C275.739 194.165 275.813 190.369 275.479 186.725C274.783 179.124 272.212 170.849 275.99 163.616C277.124 161.442 278.735 159.679 280.443 157.914C282.331 155.962 284.268 154.052 286.243 152.18C290.25 148.388 294.424 144.762 298.731 141.29C306.941 134.671 315.572 128.441 324.742 123.114C333.856 117.819 343.649 113.397 354.08 111.181C358.393 110.265 363.76 108.751 367.185 112.353C370.422 115.76 368.881 120.168 367.306 123.95C364.026 131.834 357.81 138.467 350.064 142.471C345.874 144.637 341.281 145.812 336.748 147.103C331.961 148.466 327.182 149.854 322.537 151.627C317.494 153.553 312.682 155.956 308.18 158.878C307.172 159.532 308.075 161.145 309.091 160.487Z" fill="#034CCB"/>
<path fill-rule="evenodd" clip-rule="evenodd" d="M357.463 362.133C354.632 360.643 350.655 359.517 347.618 361.091C343.363 363.292 345.266 368.444 346.594 371.836C349.853 380.163 354.772 387.835 360.979 394.327C364.505 398.017 368.452 401.308 372.712 404.147C373.466 404.647 374.52 403.676 374.017 402.908C373.987 402.863 373.959 402.817 373.927 402.773C373.426 403.132 372.928 403.493 372.425 403.854C374.315 406.069 377.233 407.107 380.111 406.535C380.54 406.45 380.782 406.046 380.821 405.646C382.081 392.144 376.604 378.345 366.77 368.946C363.986 366.283 360.855 363.985 357.463 362.133C356.409 361.559 355.44 363.144 356.497 363.722C368.072 370.038 376.177 381.697 378.489 394.51C379.149 398.179 379.291 401.917 378.946 405.626C379.183 405.332 379.421 405.034 379.657 404.737C377.409 405.185 375.236 404.28 373.785 402.576C373.108 401.782 371.705 402.776 372.283 403.66C372.313 403.706 372.343 403.75 372.373 403.797C372.806 403.384 373.243 402.971 373.678 402.558C366.969 398.088 361.078 392.423 356.385 385.911C354.097 382.737 352.084 379.369 350.379 375.858C349.511 374.062 348.718 372.231 348.021 370.362C347.316 368.47 346.157 365.963 347.196 364.004C348.887 360.817 354.084 362.452 356.497 363.722C357.559 364.279 358.53 362.696 357.463 362.133Z" fill="#034CCB"/>
<path fill-rule="evenodd" clip-rule="evenodd" d="M397.853 189.463C390.782 193.21 382.632 197.367 381.174 205.802C380.375 210.423 382.382 214.53 386.118 217.414C390.582 220.855 396.374 222.575 401.88 223.752C408.193 225.1 414.676 225.738 421.131 225.979C424.097 226.089 427.067 226.111 430.032 226.027C432.607 225.953 435.244 225.891 437.778 225.411C441.695 224.672 445.487 222.601 446.622 218.693C447.742 214.841 446.2 210.658 444.283 207.292C441.735 202.821 438.057 198.925 433.967 195.713C425.261 188.873 413.141 184.088 401.945 187.736C400.53 188.197 399.162 188.776 397.853 189.463C396.77 190.031 397.691 191.643 398.77 191.077C408.715 185.862 420.368 188.855 429.279 194.631C433.575 197.415 437.485 200.917 440.507 204.977C442.806 208.066 444.967 211.82 445.072 215.714C445.322 225.01 432.366 224.266 425.775 224.239C419.744 224.211 413.684 223.836 407.72 222.941C402.109 222.1 396.341 220.876 391.249 218.38C387.461 216.526 383.691 213.687 382.991 209.403C381.875 202.547 387.753 197.266 393.27 194.059C395.073 193.012 396.926 192.053 398.77 191.077C399.85 190.505 398.931 188.894 397.853 189.463Z" fill="#034CCB"/>
<path fill-rule="evenodd" clip-rule="evenodd" d="M418.962 206.409C418.327 201.717 415.059 197.972 410.521 196.7C405.522 195.298 399.167 196.463 395.898 200.76C393.614 203.763 392.93 208.366 396.471 210.657C399.643 212.712 404.115 212.629 407.734 212.5C409.985 212.419 412.24 212.235 414.476 211.967C417.265 211.631 419.307 209.268 418.962 206.409C418.816 205.211 417.008 205.677 417.151 206.863C417.267 207.829 416.765 208.827 416.026 209.418C415.21 210.071 414.238 210.122 413.246 210.222C411.587 210.39 409.926 210.529 408.259 210.602C405.082 210.743 401.539 210.841 398.534 209.621C397.494 209.199 396.449 208.514 396.023 207.42C395.475 205.996 396.021 204.207 396.71 202.941C399.015 198.685 404.582 197.407 409.037 198.274C413.437 199.13 416.548 202.404 417.151 206.863C417.312 208.06 419.121 207.594 418.962 206.409Z" fill="#034CCB"/>
<path fill-rule="evenodd" clip-rule="evenodd" d="M397.606 474.902C387.182 466.186 374.409 460.955 361.91 455.651C349.456 450.366 336.685 444.755 327.032 435.239C317.43 425.772 311.763 413.478 306.865 401.302C301.928 389.035 297.586 376.386 290.417 365.108C288.732 362.459 286.96 359.449 284.228 357.671C281.526 355.91 278.172 356.151 275.553 357.929C268.753 362.54 270.943 370.933 273.359 377.252C279.224 392.591 285.864 407.663 293.217 422.393C296.927 429.823 300.816 437.165 304.891 444.414C308.763 451.309 312.507 458.583 317.77 464.611C327.165 475.369 341.486 479.789 355.034 483.515C362.779 485.645 370.875 487.227 378.22 490.497C382.39 492.354 386.199 494.888 390.399 496.694C393.658 498.098 397.932 499.525 401.149 497.255C402.914 496.01 403.844 493.963 404.37 491.973C405.176 488.915 405.343 485.799 404.064 482.841C402.709 479.705 400.219 477.121 397.606 474.902C396.697 474.129 395.315 475.387 396.233 476.164C398.868 478.403 401.502 481.049 402.629 484.332C403.578 487.101 403.125 490.4 402.016 493.085C401.388 494.609 400.312 496.002 398.602 496.443C396.938 496.875 395.15 496.459 393.557 495.949C389.382 494.609 385.645 492.189 381.792 490.194C375.746 487.063 369.065 485.316 362.473 483.599C349.23 480.148 334.739 476.83 324.033 468.071C318.142 463.254 314.278 456.919 310.541 450.505C306.536 443.63 302.695 436.665 299.019 429.619C291.67 415.529 284.989 401.115 279.005 386.438C277.489 382.72 275.978 378.991 274.604 375.221C273.306 371.664 272.044 367.578 273.277 363.838C274.204 361.026 276.977 358.211 280.228 358.255C283.741 358.302 285.921 361.73 287.61 364.244C294.823 374.969 299.228 387.118 303.923 398.986C308.508 410.576 313.45 422.279 321.572 432.046C329.801 441.944 341.073 448.409 352.845 453.707C364.81 459.095 377.347 463.521 388.448 470.526C391.168 472.239 393.778 474.112 396.233 476.164C397.148 476.93 398.53 475.674 397.606 474.902Z" fill="#034CCB"/>
</g>
</g>
</svg>
