<svg width="54" height="60" viewBox="0 0 54 60" fill="none" xmlns="http://www.w3.org/2000/svg">
<path d="M0.258789 0H53.1734L48.4497 54.0704L26.691 60L4.98241 54.0704L0.258789 0Z" fill="#0A71B9"/>
<path d="M26.6909 4.47229H48.7512L44.5301 50.5527L26.6909 55.6783V4.47229Z" fill="#28A7DE"/>
<path d="M40.3592 11.1558H10.1582L10.8115 17.7387H36.0376L35.2336 24.3718H11.4145L12.0175 30.8543H34.8818L34.0275 39.799L26.5904 41.608L19.3039 39.799L18.9019 34.4723H12.3693L13.3743 45.1759L26.8919 48.8442L40.3592 45.1759L43.525 11.1558H40.3592Z" fill="#EBEBEB"/>
<path d="M40.309 11.1558H26.6909V17.7387H35.9874L35.1834 24.3718H26.6909V30.8543H34.8316L33.9774 39.799L26.6909 41.5075V48.8442H26.7914L40.309 45.1759L43.5251 11.1558H40.309Z" fill="white"/>
</svg>
