<svg width="133" height="42" viewBox="0 0 133 42" fill="none" xmlns="http://www.w3.org/2000/svg">
<g clip-path="url(#clip0)">
<path d="M24.1129 41.4072H20.7043L20.4208 32.7316L15.5031 32.5702L15.2144 41.4072H11.8048L12.0863 32.4592L12.1942 29.0562L15.6141 29.1651L20.3099 29.3121L23.7349 29.421L23.8438 32.8426L24.1129 41.4072Z" fill="#1B734F"/>
<path d="M18.2008 3.42578L14.9082 5.42999L8.0212 9.62137L4.3866 11.8332C4.38968 11.8496 4.39173 11.8671 4.39481 11.8846C4.58178 13.0758 4.73896 14.266 4.73896 15.4572C4.73896 15.5055 4.73793 15.5538 4.73793 15.6021L8.57903 13.2711L18.2028 7.42907L21.4953 5.43102L18.2008 3.42578Z" fill="#1B734F"/>
<path d="M27.805 9.27089L21.4932 5.42999L18.2007 3.42578L14.9082 5.42999L18.2007 7.42804L27.24 12.9155L31.0431 15.2229C31.0626 13.9947 31.2423 12.7664 31.4375 11.5382C31.4406 11.5218 31.4427 11.5043 31.4458 11.4858L27.805 9.27089Z" fill="#1B734F"/>
<path d="M12.7786 22.0568C13.78 22.0568 14.5918 21.2447 14.5918 20.2428C14.5918 19.2409 13.78 18.4287 12.7786 18.4287C11.7772 18.4287 10.9655 19.2409 10.9655 20.2428C10.9655 21.2447 11.7772 22.0568 12.7786 22.0568Z" fill="#F09330"/>
<path d="M23.4298 22.0568C24.4312 22.0568 25.243 21.2447 25.243 20.2428C25.243 19.2409 24.4312 18.4287 23.4298 18.4287C22.4284 18.4287 21.6166 19.2409 21.6166 20.2428C21.6166 21.2447 22.4284 22.0568 23.4298 22.0568Z" fill="#F09330"/>
<path d="M12.4622 2.85215H13.5142V0H12.2866C7.31235 0 3.80205 2.02271 3.80205 6.79377C3.80205 8.24605 4.03731 9.64694 4.27051 11.0992C4.31057 11.3438 4.34858 11.5874 4.38556 11.8321C4.38865 11.8485 4.3907 11.866 4.39378 11.8834C4.58075 13.0747 4.73793 14.2649 4.73793 15.4561C4.73793 15.5044 4.7369 15.5527 4.7369 15.601V15.6473C4.69273 17.4089 4.00649 19.2939 0 19.2939V21.9395C4.15237 21.9395 4.73793 24.1688 4.73793 25.7762C4.73793 27.1309 4.52117 28.4845 4.29413 29.8371C4.28591 29.8833 4.27872 29.9306 4.27051 29.9769C4.06196 31.2287 3.85137 32.5227 3.81027 33.7838C3.80514 33.9329 3.80205 34.0809 3.80205 34.2299C3.80205 39.3083 7.21271 41.2189 11.8448 41.33C11.9907 41.3341 12.1376 41.3351 12.2866 41.3351H13.5142V38.4829H12.4622C9.18616 38.4829 7.83936 36.8755 7.83936 33.9709C7.83936 33.7098 7.84758 33.4508 7.86094 33.1929C7.91435 32.2206 8.06434 31.2606 8.24823 30.2379C8.48143 28.9922 8.65812 27.6962 8.65812 26.2953C8.71771 22.9765 7.07916 21.2138 4.44617 20.6434V20.5386C7.07813 19.9167 8.71668 18.2568 8.65812 14.937C8.65812 14.3759 8.62936 13.8393 8.58108 13.3141C8.58005 13.2987 8.57799 13.2854 8.57697 13.2699C8.50403 12.5011 8.38589 11.757 8.24823 10.9954C8.16605 10.5535 8.089 10.1125 8.02736 9.67367C8.02428 9.6562 8.02222 9.63975 8.02017 9.62125C7.90922 8.84012 7.83834 8.06721 7.83834 7.31384C7.83936 4.51205 9.00946 2.85215 12.4622 2.85215Z" fill="#1B734F"/>
<path d="M31.041 15.4561C31.041 15.3944 31.041 15.3307 31.0421 15.269C31.0421 15.2536 31.0421 15.2372 31.0431 15.2228C31.0626 13.9945 31.2424 12.7663 31.4376 11.5381C31.4407 11.5217 31.4427 11.5042 31.4458 11.4857C31.4489 11.4723 31.4499 11.46 31.453 11.4456C31.4705 11.3305 31.49 11.2143 31.5095 11.0992C31.7047 9.89156 31.8988 8.71884 31.9574 7.52248C31.9707 7.28095 31.9769 7.03838 31.9769 6.79377C31.9769 2.17688 28.6885 0.133614 23.9691 0.00513901C23.8119 0.0030834 23.6527 0 23.4934 0H22.2648V2.85215H23.3178C26.7705 2.85215 27.9406 4.51205 27.9406 7.31384C27.9406 7.58106 27.9314 7.85035 27.9149 8.12271C27.8934 8.50197 27.8543 8.88637 27.8061 9.27077C27.803 9.28824 27.8019 9.30469 27.7989 9.32319C27.729 9.87717 27.6355 10.4373 27.5307 10.9954C27.4157 11.6409 27.3119 12.2719 27.241 12.9154C27.238 12.9287 27.2369 12.9441 27.2359 12.9575C27.164 13.5958 27.1219 14.2474 27.1219 14.936C27.0643 18.2558 28.7029 19.9157 31.3348 20.5375V20.6424C28.7029 21.2128 27.0643 22.9765 27.1219 26.2942C27.1219 27.6951 27.2975 28.9912 27.5318 30.2369C27.765 31.5319 27.9417 32.7262 27.9417 33.9709C27.9417 36.8755 26.5959 38.4829 23.3188 38.4829H22.2658V41.3351H23.4945C28.3495 41.3351 31.9779 39.4676 31.9779 34.2289C31.9779 32.829 31.7447 31.3767 31.5105 29.9769C31.2753 28.577 31.0421 27.1771 31.0421 25.7752C31.0421 24.1677 31.6266 21.9384 35.782 21.9384V19.2929C31.6256 19.2939 31.041 17.2701 31.041 15.4561Z" fill="#1B734F"/>
<path d="M46.4157 24.4636C45.8948 24.7154 44.9795 24.8408 43.9923 24.8408C41.048 24.8408 39.1989 23.1161 39.1989 20.3143C39.1989 17.7993 40.9401 15.645 44.3867 15.645C45.0155 15.645 45.787 15.7344 46.4157 15.9503L45.9667 18.3214C45.6616 18.196 45.2312 18.1056 44.5665 18.1056C43.3635 18.1056 42.5016 18.9319 42.5201 20.2074C42.5201 21.6443 43.5074 22.3268 44.6569 22.3268C45.2137 22.3268 45.6627 22.2548 46.0756 22.0934L46.4157 24.4636Z" fill="#1B734F"/>
<path d="M51.7474 24.8582C49.1083 24.8582 47.0619 23.188 47.0619 20.3143C47.0619 17.494 48.911 15.6265 51.9272 15.6265C54.6917 15.6265 56.5234 17.494 56.5234 20.1529C56.5234 23.3679 54.2253 24.8582 51.7659 24.8582H51.7474ZM51.8378 22.5775C52.7172 22.5775 53.1846 21.6617 53.1846 20.2423C53.1846 19.0213 52.7901 17.9072 51.8378 17.9072C50.7612 17.9072 50.4017 19.0747 50.4017 20.2423C50.4017 21.5713 50.8321 22.5775 51.8204 22.5775H51.8378Z" fill="#1B734F"/>
<path d="M67.0974 11.8916V21.8777C67.0974 22.9734 67.1334 24.069 67.1693 24.662H64.2785L64.1532 23.477H64.1172C63.5429 24.4647 62.4653 24.8604 61.4606 24.8604C59.4142 24.8604 57.7089 23.0823 57.7089 20.3165C57.6904 17.3348 59.5755 15.6287 61.6578 15.6287C62.6276 15.6287 63.4176 15.9165 63.8121 16.491H63.848V11.8916H67.0974ZM63.848 19.6505C63.848 19.5251 63.848 19.3627 63.8296 19.2373C63.7042 18.6083 63.2368 18.1057 62.5547 18.1057C61.4781 18.1057 60.9932 19.0759 60.9932 20.225C60.9932 21.5899 61.6578 22.2909 62.5372 22.2909C63.2019 22.2909 63.6857 21.8243 63.7936 21.2312C63.847 21.0514 63.847 20.854 63.847 20.6382V19.6505H63.848Z" fill="#1B734F"/>
<path d="M71.7284 21.3744C71.8363 22.0753 72.8595 22.47 74.008 22.47C74.8339 22.47 75.6239 22.3806 76.4139 22.1288L76.8269 24.2841C75.7678 24.6973 74.6192 24.8411 73.5241 24.8411C70.4186 24.8411 68.6588 23.135 68.6588 20.3332C68.6588 18.2858 69.9871 15.6279 73.2365 15.6279C76.0914 15.6279 77.3118 17.7298 77.3118 20.1544C77.3118 20.6755 77.2399 21.1606 77.1865 21.3754H71.7284V21.3744ZM74.3316 19.1831C74.3316 18.6805 74.0984 17.7462 73.0752 17.7462C72.1239 17.7462 71.7469 18.626 71.6924 19.1831H74.3316Z" fill="#1B734F"/>
<path d="M81.2968 15.8252L82.2481 19.5787C82.4278 20.2797 82.5532 20.9621 82.661 21.6621H82.7144C82.8223 20.9436 82.9302 20.3146 83.1089 19.5787L83.9883 15.8252H87.3815L84.1681 24.6622H80.9187L77.7772 15.8252H81.2968Z" fill="#1B734F"/>
<path d="M93.756 11.8916H97.0053V24.662H93.756V11.8916Z" fill="#1B734F"/>
<path d="M98.9983 11.8916H102.248V24.662H98.9983V11.8916Z" fill="#1B734F"/>
<path d="M112.104 22.5055C112.104 23.3853 112.157 24.2117 112.247 24.6608H109.322L109.16 23.889H109.088C108.478 24.5899 107.599 24.8592 106.647 24.8592C104.833 24.8592 103.721 23.5477 103.721 22.0749C103.721 19.7038 105.858 18.6441 108.855 18.6441V18.5721C108.855 18.2134 108.586 17.8177 107.402 17.8177C106.468 17.8177 105.499 18.1415 104.906 18.4642L104.35 16.4343C104.906 16.1291 106.18 15.6265 108.012 15.6265C111.046 15.6265 112.105 17.3151 112.105 19.5239V22.5055H112.104ZM108.961 20.6195C107.633 20.6195 106.896 20.9782 106.896 21.7686C106.896 22.3257 107.256 22.6124 107.812 22.6124C108.278 22.6124 108.763 22.2887 108.924 21.8046C108.96 21.6607 108.96 21.4993 108.96 21.338V20.6195H108.961Z" fill="#1B734F"/>
<path d="M122.784 23.368C122.784 24.9128 122.479 26.3856 121.402 27.3188C120.396 28.1812 119.05 28.4145 117.686 28.4145C116.466 28.4145 115.227 28.1812 114.401 27.7495L115.011 25.3064C115.549 25.6117 116.555 25.9529 117.56 25.9529C118.708 25.9529 119.606 25.3239 119.606 23.959V23.5643H119.57C119.032 24.2293 118.242 24.552 117.362 24.552C115.208 24.552 113.647 22.8273 113.647 20.2589C113.647 17.4746 115.441 15.6245 117.65 15.6245C118.727 15.6245 119.463 16.0377 119.93 16.7736H119.966L120.073 15.8218H122.856C122.82 16.3789 122.784 17.1333 122.784 18.5342V23.368ZM119.554 19.4705C119.554 19.3267 119.535 19.1828 119.518 19.0574C119.374 18.4109 118.961 18.0512 118.369 18.0512C117.598 18.0512 116.933 18.8056 116.933 20.2065C116.933 21.3555 117.471 22.2004 118.369 22.2004C118.962 22.2004 119.392 21.8057 119.5 21.3206C119.554 21.1407 119.554 20.854 119.554 20.6556V19.4705Z" fill="#1B734F"/>
<path d="M127.417 21.3744C127.525 22.0753 128.548 22.47 129.696 22.47C130.522 22.47 131.312 22.3806 132.102 22.1288L132.515 24.2841C131.456 24.6973 130.307 24.8411 129.212 24.8411C126.107 24.8411 124.347 23.135 124.347 20.3332C124.347 18.2858 125.675 15.6279 128.925 15.6279C131.78 15.6279 133 17.7298 133 20.1544C133 20.6755 132.928 21.1606 132.875 21.3754H127.417V21.3744ZM130.02 19.1831C130.02 18.6805 129.787 17.7462 128.763 17.7462C127.812 17.7462 127.435 18.626 127.381 19.1831H130.02Z" fill="#1B734F"/>
<path d="M90.1296 14.9085H90.147C91.1528 14.9085 91.7989 14.226 91.7989 13.3822C91.7804 12.4839 91.1528 11.8374 90.147 11.8374C89.1413 11.8374 88.4951 12.4839 88.4951 13.3822C88.4961 14.226 89.1249 14.9085 90.1296 14.9085Z" fill="#F09330"/>
<path d="M85.7132 14.9085H85.7306C86.7364 14.9085 87.3825 14.226 87.3825 13.3822C87.364 12.4839 86.7364 11.8374 85.7306 11.8374C84.7249 11.8374 84.0787 12.4839 84.0787 13.3822C84.0798 14.226 84.7085 14.9085 85.7132 14.9085Z" fill="#F09330"/>
<path d="M79.4117 14.9085H79.4291C80.4349 14.9085 81.081 14.226 81.081 13.3822C81.0625 12.4839 80.4349 11.8374 79.4291 11.8374C78.4234 11.8374 77.7772 12.4839 77.7772 13.3822C77.7782 14.226 78.407 14.9085 79.4117 14.9085Z" fill="#F09330"/>
<path d="M91.764 15.8252H88.5146V24.6622H91.764V15.8252Z" fill="#1B734F"/>
</g>
<defs>
<clipPath id="clip0">
<rect width="133" height="41.407" fill="white"/>
</clipPath>
</defs>
</svg>
