<svg width="120" height="60" viewBox="0 0 120 60" fill="none" xmlns="http://www.w3.org/2000/svg">
<path d="M18.3934 53.6475C22.7426 53.6475 26.2732 50.1169 26.2732 45.7677V37.8879H18.3934C14.0443 37.8879 10.5137 41.4185 10.5137 45.7677C10.5137 50.1169 14.0443 53.6475 18.3934 53.6475Z" fill="#0ACF83"/>
<path d="M10.5051 30.0001C10.5051 25.651 14.0357 22.1204 18.3849 22.1204H26.2647V37.8882H18.3849C14.0357 37.8882 10.5051 34.3576 10.5051 30.0084V30.0001Z" fill="#A259FF"/>
<path d="M10.5051 14.2323C10.5051 9.88314 14.0357 6.35254 18.3849 6.35254H26.2647V22.1203H18.3849C14.0357 22.1203 10.5051 18.5897 10.5051 14.2406V14.2323Z" fill="#F24E1E"/>
<path d="M26.1987 6.35254H34.0785C38.4277 6.35254 41.9583 9.88314 41.9583 14.2323C41.9583 18.5815 38.4277 22.1121 34.0785 22.1121H26.1987V6.35254Z" fill="#FF7262"/>
<path d="M42.0409 30.0001C42.0409 34.3493 38.5104 37.8799 34.1612 37.8799C29.812 37.8799 26.1987 34.3493 26.1987 30.0001C26.1987 25.651 29.7293 22.1204 34.0785 22.1204C38.4277 22.1204 41.9583 25.651 41.9583 30.0001H42.0409Z" fill="#1ABCFE"/>
<path d="M50.6565 19.4164V35.9366H52.7815V28.0486H57.8913V25.998H52.7815V21.4835H59.421V19.4164H50.6565ZM63.2658 22.7733C64.0347 22.7733 64.6549 22.1532 64.6549 21.3843C64.6549 20.6153 64.0265 20.0779 63.2658 20.0779C62.5051 20.0779 61.8767 20.698 61.8767 21.4669C61.8767 21.839 62.0255 22.1863 62.2901 22.4591C62.5547 22.732 62.902 22.8726 63.2823 22.8726L63.2658 22.7733ZM62.1909 24.857V35.9366H64.2332V24.857H62.1247H62.1909ZM72.2122 24.5262C69.3844 24.5262 67.4165 27.0068 67.4165 29.7519C67.4165 32.497 69.4009 34.9609 72.2122 34.9609C72.7971 34.9712 73.3778 34.8596 73.9173 34.6333C74.4568 34.4069 74.9433 34.0708 75.3459 33.6463V35.118C75.34 36.0023 74.9969 36.851 74.3867 37.4911C74.0785 37.8055 73.7105 38.0553 73.3044 38.2257C72.8984 38.3961 72.4624 38.4836 72.022 38.4833C71.3458 38.4619 70.6906 38.2435 70.1368 37.8549L69.0619 39.6987C69.8874 40.2296 70.8407 40.528 71.8215 40.5626C72.8024 40.5972 73.7744 40.3666 74.6351 39.8951C75.4959 39.4237 76.2136 38.7288 76.7127 37.8838C77.2117 37.0387 77.4737 36.0747 77.4708 35.0932V24.8404H75.3459V25.8326C74.9433 25.4081 74.4568 25.072 73.9173 24.8457C73.3778 24.6193 72.7971 24.5077 72.2122 24.518V24.5262ZM69.5497 29.7519C69.5013 29.2143 69.6042 28.6739 69.8467 28.1918C70.0893 27.7096 70.4618 27.3049 70.9223 27.0233C71.8649 26.4445 73.0473 26.4445 73.9816 27.0233C74.9159 27.6021 75.4451 28.6604 75.3541 29.7519C75.4026 30.2894 75.2997 30.8298 75.0572 31.312C74.8146 31.7941 74.4421 32.1989 73.9816 32.4804C73.039 33.0592 71.8566 33.0592 70.9223 32.4804C69.988 31.9016 69.4588 30.8433 69.5497 29.7519Z" fill="black"/>
<path d="M85.1355 26.6927C84.5243 26.6948 83.9388 26.9386 83.5067 27.3707C83.0745 27.8029 82.8308 28.3884 82.8286 28.9995V36.0111H80.7036V24.9315H82.8286V25.8658C83.4735 25.0059 84.4988 24.5098 85.5737 24.5264C86.9297 24.4933 88.1948 25.2209 88.8645 26.4033C89.6913 25.2457 90.882 24.5429 92.1719 24.5264C94.5945 24.5264 96.0993 26.4777 96.1076 28.8921V35.945H93.9826V28.9169C94.0449 28.4791 93.9805 28.0326 93.797 27.6302C93.6136 27.2279 93.3187 26.8865 92.9473 26.6465C92.5759 26.4064 92.1436 26.2777 91.7014 26.2757C91.2592 26.2736 90.8256 26.3982 90.452 26.6348C90.0805 26.877 89.7864 27.2208 89.6046 27.6254C89.4228 28.03 89.3611 28.4782 89.4267 28.9169V35.9284H87.3845V28.9251C87.3823 28.314 87.1385 27.7285 86.7064 27.2963C86.2742 26.8642 85.6887 26.6204 85.0776 26.6183L85.1355 26.6927ZM107.46 26.1139C106.976 25.6092 106.395 25.2087 105.751 24.9371C105.106 24.6656 104.414 24.5286 103.715 24.5346C100.548 24.5346 98.3401 27.2136 98.3401 30.3225C98.3401 33.4314 100.573 36.1104 103.715 36.1104C104.414 36.1164 105.106 35.9794 105.751 35.7078C106.395 35.4362 106.976 35.0358 107.46 34.5311V35.7879H109.585V24.7083H107.46V26.1139ZM100.432 30.4134C100.324 29.0905 100.969 27.8172 102.102 27.1226C103.235 26.4281 104.583 26.4281 105.79 27.1226C106.343 27.4658 106.791 27.9541 107.085 28.5344C107.38 29.1146 107.51 29.7646 107.46 30.4134C107.568 31.7364 106.923 33.0097 105.79 33.7043C104.657 34.3988 103.309 34.3988 102.102 33.7043C101.549 33.3611 101.101 32.8728 100.807 32.2925C100.512 31.7122 100.383 31.0623 100.432 30.4134Z" fill="black"/>
</svg>
