<svg width="121" height="60" viewBox="0 0 121 60" fill="none" xmlns="http://www.w3.org/2000/svg">
<path d="M7.8667 40.9073L8.07662 40.6137L18.0477 21.8322L18.0668 21.6333L13.668 13.4312C13.2959 12.7398 12.2654 12.9197 12.1414 13.6869L7.8667 40.9073Z" fill="#FFC24A"/>
<path d="M21.2737 27.837L24.5465 24.5126L21.2737 18.3089C20.9588 17.7217 20.0905 17.7217 19.7852 18.3089L18.0391 21.6239V21.908L21.2737 27.837Z" fill="#F4BD62"/>
<path d="M7.86768 40.9074L7.96309 40.8127L8.30659 40.6706L21.0734 28.0549L21.226 27.6192L18.0487 21.5955L7.86768 40.9074Z" fill="#F6820C"/>
<path d="M21.684 47.272L33.2295 40.8789L29.9281 20.7146C29.8231 20.08 29.0407 19.8337 28.5922 20.2884L7.86768 40.9073L19.3559 47.272C20.0715 47.6793 20.9589 47.6793 21.684 47.272Z" fill="#FDE068"/>
<path d="M33.1341 40.822L29.8613 20.8187C29.7563 20.1936 29.1075 19.9379 28.659 20.383L7.9917 40.8694L19.3463 47.1678C20.0619 47.5656 20.9398 47.5656 21.6649 47.1678L33.1341 40.822Z" fill="#FCCA3F"/>
<path d="M21.6841 47.0827C20.9589 47.4805 20.0715 47.4805 19.3463 47.0827L7.95357 40.8127L7.85815 40.9074L19.3463 47.2721C20.0715 47.6699 20.9589 47.6699 21.6841 47.2721L33.2295 40.879L33.2009 40.7085L21.6841 47.0827Z" fill="#EEAB37"/>
<path d="M41.1985 37.8655H39.2295V22.5412H48.1646V24.4242H41.1985V29.4543H47.4917V31.2965H41.1985V37.8655ZM51.6262 24.7452C51.3548 25.0165 51.0272 25.1533 50.6422 25.1533C50.4589 25.1565 50.277 25.1219 50.1077 25.0517C49.9384 24.9814 49.7854 24.8771 49.6582 24.7452C49.5268 24.6176 49.4228 24.4645 49.3526 24.2953C49.2825 24.1261 49.2476 23.9444 49.2501 23.7612C49.2469 23.578 49.2815 23.396 49.3517 23.2267C49.422 23.0575 49.5263 22.9044 49.6582 22.7772C49.7858 22.6458 49.9389 22.5419 50.1081 22.4717C50.2773 22.4015 50.459 22.3666 50.6422 22.3691C50.8254 22.3659 51.0074 22.4005 51.1767 22.4708C51.3459 22.541 51.499 22.6453 51.6262 22.7772C51.7576 22.9048 51.8616 23.0579 51.9317 23.2271C52.0019 23.3963 52.0368 23.5781 52.0343 23.7612C52.0375 23.9445 52.0029 24.1264 51.9326 24.2957C51.8624 24.465 51.7581 24.618 51.6262 24.7452ZM51.6262 37.8655H49.6571V27.3783H51.6262V37.8655ZM55.8764 37.8655H53.9063V27.3783H55.7893V29.0903H55.8742C56.0728 28.52 56.4842 28.049 57.1053 27.6783C57.7263 27.3077 58.3187 27.1213 58.9144 27.1213C59.51 27.1213 59.9921 27.2073 60.3925 27.3783L59.6424 29.2205C59.3854 29.1102 59.0357 29.0704 58.5944 29.0704C57.8807 29.0704 57.2487 29.3517 56.7004 29.9154C56.1522 30.4791 55.8764 31.2171 55.8764 32.1304V37.8655ZM65.5705 38.1964C63.9864 38.1964 62.6991 37.6691 61.7074 36.6124C60.7157 35.5556 60.2182 34.223 60.2182 32.6103C60.2182 31.0836 60.6992 29.7709 61.6523 28.6722C62.6053 27.5735 63.8585 27.0242 65.3443 27.0242C66.8887 27.0242 68.144 27.5316 69.0794 28.5443C70.0149 29.5569 70.4804 30.9126 70.4804 32.6114L70.4583 32.9754H62.185C62.2424 34.0311 62.5954 34.8661 63.244 35.4795C63.545 35.7751 63.9013 36.0086 64.2925 36.1664C64.6838 36.3243 65.1023 36.4035 65.5241 36.3995C66.9361 36.3995 67.8925 35.8005 68.3922 34.6014L70.1572 35.3294C69.8262 36.1424 69.2504 36.8241 68.4661 37.3735C67.6818 37.9228 66.7177 38.1975 65.576 38.1975L65.5705 38.1964ZM68.3944 31.3572C68.3503 30.7582 68.0767 30.1879 67.5704 29.6452C67.0641 29.1024 66.3107 28.8322 65.3123 28.8322C64.5843 28.8322 63.9533 29.0605 63.4183 29.5161C62.8833 29.9717 62.516 30.5861 62.3152 31.3583H68.3823L68.3944 31.3572ZM77.6197 38.1964C76.8199 38.1964 76.1029 38.0254 75.4686 37.6824C74.8343 37.3393 74.3589 36.9124 74.0346 36.3984H73.9607V37.8544H72.0777V22.5412H74.0467V27.3783L73.9607 28.8344H74.0467C74.3611 28.3203 74.8354 27.8923 75.4807 27.5504C76.1261 27.2084 76.8331 27.0363 77.6318 27.0363C78.9886 27.0363 80.1689 27.5713 81.1419 28.6413C82.1148 29.7113 82.62 31.0384 82.62 32.6125C82.62 34.1866 82.128 35.5247 81.1419 36.5837C80.1557 37.6427 78.9875 38.1887 77.6318 38.1887L77.6197 38.1964ZM77.2887 36.3984C78.2021 36.3984 78.9875 36.052 79.6427 35.3614C80.298 34.6709 80.6267 33.7531 80.6267 32.6114C80.6267 31.4697 80.298 30.553 79.6427 29.8614C78.9875 29.1697 78.201 28.8245 77.2887 28.8245C76.844 28.8157 76.4026 28.9028 75.9945 29.0799C75.5864 29.2569 75.2212 29.5197 74.9237 29.8503C74.2751 30.5453 73.9496 31.4553 73.9496 32.6114C73.9496 33.7675 74.2739 34.6874 74.9237 35.3725C75.5734 36.0575 76.361 36.4006 77.2887 36.4006V36.3984ZM87.7825 38.1964C86.6794 38.1964 85.7385 37.8655 84.9895 37.2334C84.2405 36.6013 83.8643 35.742 83.8643 34.6963C83.8643 33.5546 84.3056 32.6599 85.1913 32.0102C86.0771 31.3605 87.1681 31.0362 88.4676 31.0362C89.6236 31.0362 90.5723 31.2502 91.3136 31.6782V31.3781C91.3136 30.606 91.0488 29.9904 90.5215 29.5271C89.9943 29.0638 89.3445 28.8322 88.5735 28.8322C88.0021 28.8322 87.4847 28.9679 87.0214 29.2403C86.5806 29.4848 86.2426 29.8799 86.0694 30.3534L84.2714 29.5834C84.514 28.9546 84.9917 28.3744 85.7054 27.8405C86.4191 27.3066 87.3601 27.0374 88.5293 27.0374C89.8707 27.0374 90.9837 27.4301 91.8684 28.2144C92.7531 28.9987 93.1955 30.1052 93.1955 31.5315V37.8666H91.3235V36.4105H91.2375C90.452 37.6085 89.3037 38.2085 87.7914 38.2085L87.7825 38.1964ZM88.1135 36.3984C88.9265 36.3984 89.6655 36.095 90.3285 35.4883C90.9915 34.8816 91.3235 34.1646 91.3235 33.3372C90.7675 32.8806 89.9336 32.6533 88.8195 32.6533C87.8631 32.6533 87.1427 32.8607 86.6574 33.2744C86.172 33.688 85.9293 34.1734 85.9293 34.7305C85.9293 35.2445 86.1499 35.6504 86.5934 35.9505C87.0368 36.2505 87.5421 36.4006 88.1135 36.4006V36.3984ZM98.9239 38.1964C97.7546 38.1964 96.7872 37.9096 96.0227 37.3404C95.278 36.7937 94.697 36.0536 94.3427 35.2004L96.1077 34.4723C96.6636 35.7961 97.6134 36.4414 98.9537 36.4414C99.567 36.4414 100.07 36.3057 100.463 36.0332C100.855 35.7608 101.052 35.4045 101.052 34.9632C101.052 34.2793 100.574 33.816 99.6177 33.5733L97.4998 33.0593C96.8291 32.8883 96.1937 32.5629 95.5947 32.0852C94.9957 31.6076 94.699 30.9854 94.699 30.1603C94.699 29.2337 95.1093 28.4803 95.93 27.9023C96.7508 27.3242 97.7248 27.0352 98.8533 27.0352C99.7799 27.0352 100.618 27.2558 101.335 27.6662C102.052 28.0765 102.584 28.6899 102.898 29.4753L101.186 30.1813C100.8 29.2547 100.002 28.7914 98.7893 28.7914C98.2047 28.7914 97.7116 28.9017 97.3111 29.1554C96.9107 29.4091 96.7122 29.7257 96.7122 30.1393C96.7122 30.7383 97.1755 31.1454 98.1021 31.3594L100.178 31.8514C101.162 32.0797 101.89 32.4724 102.362 33.0284C102.834 33.5843 103.068 34.2131 103.068 34.9114C103.068 35.8534 102.682 36.6377 101.912 37.2654C101.142 37.8931 100.149 38.2074 98.9371 38.2074L98.9239 38.1964ZM109.411 38.1964C107.827 38.1964 106.539 37.6691 105.548 36.6124C104.557 35.5556 104.059 34.223 104.059 32.6103C104.059 31.0836 104.54 29.7709 105.493 28.6722C106.446 27.5735 107.699 27.0242 109.185 27.0242C110.729 27.0242 111.985 27.5316 112.92 28.5443C113.855 29.5569 114.321 30.9126 114.321 32.6114V32.9754H106.048C106.103 34.0311 106.458 34.8661 107.107 35.4795C107.408 35.775 107.764 36.0084 108.155 36.1662C108.546 36.3241 108.964 36.4033 109.386 36.3995C110.798 36.3995 111.754 35.8005 112.254 34.6014L114.019 35.3294C113.688 36.1424 113.112 36.8241 112.328 37.3735C111.543 37.9228 110.579 38.1975 109.438 38.1975L109.411 38.1964ZM112.235 31.3572C112.191 30.7582 111.917 30.1879 111.411 29.6452C110.905 29.1024 110.151 28.8322 109.153 28.8322C108.459 28.82 107.785 29.0638 107.259 29.5172C106.724 29.9739 106.357 30.5872 106.156 31.3594H112.223L112.235 31.3572Z" fill="#63666A"/>
</svg>
