<svg width="24" height="24" viewBox="0 0 24 24" fill="none" xmlns="http://www.w3.org/2000/svg">
<path d="M12.1818 4C7.66137 4 4 7.66136 4 12.1818C3.99907 13.8994 4.53903 15.5737 5.54327 16.9671C6.54751 18.3605 7.96503 19.4023 9.59473 19.9447C10.0038 20.0159 10.1568 19.7705 10.1568 19.5553C10.1568 19.3614 10.1462 18.7175 10.1462 18.0318C8.09091 18.4106 7.55909 17.5311 7.39546 17.0705C7.303 16.8348 6.90455 16.1091 6.55682 15.9144C6.27046 15.7614 5.86136 15.3825 6.54618 15.3727C7.19091 15.3621 7.65073 15.9659 7.80455 16.2114C8.54091 17.4485 9.71746 17.1007 10.1871 16.8864C10.2591 16.3545 10.4735 15.997 10.7091 15.7925C8.88864 15.5879 6.98636 14.8818 6.98636 11.7523C6.98636 10.8621 7.303 10.1265 7.825 9.553C7.74318 9.34845 7.45682 8.50982 7.90682 7.38482C7.90682 7.38482 8.59164 7.17045 10.1568 8.22427C10.8229 8.03941 11.511 7.94637 12.2023 7.94773C12.8977 7.94773 13.5932 8.03936 14.2477 8.22345C15.8121 7.15982 16.4977 7.38564 16.4977 7.38564C16.9477 8.51064 16.6614 9.34927 16.5795 9.55382C17.1007 10.1265 17.4182 10.8523 17.4182 11.7523C17.4182 14.8925 15.5061 15.5879 13.6856 15.7925C13.9818 16.0477 14.2379 16.5386 14.2379 17.3061C14.2379 18.4 14.2273 19.2795 14.2273 19.5561C14.2273 19.7705 14.3811 20.0257 14.7902 19.9439C16.4143 19.3956 17.8256 18.3517 18.8254 16.9593C19.8252 15.5669 20.3632 13.896 20.3636 12.1818C20.3636 7.66136 16.7023 4 12.1818 4Z" fill="#18214D"/>
</svg>
