<svg width="120" height="60" viewBox="0 0 120 60" fill="none" xmlns="http://www.w3.org/2000/svg">
<path d="M31.2457 41.8363C31.2457 43.7534 26.805 45.3074 21.3272 45.3074C15.8494 45.3074 11.4087 43.7534 11.4087 41.8363C11.4087 39.9192 15.8492 38.3646 21.3272 38.3646C26.8052 38.3646 31.2457 39.9212 31.2457 41.8363Z" fill="#A0DCF2"/>
<path d="M31.2457 41.8363C31.2457 43.7534 26.805 45.3074 21.3272 45.3074C15.8494 45.3074 11.4087 43.7534 11.4087 41.8363C11.4087 39.9192 15.8492 38.3646 21.3272 38.3646C26.8052 38.3646 31.2457 39.9212 31.2457 41.8363Z" fill="#82BDE7"/>
<path d="M9.9978 31.6294L9.71151 32.627C9.71151 32.627 9.63703 32.9876 9.97671 33.0514C10.3314 33.0445 10.3024 32.7125 10.2776 32.6049L9.9978 31.6296V31.6294Z" fill="#A0DCF2"/>
<path d="M38.8312 27.4469L38.8574 27.3172C35.9477 26.7354 32.9619 26.7295 31.1535 26.8046C31.4503 25.7355 31.5397 24.5052 31.5397 23.1333C31.5397 21.1658 30.8005 19.5917 29.6004 18.3939C29.8102 17.7171 30.0904 16.2136 29.3206 14.2892C29.3206 14.2892 27.9611 13.8581 24.8921 15.9133C23.6891 15.6127 22.4087 15.4641 21.1265 15.4641C19.7157 15.4641 18.2902 15.6438 16.9607 16.0085C13.7912 13.8461 12.3923 14.289 12.3923 14.289C11.4789 16.5746 12.0436 18.2631 12.215 18.6832C11.1416 19.8417 10.4863 21.3202 10.4863 23.1331C10.4863 24.5019 10.6423 25.7296 11.023 26.7967C9.20103 26.7305 6.32379 26.7559 3.51611 27.3168L3.54212 27.4465C6.36458 26.882 9.25954 26.8623 11.0687 26.9309C11.1524 27.1515 11.246 27.3643 11.3504 27.5732C9.55982 27.6309 6.5027 27.8589 3.57266 28.6856L3.60852 28.8127C6.56161 27.9799 9.64553 27.7574 11.4188 27.7034C12.4887 29.6974 14.5979 30.9855 18.3503 31.3879C17.8176 31.7457 17.2745 32.3541 17.0539 33.3838C16.3282 33.7306 14.0308 34.5782 12.6522 32.2075C12.6522 32.2075 11.8806 30.7968 10.4037 30.6865C10.4037 30.6865 8.97129 30.6668 10.3046 31.579C10.3046 31.579 11.2635 32.0308 11.9248 33.7266C11.9248 33.7266 12.7878 36.622 16.9514 35.693V38.6839C16.9514 38.6839 16.8633 39.742 15.8934 40.0943C15.8934 40.0943 15.3204 40.4911 15.9375 40.711C15.9375 40.711 18.626 40.9316 18.626 38.7279V35.4666C18.626 35.4666 18.5196 34.1731 19.1546 33.7237V39.0843C19.1546 39.0843 19.1109 40.3624 18.4496 40.8473C18.4496 40.8473 18.0089 41.6404 18.9785 41.4203C18.9785 41.4203 20.8294 41.1559 20.9176 38.9962L20.9598 33.5753H21.4045L21.4468 38.9962C21.5349 41.1557 23.386 41.4203 23.386 41.4203C24.3554 41.6404 23.9147 40.8473 23.9147 40.8473C23.2536 40.3626 23.2097 39.0843 23.2097 39.0843V33.7737C23.8447 34.2663 23.7385 35.4705 23.7385 35.4705V38.7318C23.7385 40.9354 26.4268 40.7149 26.4268 40.7149C27.0435 40.4948 26.4711 40.0982 26.4711 40.0982C25.5013 39.7435 25.4131 38.6879 25.4131 38.6879V34.4129C25.4131 32.746 24.711 31.8629 24.0246 31.3969C28.0243 31.0001 29.9465 29.708 30.8316 27.7003C32.5844 27.7483 35.7388 27.9619 38.7561 28.8135L38.792 28.6864C35.7918 27.8402 32.6585 27.6213 30.8877 27.5696C30.9717 27.3667 31.0448 27.1559 31.1098 26.9391C32.9038 26.8603 35.9032 26.8633 38.8243 27.4475" fill="#292929"/>
<path d="M27.6274 23.0389C28.4894 23.8197 28.9936 24.7629 28.9936 25.7786C28.9936 30.5221 25.4573 30.6508 21.0956 30.6508C16.734 30.6508 13.1973 29.996 13.1973 25.7806C13.1973 24.7714 13.6946 23.8343 14.5459 23.0566C15.9657 21.7606 18.3691 22.4468 21.0952 22.4468C23.8107 22.4468 26.205 21.7537 27.6268 23.0409" fill="#F5CDB5"/>
<path d="M18.469 26.0222C18.469 27.3285 17.7333 28.3877 16.8258 28.3877C15.9182 28.3877 15.1821 27.3287 15.1821 26.0222C15.1821 24.7156 15.9182 23.657 16.8258 23.657C17.7333 23.657 18.469 24.7156 18.469 26.0222Z" fill="white"/>
<path d="M17.9415 26.0519C17.9415 26.9228 17.4489 27.6285 16.846 27.6285C16.2431 27.6285 15.7505 26.9228 15.7505 26.0519C15.7505 25.181 16.2407 24.4745 16.846 24.4745C17.4513 24.4745 17.9415 25.1806 17.9415 26.0519Z" fill="#B1645A"/>
<path d="M27.2854 26.0222C27.2854 27.3285 26.5497 28.3877 25.6418 28.3877C24.7339 28.3877 23.9985 27.3287 23.9985 26.0222C23.9985 24.7156 24.7344 23.657 25.6418 23.657C26.5491 23.657 27.2854 24.7156 27.2854 26.0222Z" fill="white"/>
<path d="M26.7576 26.0519C26.7576 26.9228 26.2651 27.6285 25.6622 27.6285C25.0592 27.6285 24.5667 26.9228 24.5667 26.0519C24.5667 25.181 25.0592 24.4745 25.6622 24.4745C26.2651 24.4745 26.7576 25.1806 26.7576 26.0519ZM21.5292 28.1207C21.5292 28.3477 21.3452 28.5317 21.1182 28.5317C20.8913 28.5317 20.7072 28.3477 20.7072 28.1207C20.7072 27.8937 20.8911 27.7097 21.1182 27.7097C21.3454 27.7097 21.5292 27.8937 21.5292 28.1207ZM20.1609 29.16C20.1551 29.1437 20.1526 29.1263 20.1535 29.109C20.1544 29.0917 20.1588 29.0747 20.1662 29.059C20.1737 29.0434 20.1842 29.0293 20.1971 29.0177C20.21 29.0061 20.2251 28.9972 20.2415 28.9914C20.2578 28.9856 20.2752 28.9831 20.2925 28.984C20.3098 28.9849 20.3268 28.9893 20.3425 28.9967C20.3581 29.0042 20.3722 29.0147 20.3838 29.0276C20.3954 29.0405 20.4043 29.0556 20.4101 29.072C20.5157 29.3705 20.7989 29.571 21.1149 29.571C21.4309 29.571 21.7139 29.3705 21.8199 29.072C21.8256 29.0556 21.8346 29.0406 21.8462 29.0277C21.8578 29.0148 21.8718 29.0043 21.8875 28.9968C21.9031 28.9893 21.9201 28.985 21.9374 28.9841C21.9547 28.9832 21.9721 28.9857 21.9884 28.9915C22.0048 28.9973 22.0198 29.0062 22.0327 29.0178C22.0456 29.0294 22.0561 29.0434 22.0636 29.0591C22.0711 29.0747 22.0754 29.0917 22.0763 29.109C22.0772 29.1264 22.0747 29.1437 22.0689 29.16C21.9979 29.3561 21.8682 29.5255 21.6975 29.6452C21.5268 29.7649 21.3234 29.8291 21.1149 29.8291C20.9064 29.8291 20.703 29.7649 20.5323 29.6452C20.3616 29.5255 20.2319 29.3561 20.1609 29.16Z" fill="#B1645A"/>
<path d="M11.0497 31.0413C11.0497 31.1511 10.9213 31.2396 10.763 31.2396C10.6048 31.2396 10.4766 31.1509 10.4766 31.0413C10.4766 30.9318 10.6046 30.8427 10.763 30.8427C10.9215 30.8427 11.0497 30.9314 11.0497 31.0413ZM11.8434 31.4817C11.8434 31.5915 11.7149 31.6803 11.5567 31.6803C11.3985 31.6803 11.2702 31.5917 11.2702 31.4817C11.2702 31.3718 11.3983 31.2835 11.5567 31.2835C11.7151 31.2835 11.8434 31.3722 11.8434 31.4817ZM12.3284 32.0531C12.3284 32.1625 12.2004 32.2513 12.0418 32.2513C11.8832 32.2513 11.7555 32.1626 11.7555 32.0531C11.7555 31.9436 11.8836 31.8545 12.0418 31.8545C12.2 31.8545 12.3284 31.9432 12.3284 32.0531ZM12.7688 32.7145C12.7688 32.8243 12.6407 32.9131 12.4825 32.9131C12.3243 32.9131 12.1958 32.8245 12.1958 32.7145C12.1958 32.6046 12.3239 32.5159 12.4825 32.5159C12.6411 32.5159 12.7688 32.6046 12.7688 32.7145ZM13.2539 33.3338C13.2539 33.4431 13.1258 33.532 12.9674 33.532C12.809 33.532 12.6807 33.4433 12.6807 33.3338C12.6807 33.2242 12.8092 33.1352 12.9674 33.1352C13.1256 33.1352 13.2539 33.2239 13.2539 33.3338ZM13.9153 33.8624C13.9153 33.9722 13.7873 34.061 13.6287 34.061C13.47 34.061 13.3424 33.9724 13.3424 33.8624C13.3424 33.7525 13.4704 33.6642 13.6287 33.6642C13.7869 33.6642 13.9153 33.7529 13.9153 33.8624Z" fill="#C5E6DA"/>
<path d="M14.8407 34.2151C14.8407 34.3245 14.7127 34.4133 14.5543 34.4133C14.3958 34.4133 14.2676 34.3247 14.2676 34.2151C14.2676 34.1056 14.3956 34.0165 14.5543 34.0165C14.7129 34.0165 14.8407 34.1052 14.8407 34.2151Z" fill="#C5E6DA"/>
<path d="M15.7621 34.2151C15.7621 34.3245 15.6341 34.4133 15.4756 34.4133C15.3172 34.4133 15.189 34.3247 15.189 34.2151C15.189 34.1056 15.317 34.0165 15.4756 34.0165C15.6343 34.0165 15.7621 34.1052 15.7621 34.2151Z" fill="#C5E6DA"/>
<path d="M16.6972 34.0616C16.6972 34.1714 16.5691 34.2603 16.4107 34.2603C16.2523 34.2603 16.124 34.1716 16.124 34.0616C16.124 33.9517 16.2521 33.863 16.4107 33.863C16.5693 33.863 16.6972 33.9517 16.6972 34.0616Z" fill="#C5E6DA"/>
<path d="M50.4654 21.2119C51.5569 21.2119 52.8001 20.941 54.2209 20.4003V23.8859C53.9054 23.999 53.454 24.124 52.8676 24.258C53.0482 24.7769 53.1384 25.2621 53.1384 25.7126C53.1384 27.1562 52.6989 28.4193 51.8188 29.5028C50.9915 30.5448 49.7892 31.2215 48.4691 31.388C47.5761 31.5229 47.1158 32.0081 47.1158 32.8425C47.1158 33.1362 47.2626 33.4379 47.5553 33.7226C47.9383 34.1513 48.5029 34.4221 49.247 34.5342C52.4717 35.0304 54.086 36.3728 54.086 38.5606C54.086 42.0572 51.9994 43.8054 47.8351 43.8054C46.1206 43.8054 44.7097 43.5008 43.6053 42.8926C42.2162 42.1256 41.5078 40.9082 41.5078 39.271C41.5078 37.3859 42.5566 36.0791 44.6531 35.3796V35.3121C43.8861 34.8389 43.5021 34.1165 43.5021 33.1471C43.5021 31.8841 43.8633 31.0933 44.5936 30.7788V30.7113C43.8712 30.4632 43.2293 29.8997 42.6647 29.0196C42.0327 28.072 41.7172 27.057 41.7172 25.9735C41.7172 24.3493 42.2926 22.9969 43.4436 21.9134C44.5183 20.9093 45.9419 20.3633 47.4124 20.3913C48.4924 20.3847 49.5549 20.6647 50.4912 21.203L50.4654 21.2119ZM45.4161 26.0072C45.4161 27.565 46.1265 28.3419 47.5474 28.3419C48.9236 28.3419 49.6112 27.5521 49.6112 25.9735C49.6112 25.3186 49.4524 24.7551 49.1379 24.2818C48.7549 23.7629 48.225 23.5039 47.5474 23.5039C46.1265 23.5039 45.4161 24.3374 45.4161 26.0082V26.0072ZM50.6272 39.0012C50.6272 37.8502 49.6796 37.2747 47.7845 37.2747C45.9569 37.2747 45.044 37.872 45.044 39.0676C45.044 40.2404 46.0362 40.8268 48.0206 40.8268C49.757 40.8268 50.6262 40.2176 50.6262 39.0012H50.6272ZM58.0399 17.9297C57.3851 17.9297 56.8215 17.6816 56.3482 17.1855C55.9045 16.7082 55.6621 16.078 55.6715 15.4264C55.6715 14.7268 55.8968 14.1295 56.3482 13.6334C56.8215 13.1373 57.3861 12.8893 58.0399 12.8893C58.672 12.8893 59.2127 13.1373 59.6642 13.6334C60.1375 14.1295 60.3746 14.7278 60.3746 15.4264C60.3785 15.752 60.3177 16.0752 60.1958 16.3772C60.0738 16.6791 59.8931 16.9539 59.6642 17.1855C59.2127 17.6816 58.672 17.9297 58.0399 17.9297ZM56.1111 35.5909C56.1557 35.1395 56.1786 34.3725 56.1786 33.289V22.7687L56.1111 20.569H59.9251C59.8805 20.9976 59.8577 21.708 59.8577 22.7002V33.0886L59.9251 35.5929H56.1012L56.1111 35.5909ZM67.0154 20.569H69.9593V23.8512C69.7447 23.8469 69.5303 23.8356 69.3164 23.8174L68.47 23.7837H67.0154V30.0773C67.0154 31.5884 67.5115 32.3444 68.5037 32.3444C69.1795 32.3516 69.8411 32.1507 70.3989 31.769V35.1425C69.5654 35.5939 68.5603 35.8192 67.3875 35.8192C65.7404 35.8192 64.6014 35.2238 63.9704 34.06C63.4971 33.1799 63.2599 31.7928 63.2599 29.8987V23.8422H63.2937V23.7748L62.7857 23.741C62.4002 23.7488 62.0156 23.7826 61.6347 23.8422V20.56H63.2917V19.2404C63.2917 18.6084 63.258 18.1013 63.1905 17.7174H67.1156C67.0482 18.146 67.0144 18.6302 67.0144 19.1719V20.559L67.0154 20.569ZM79.0201 20.4677C78.0498 20.4677 77.0357 20.8051 75.9741 21.4828V15.5613L76.0415 13.0232H72.1838C72.2513 13.3844 72.285 14.2298 72.285 15.5613V33.4607L72.1838 35.5919H76.109C76.109 35.5245 76.0862 35.2546 76.0415 34.7783L75.9741 33.4587V25.1381C76.7639 24.3939 77.5318 24.0218 78.276 24.0218C79.1332 24.0218 79.7871 24.4505 80.2386 25.3077C80.5759 25.9844 80.7466 26.8308 80.7466 27.8458L80.7128 32.4139C80.7128 33.1809 80.6563 34.2396 80.5442 35.5949H84.638C84.5388 35.0313 84.5031 33.9935 84.5031 32.4824V27.8468C84.5031 25.8842 84.0635 24.2153 83.1834 22.8391C82.1912 21.2516 80.8021 20.4707 79.0211 20.4707L79.0201 20.4677ZM92.023 35.7279C90.241 35.7279 88.9214 34.9381 88.0542 33.3595C87.3775 32.0736 87.0391 30.3829 87.0391 28.3191V23.6835L86.9042 20.5709H90.9643C90.8968 21.067 90.8512 22.1287 90.8294 23.7519L90.7956 28.3201C90.7956 29.606 90.9425 30.5307 91.2352 31.0943C91.5725 31.7938 92.1936 32.143 93.0966 32.143C93.7286 32.143 94.439 31.771 95.2278 31.0268V22.6923C95.225 22.2516 95.2025 21.8113 95.1603 21.3726L95.0929 20.561H99.018C98.9734 20.945 98.9506 21.6554 98.9506 22.6923V33.0559L99.018 35.5939H95.3469V34.3656C94.309 35.2586 93.2037 35.7189 92.0309 35.7189L92.023 35.7279ZM108.67 35.6852C108.097 35.698 107.529 35.5868 107.003 35.359C106.477 35.1312 106.007 34.7923 105.625 34.3656V35.584H102.038C102.106 35.2 102.14 34.4896 102.14 33.4527V15.5633L102.038 13.0252H105.896C105.85 13.4221 105.829 14.2774 105.829 15.5633V21.451C106.866 20.7962 107.882 20.4588 108.875 20.4588C110.657 20.4588 112.056 21.2486 113.072 22.8272C113.929 24.2034 114.358 25.8733 114.358 27.8349C114.358 29.8421 113.906 31.5904 113.004 33.0797C111.913 34.816 110.478 35.6852 108.673 35.6852H108.67ZM108.165 24.0119C107.421 24.0119 106.642 24.384 105.831 25.1281V30.9921C106.553 31.6916 107.263 32.0408 107.962 32.0408C108.842 32.0408 109.507 31.5447 109.958 30.5863C110.319 29.8193 110.5 28.9055 110.5 27.8458C110.5 25.2958 109.722 24.0228 108.165 24.0228" fill="black"/>
</svg>
