<svg width="120" height="60" viewBox="0 0 120 60" fill="none" xmlns="http://www.w3.org/2000/svg">
<path fill-rule="evenodd" clip-rule="evenodd" d="M24.3398 48.0523L31.5562 25.8418H17.1235L24.3398 48.0523Z" fill="#E24329"/>
<path fill-rule="evenodd" clip-rule="evenodd" d="M24.3394 48.0514L17.1231 25.8329H7.00854L24.3394 48.0514Z" fill="#FC6D26"/>
<path fill-rule="evenodd" clip-rule="evenodd" d="M7.00859 25.8329L4.82574 32.5829C4.62531 33.198 4.84558 33.8727 5.36847 34.2537L24.3494 48.0454L7.00859 25.8329Z" fill="#FCA326"/>
<path fill-rule="evenodd" clip-rule="evenodd" d="M7.00854 25.8329H17.1231L12.7772 12.456C12.554 11.7674 11.5796 11.7674 11.3564 12.456L7.00854 25.8329Z" fill="#E24329"/>
<path fill-rule="evenodd" clip-rule="evenodd" d="M24.3398 48.0513L31.5562 25.8408H41.6707L24.3398 48.0513Z" fill="#FC6D26"/>
<path fill-rule="evenodd" clip-rule="evenodd" d="M41.6704 25.8329L43.8532 32.5829C44.0536 33.198 43.8334 33.8727 43.3105 34.2537L24.3296 48.0454L41.6704 25.8329Z" fill="#FCA326"/>
<path fill-rule="evenodd" clip-rule="evenodd" d="M41.6705 25.8329H31.5559L35.9018 12.456C36.125 11.7674 37.0994 11.7674 37.3226 12.456L41.6705 25.8329Z" fill="#E24329"/>
<path fill-rule="evenodd" clip-rule="evenodd" d="M81.3243 21.1291H78.943L78.9509 38.8618H88.5882V36.679H81.3302L81.3243 21.1291ZM97.7651 35.7483C97.3835 36.1452 96.9251 36.4603 96.4178 36.6743C95.9105 36.8884 95.3649 36.997 94.8143 36.9935C93.0006 36.9935 92.2693 36.1005 92.2693 34.9357C92.2693 33.1765 93.4877 32.3361 96.0863 32.3361C96.5824 32.3361 97.3583 32.3907 97.7651 32.471V35.7483ZM95.3005 25.0007C93.4522 24.9978 91.6608 25.6399 90.2353 26.8165L91.0787 28.275C92.053 27.7065 93.2447 27.1379 94.9503 27.1379C96.8999 27.1379 97.7661 28.1301 97.7661 29.8169V30.6831C97.3871 30.6017 96.6023 30.5472 96.1151 30.5472C91.9459 30.5472 89.8344 32.0087 89.8344 35.0686C89.8344 37.8032 91.5133 39.1833 94.0573 39.1833C95.7718 39.1833 97.4139 38.3896 97.9824 37.1255L98.416 38.8579H100.095V29.7891C100.095 26.9197 98.8496 24.9968 95.3025 24.9968L95.3005 25.0007ZM107.779 37.0759C106.886 37.0759 106.101 36.9767 105.505 36.6968V28.4943C106.319 27.8176 107.319 27.3304 108.581 27.3304C110.883 27.3304 111.776 28.9547 111.776 31.581C111.776 35.3167 110.341 37.0779 107.77 37.0779L107.779 37.0759ZM108.762 25.0027C106.632 25.0027 105.487 26.4513 105.487 26.4513V24.1613L105.48 21.1291H103.152L103.159 38.4292C104.323 38.9253 105.92 39.1873 107.653 39.1873C112.094 39.1873 114.232 36.3446 114.232 31.4451C114.232 27.5735 112.255 25.0017 108.763 25.0017L108.762 25.0027ZM55.4267 23.05C57.5382 23.05 58.8915 23.7446 59.7855 24.459L60.8095 22.6859C59.4144 21.4625 57.5372 20.8047 55.5349 20.8047C50.4727 20.8047 46.9265 23.8805 46.9265 30.1175C46.9265 36.6423 50.7525 39.1863 55.1291 39.1863C57.3119 39.1863 59.1902 38.6723 60.4076 38.1574L60.358 31.1861V29.0033H53.861V31.1861H58.0134L58.063 36.4786C57.5213 36.7494 56.5747 36.9747 55.3017 36.9747C51.7824 36.9747 49.4279 34.762 49.4279 30.0987C49.4279 25.3609 51.8647 23.06 55.4377 23.06L55.4267 23.05ZM72.1821 21.1291H69.8534L69.8613 24.1058V34.3929C69.8613 37.2624 71.1066 39.1853 74.6537 39.1853C75.1348 39.1853 75.615 39.1422 76.0884 39.0563V36.9657C75.7302 37.0203 75.3683 37.0475 75.0059 37.0471C73.0562 37.0471 72.1901 36.0549 72.1901 34.3681V27.2739H76.0894V25.3242H72.1901L72.1821 21.1291ZM63.9468 38.8618H66.2755V25.3252H63.9468V38.8618ZM63.9468 23.4569H66.2755V21.1281H63.9468V23.4569Z" fill="#8C929D"/>
</svg>
