<svg width="120" height="60" viewBox="0 0 120 60" fill="none" xmlns="http://www.w3.org/2000/svg">
<path d="M28.0919 43.798H8.71285C7.0571 43.798 5.71143 42.4523 5.71143 40.7965V15.3341C5.71143 13.6783 7.0571 12.3326 8.71285 12.3326H28.0919C29.7476 12.3326 31.0933 13.6783 31.0933 15.3341V40.7903C31.0933 42.4461 29.7476 43.7918 28.0919 43.7918V43.798Z" fill="#6762A6"/>
<path d="M21.6176 39.4693V26.9737C21.6176 26.9737 22.4237 23.9847 11.6087 28.1954C11.5901 28.2574 11.5901 16.6424 11.5901 16.6424L15.1248 16.6176V24.0591C15.1248 24.0591 25.0283 20.1523 25.0283 27.0171V39.4693H21.6176ZM23.633 21.1135H19.8812C21.2331 19.4639 22.4547 16.6362 22.4547 16.6362H26.3305C26.3305 16.6362 25.667 18.4779 23.633 21.1135ZM11.6459 39.4445V32.3316L15.2054 35.8911L11.6459 39.4507V39.4445Z" fill="white"/>
<path d="M45.0835 38.5579V28.3257C45.0835 27.6064 44.5563 27.2901 43.93 27.2901C42.4721 27.3182 41.0343 27.6366 39.7007 28.2265V38.5579H36.8171V19.5571H39.7007V25.8204C41.065 25.3243 42.7022 24.8902 44.3393 24.8902C46.9562 24.8902 47.936 26.5026 47.936 28.7102V38.5703L45.0835 38.5579ZM53.3312 32.3566C53.4242 35.7921 54.1001 36.468 56.2148 36.468C57.8705 36.468 59.7495 35.9099 61.1882 35.3642L61.6657 37.5347C60.1278 38.2292 58.255 38.8989 56.0845 38.8989C51.2785 38.8989 50.5344 36.2572 50.5344 32.0527C50.5344 29.7458 50.7018 27.6498 51.2537 25.7274C52.6924 25.1693 54.621 24.884 57.0457 24.884C60.9898 24.884 62.1928 27.0731 62.1928 30.8993V32.3628H53.3312V32.3566ZM56.9899 27.2839C56.1217 27.2839 54.7575 27.3087 53.6288 27.532C53.5048 28.1087 53.3622 28.8963 53.3188 30.366H59.334C59.334 28.3692 58.9743 27.2901 57.0023 27.2901L56.9899 27.2839ZM67.5321 28.2141V38.5579H64.6485V26.9367C66.7209 25.8599 68.9962 25.2304 71.3273 25.0887V27.4886C70.087 27.5816 68.6607 27.7366 67.5321 28.2327V28.2141ZM78.9425 38.8803C74.6388 38.8803 72.6916 36.7719 72.6916 31.9349C72.6916 26.8188 75.2651 24.8654 78.9425 24.8654C83.2462 24.8654 85.1872 26.9739 85.1872 31.8109C85.1872 36.9269 82.6136 38.8803 78.9425 38.8803ZM78.9425 27.2839C76.7286 27.2839 75.507 28.5552 75.507 31.9473C75.507 35.6495 76.5426 36.4742 78.9425 36.4742C81.1501 36.4742 82.378 35.2216 82.378 31.8357C82.378 28.1335 81.3424 27.2963 78.9425 27.2963V27.2839ZM99.0967 38.5517H95.7108C94.917 36.4432 93.8132 34.2108 92.114 32.4H90.6009V38.5517H87.7173V19.5571H90.6009V30.4714H91.9466C93.3802 28.9418 94.5271 27.1668 95.3325 25.2313H98.5757C97.4719 27.4638 96.0518 29.4358 94.4643 31.0481C96.2786 33.3799 97.834 35.9021 99.1029 38.5703L99.0967 38.5517ZM104.504 38.8865C101.887 38.8865 100.907 37.2742 100.907 35.0665V25.2251H103.76V35.4386C103.76 36.158 104.287 36.4742 104.913 36.4742C106.418 36.4471 107.902 36.1291 109.285 35.5378V25.2251H112.169V36.8091C108.758 38.6819 106.135 38.8989 104.504 38.8989V38.8865Z" fill="#6762A6"/>
</svg>
