<svg width="120" height="60" viewBox="0 0 120 60" fill="none" xmlns="http://www.w3.org/2000/svg">
<path d="M6.31543 21.5416H11.971V27.1277H17.1434V21.5416H22.7989V38.4587H17.1434V32.8032H11.971V38.4587H6.31543V21.5416ZM30.2345 27.1525H25.2467V21.5426H40.8601V27.1525H35.8792V38.4607H30.2236V27.1525H30.2345ZM43.3386 21.5416H49.2353L52.8628 27.4949L56.4863 21.5416H62.3751V38.4587H56.7433V30.0726L52.8538 36.0884H52.7566L48.8811 30.0736V38.4597H43.3485L43.3386 21.5416ZM65.1969 21.5416H70.8525V32.8776H78.805V38.4696H65.1979L65.1969 21.5416Z" fill="black"/>
<path d="M81.4951 12.1998H112.886L110.026 44.2362L97.172 47.8002L84.3527 44.2411L81.4951 12.1998Z" fill="#E44D26"/>
<path d="M107.58 42.1973L110.024 14.8203H97.2017V45.0766L107.58 42.1973Z" fill="#F16529"/>
<path d="M91.9924 26.704L91.6332 22.6796H97.2015V18.7505H87.3489L88.4086 30.6341H97.2015V26.705L91.9924 26.704ZM88.5733 32.5997L89.1239 38.7712L97.1737 41.0057L97.1916 41.0007V36.9128L97.1747 36.9178L92.809 35.7271L92.5292 32.5918H90.4029L88.5733 32.5997Z" fill="#EBEBEB"/>
<path d="M106.217 27.7578L106.313 26.7021H97.1787V30.6312H102.018L101.561 35.7282L97.1787 36.9109V40.9988L105.235 38.7663L105.295 38.1015L106.217 27.7578ZM97.1876 22.6797H106.68L107.032 18.7406H97.1876V22.6598V22.6797Z" fill="white"/>
</svg>
