<svg width="61" height="60" viewBox="0 0 61 60" fill="none" xmlns="http://www.w3.org/2000/svg">
<path d="M52.643 8.09998H8.84302V51.9H52.643V8.09998Z" fill="#F7DF1E"/>
<path d="M20.363 44.7L23.711 42.672C24.359 43.824 24.947 44.784 26.351 44.784C27.707 44.784 28.559 44.256 28.559 42.192V28.212H32.675V42.264C32.675 46.524 30.179 48.468 26.531 48.468C23.243 48.468 21.335 46.764 20.363 44.7Z" fill="black"/>
<path d="M34.9192 44.256L38.2672 42.312C39.1552 43.752 40.2952 44.808 42.3232 44.808C44.0272 44.808 45.1192 43.956 45.1192 42.78C45.1192 41.364 44.0032 40.872 42.1192 40.044L41.0872 39.6C38.1232 38.34 36.1432 36.744 36.1432 33.396C36.1432 30.312 38.4952 27.96 42.1672 27.96C44.7832 27.96 46.6672 28.872 48.0232 31.248L44.8192 33.3C44.1112 32.04 43.3552 31.536 42.1792 31.536C40.9792 31.536 40.2112 32.304 40.2112 33.3C40.2112 34.536 40.9792 35.04 42.7432 35.796L43.7752 36.24C47.2792 37.74 49.2472 39.264 49.2472 42.708C49.2472 46.416 46.3312 48.444 42.4312 48.444C38.5912 48.468 36.1192 46.644 34.9192 44.256Z" fill="black"/>
</svg>
