<svg width="120" height="60" viewBox="0 0 120 60" fill="none" xmlns="http://www.w3.org/2000/svg">
<path d="M16.6086 10.1095L17.6901 12.1435C17.9256 12.5104 18.1997 12.851 18.5077 13.1595C19.4136 14.0654 20.2758 15.015 21.0478 16.032C22.8814 18.4401 24.1186 21.1141 25.0027 24.0093C25.5325 25.7774 25.8203 27.5892 25.8421 29.4228C25.9314 34.9027 24.0522 39.6088 20.252 43.52C19.6363 44.14 18.9713 44.7091 18.2636 45.2217C17.8866 45.2217 17.711 44.924 17.5562 44.669C17.2585 44.1729 17.0918 43.6302 17.0035 43.0785C16.8706 42.4157 16.7823 41.7529 16.8269 41.0673V40.7577C16.8051 40.6913 16.4737 10.2653 16.6057 10.1105L16.6086 10.1095Z" fill="#599636"/>
<path d="M16.6087 10.0439C16.564 9.95462 16.5194 10.0221 16.4757 10.0657C16.4975 10.5073 16.3428 10.9052 16.0987 11.2812C15.8338 11.6582 15.4795 11.944 15.1263 12.2536C13.1598 13.9552 11.6139 16.01 10.3756 18.308C8.74047 21.4017 7.87924 24.7157 7.63714 28.2072C7.528 29.4673 8.03402 33.9084 8.43289 35.1894C9.51439 38.5927 11.4591 41.4423 13.9892 43.9168C14.6084 44.5122 15.2712 45.0658 15.9558 45.5956C16.1542 45.5956 16.1771 45.419 16.2207 45.2861C16.3078 45.0039 16.3741 44.7157 16.4192 44.4238C16.6176 43.3195 16.7287 42.2142 16.8607 41.1099L16.6176 10.0439H16.6087Z" fill="#6CAC48"/>
<path d="M17.693 46.569C17.7377 46.061 17.9907 45.6413 18.2457 45.2216C17.9808 45.1124 17.7814 44.8902 17.6266 44.6461C17.4936 44.4248 17.3835 44.15 17.2952 43.9168C16.9856 42.9891 16.9181 42.0167 16.8308 41.0662V40.4907C16.7217 40.58 16.6979 41.3301 16.6979 41.4413C16.6314 42.4573 16.4994 43.4525 16.301 44.4238C16.2345 44.8207 16.1918 45.2196 15.9478 45.5728C15.9478 45.6175 15.9478 45.6621 15.9696 45.7276C16.3665 46.8984 16.4776 48.092 16.5451 49.3075V49.749C16.5451 50.2788 16.5232 50.1687 16.9648 50.3443C17.1414 50.4108 17.3418 50.4336 17.5174 50.5656C17.6504 50.5656 17.6722 50.4564 17.6722 50.3671L17.6057 49.6379V47.6038C17.5839 47.2506 17.6504 46.8964 17.695 46.565L17.693 46.569Z" fill="#C2BFBF"/>
<path d="M34.4718 37.3281V39.4324C34.4695 39.5158 34.4742 39.5991 34.486 39.6817C34.5134 39.9309 34.6664 40.0829 34.8913 40.1528C35.1012 40.208 35.3144 40.2497 35.5296 40.2774C35.6542 40.2916 35.6957 40.3463 35.7099 40.4801C35.7241 40.9512 35.6826 41.0069 35.2256 40.9785C34.1598 40.9228 33.0929 40.9096 32.0271 40.9785H31.9258C31.5934 40.9927 31.5661 40.9643 31.5661 40.632C31.5661 40.5763 31.5803 40.5074 31.5803 40.4517C31.5803 40.3504 31.6492 40.2997 31.7464 40.2997C31.9693 40.2724 32.176 40.2166 32.3847 40.1751C32.6755 40.1062 32.8406 39.9258 32.869 39.6351C32.9095 39.3169 32.9095 38.9846 32.9095 38.6655L32.9237 34.9553C32.9283 34.8476 32.9021 34.741 32.8483 34.6477C32.7945 34.5544 32.7152 34.4783 32.6198 34.4284C32.3692 34.2892 32.1042 34.1778 31.8295 34.0961C31.7464 34.0687 31.6634 34.0556 31.5945 34.013C31.3918 33.9158 31.3868 33.7364 31.5803 33.625C31.6492 33.5844 31.7322 33.5561 31.8153 33.5419C32.6556 33.4179 33.4811 33.2091 34.2793 32.9188C34.4455 32.8631 34.487 32.8783 34.5022 33.0434C34.5164 33.1447 34.5022 33.2663 34.4881 33.3616C34.4607 33.5419 34.4607 33.7212 34.4607 33.8884C34.4607 33.9573 34.4749 34.0272 34.5438 34.0687C34.6127 34.1103 34.6826 34.0687 34.7464 34.0282C35.0372 33.8053 35.328 33.5986 35.6461 33.4203C36.102 33.1711 36.5883 32.9492 37.1152 32.8803C37.7535 32.7972 38.3057 32.9634 38.791 33.3788C38.9916 33.5584 39.1684 33.763 39.3168 33.9877C39.4556 34.1903 39.4688 34.1954 39.6491 34.0566C40.176 33.6685 40.7292 33.3231 41.3249 33.0738C41.948 32.8104 42.5853 32.7699 43.2215 32.9907C43.872 33.2258 44.3158 33.6827 44.5792 34.3058C44.8021 34.8043 44.8973 35.319 44.8973 35.856V39.5662C44.8973 39.8154 44.9986 39.9714 45.2438 40.093C45.5072 40.1943 45.798 40.245 46.0746 40.3007C46.255 40.3412 46.255 40.3412 46.255 40.5236C46.2276 40.9795 46.1861 41.0079 45.7423 40.9795C44.631 40.9173 43.5172 40.9173 42.4059 40.9795C42.183 40.9937 42.183 40.9937 42.1709 40.7718V40.7029C42.1567 40.3281 42.1567 40.3281 42.5174 40.247L42.8771 40.1498C42.9989 40.1211 43.1076 40.0522 43.1855 39.9542C43.2634 39.8563 43.3061 39.7349 43.3066 39.6097L43.3472 38.5712L43.3198 35.858C43.3092 35.6157 43.2578 35.377 43.1678 35.1518C42.8213 34.3068 42.0605 34.0029 41.3259 34.086C40.7717 34.1417 40.2874 34.3626 39.8305 34.6817C39.7332 34.7506 39.6643 34.8337 39.6785 34.9725C39.8031 35.859 39.719 36.7455 39.7342 37.631V39.556C39.7342 39.9025 39.873 40.0687 40.2053 40.1518L40.8436 40.2906C40.9409 40.3048 40.9956 40.3463 40.9956 40.4567V40.5581C40.9814 40.9461 40.9551 40.9633 40.566 40.9593C39.4586 40.9036 38.3502 40.9188 37.257 40.9593C36.8822 40.9735 36.8518 40.9319 36.869 40.554C36.8832 40.3311 36.9095 40.319 37.1182 40.2774L37.5742 40.1943C37.9794 40.1113 38.1284 39.9593 38.1557 39.5297L38.1962 38.6016L38.1689 35.8185C38.1415 35.472 38.0676 35.1397 37.8781 34.8215C37.6015 34.3089 37.1689 34.0464 36.5762 34.0181C35.9804 33.9776 35.4546 34.1984 34.9551 34.474C34.6086 34.6766 34.4566 34.9168 34.484 35.319V37.3402L34.4718 37.3281ZM60.5578 37.4122V39.3646C60.56 39.5034 60.5692 39.642 60.5852 39.78C60.5911 39.8719 60.6267 39.9594 60.6866 40.0294C60.7465 40.0994 60.8275 40.148 60.9175 40.168C61.1564 40.2376 61.4025 40.2795 61.651 40.2926C61.7898 40.3068 61.8172 40.3615 61.8314 40.473V40.5702C61.8172 41.0545 61.7625 41.1102 61.2913 41.0829C60.2376 41.014 59.187 41.0272 58.1343 41.0829L57.7291 41.0971C57.646 41.0971 57.6277 41.0565 57.6044 40.9998C57.564 40.8081 57.564 40.61 57.6044 40.4182C57.6186 40.3352 57.6733 40.3169 57.7564 40.2936C57.959 40.2663 58.1313 40.2247 58.3238 40.1923C58.6703 40.1092 58.7949 39.9694 58.8081 39.6108L58.8486 38.4476V35.0414C58.8486 34.7921 58.7513 34.6402 58.5305 34.5287C58.2812 34.3899 58.0178 34.2937 57.7402 34.1964C57.6571 34.169 57.574 34.1407 57.5051 34.0991C57.3248 33.9745 57.3025 33.7952 57.4778 33.6564C57.5564 33.5918 57.6529 33.5529 57.7544 33.5449C58.6409 33.4061 59.499 33.2126 60.3298 32.8803C60.4271 32.8398 60.4686 32.8661 60.5102 32.9492C60.5517 33.0323 60.5659 33.1295 60.5507 33.2258L60.5102 33.8762C60.5102 33.9593 60.4697 34.0789 60.5375 34.1113C60.6206 34.167 60.6763 34.0424 60.7452 34.01C61.1541 33.667 61.6057 33.3786 62.0887 33.1518C62.5183 32.9492 62.96 32.8195 63.4595 32.8479C64.3876 32.9036 65.0522 33.3747 65.4808 34.1913C65.7037 34.6209 65.7989 35.091 65.8405 35.5763L65.881 36.5895L65.8952 39.6493C65.9094 39.8843 65.9924 40.0373 66.2275 40.1204C66.4712 40.2016 66.7213 40.2619 66.9752 40.3007C67.1981 40.3281 67.2103 40.3696 67.2244 40.5773V40.6462C67.1971 41.1173 67.1687 41.1305 66.6976 41.1021C65.6646 41.0468 64.6293 41.0468 63.5963 41.1021C63.4575 41.1163 63.3197 41.1021 63.191 41.1163C63.1079 41.1163 63.0522 41.1021 63.0391 41.0191C63.0117 40.8387 62.9833 40.6594 63.0249 40.4649C63.0391 40.3818 63.0806 40.3402 63.1768 40.326L63.8151 40.2247C64.038 40.169 64.1616 40.0221 64.19 39.8195L64.2174 39.4314L64.2032 36.5378C64.2032 36.2055 64.189 35.8732 64.1201 35.5409C63.9539 34.8317 63.4139 34.3251 62.6814 34.2542C62.0431 34.1853 61.4656 34.3514 60.9367 34.6969C60.6733 34.8631 60.5619 35.0981 60.5619 35.3889V37.4801C60.5619 37.4395 60.5619 37.4395 60.576 37.4395L60.5578 37.4122Z" fill="#47474A"/>
<path d="M101.111 33.4932C100.959 32.4821 100.584 31.5824 99.9334 30.7931C99.3666 30.0959 98.633 29.553 97.8006 29.2146C96.9293 28.8549 96.0002 28.7435 95.059 28.7161C94.671 28.702 89.3823 28.785 88.9942 28.7161C88.8969 28.702 88.8281 28.7303 88.7713 28.8134C88.7024 28.9147 88.6325 29.0211 88.591 29.1315C88.4248 29.5064 88.4248 29.478 88.826 29.5327C89.1583 29.5885 89.4765 29.6158 89.7956 29.7131C90.0864 29.8104 90.2941 29.9765 90.363 30.2946C90.3904 30.4466 90.4187 35.3199 90.4187 37.5915L90.363 39.2125C90.3488 39.3371 90.3356 39.4618 90.2941 39.5722C90.2384 39.7384 90.1421 39.8762 89.976 39.9471C89.7931 40.0331 89.596 40.0846 89.3944 40.099C89.0195 40.1396 88.9648 40.1548 88.8402 40.5702L88.7997 40.7221C88.7723 40.9025 88.7855 40.9298 88.9658 40.9298L93.1056 40.9704L94.7267 40.943L95.8483 40.8042C97.1218 40.5692 98.2576 40.0423 99.2262 39.1983C99.7795 38.7097 100.231 38.1168 100.555 37.4537C100.943 36.6786 101.11 35.8326 101.151 34.9755C101.22 34.4912 101.192 33.9927 101.111 33.4942V33.4932ZM99.1026 35.4588C99.0468 36.3453 98.8675 37.2034 98.4106 37.9785C97.829 38.9896 96.9982 39.6958 95.8493 39.944C95.3508 40.0453 94.8523 40.096 94.3295 40.0271C93.9547 39.9866 93.596 39.944 93.2495 39.8194C92.6264 39.5965 92.4045 39.2115 92.3914 38.6036L92.3772 30.2551C92.3772 29.7567 92.6001 29.6472 92.9587 29.632C93.4987 29.5915 94.0529 29.6047 94.593 29.6594C95.1678 29.715 95.732 29.8514 96.2687 30.0647C96.6675 30.2309 97.0369 30.4601 97.363 30.7435C98.1107 31.3818 98.6091 32.1822 98.8827 33.1244C99.1056 33.8863 99.1461 34.6614 99.1056 35.4365L99.1026 35.4588ZM112.618 36.8164C112.618 36.7333 112.618 36.6644 112.604 36.5813C112.479 35.8194 112.077 35.2379 111.455 34.7951C111.054 34.5043 110.597 34.3108 110.126 34.172C110.043 34.1447 109.974 34.1163 109.891 34.1031C109.905 34.0342 109.946 34.0201 109.988 34.0059C110.265 33.8671 110.528 33.7151 110.763 33.5074C111.193 33.1477 111.472 32.704 111.621 32.1639C111.704 31.8732 111.704 31.5824 111.677 31.2774C111.654 30.9207 111.552 30.5736 111.377 30.2619C111.202 29.9502 110.959 29.682 110.666 29.477C110.028 29.0059 109.281 28.8124 108.506 28.7982C107.01 28.7709 105.502 28.7982 104.007 28.7982C103.578 28.7982 103.149 28.8256 102.705 28.7577C102.622 28.7435 102.503 28.7172 102.442 28.8134C102.341 28.9937 102.219 29.1731 102.179 29.3808C102.164 29.478 102.193 29.5328 102.303 29.5469L103.259 29.6857C103.633 29.7415 103.897 29.9492 103.923 30.2815C103.95 30.5111 103.964 30.7422 103.964 30.9735L103.936 33.5621L103.922 38.6847C103.922 38.9886 103.882 39.2804 103.825 39.5844C103.811 39.6809 103.77 39.7714 103.706 39.8451C103.643 39.9187 103.559 39.9725 103.465 39.9998C103.189 40.0828 102.925 40.1659 102.634 40.1659C102.557 40.1585 102.479 40.1778 102.413 40.2205C102.348 40.2632 102.299 40.3268 102.275 40.401C102.219 40.5256 102.173 40.6644 102.15 40.789C102.123 40.9552 102.164 41.0119 102.331 40.9916C102.455 40.9775 107.024 41.0889 107.883 41.0058C108.395 40.9501 108.896 40.8812 109.405 40.7292C110.277 40.4526 111.081 40.0504 111.717 39.3716C112.244 38.8174 112.548 38.1528 112.576 37.3777C112.616 37.1973 112.616 37.018 112.616 36.8235L112.618 36.8164ZM105.903 31.1427L105.943 30.0353C105.943 29.8276 106.027 29.7313 106.234 29.6888C106.567 29.6199 106.899 29.6483 107.231 29.6614C107.563 29.6888 107.882 29.7303 108.214 29.8276C108.822 30.0079 109.294 30.3544 109.572 30.935C109.698 31.1989 109.764 31.4875 109.765 31.7799C109.779 32.168 109.751 32.5419 109.599 32.9147C109.364 33.4274 108.991 33.7597 108.45 33.8569C107.909 33.9542 106.373 33.9127 106.138 33.9127C105.93 33.9127 105.915 33.8853 105.915 33.6776V32.3737C105.883 31.9682 105.878 31.561 105.901 31.1548L105.903 31.1427ZM110.401 38.5915C110.166 39.2146 109.737 39.6451 109.128 39.8782C108.796 40.0028 108.463 40.0808 108.115 40.0585C107.685 40.0443 107.257 40.0585 106.828 39.9754C106.246 39.8508 105.983 39.2966 105.941 38.8954C105.873 38.1892 105.914 37.4689 105.901 36.943V35.1153C105.901 34.8924 105.928 34.8245 106.164 34.8245L107.466 34.8387L108.353 34.94C108.976 35.0788 109.543 35.3149 109.987 35.7982C110.347 36.1862 110.541 36.6563 110.583 37.169C110.623 37.6533 110.597 38.1244 110.417 38.5813L110.401 38.5915Z" fill="#C2BFBF"/>
<path d="M75.2215 34.4203L75.5812 34.476C75.9692 34.4902 76.4262 34.3514 76.564 33.8114C76.6399 33.5534 76.6399 33.279 76.564 33.0211C76.4809 33.0211 76.4393 33.09 76.3978 33.1184C76.1901 33.2845 75.955 33.3818 75.7058 33.4091C75.2073 33.4649 74.7089 33.4365 74.2246 33.2572L73.5457 33.0221C73.0723 32.8671 72.5741 32.8018 72.0766 32.8296C71.3705 32.8853 70.7058 33.1204 70.0827 33.4527C69.4181 33.8124 68.948 34.3524 68.7251 35.0869C68.6005 35.5165 68.5863 35.9583 68.642 36.402C68.7808 37.4132 69.3067 38.1193 70.2479 38.4932C70.3036 38.5074 70.3451 38.5337 70.3999 38.5489C70.5245 38.6178 70.5387 38.6877 70.4272 38.784L70.0807 39.019L69.2499 39.5317C69.0422 39.6563 69.0149 39.7546 69.0838 39.9745C69.1662 40.2331 69.3196 40.4634 69.5265 40.6391C69.7165 40.8021 69.9317 40.9332 70.1638 41.0271C70.3158 41.096 70.3158 41.1284 70.178 41.25L69.3877 41.8174C69.1243 42.02 68.8609 42.2227 68.64 42.482C68.4864 42.6464 68.3757 42.8461 68.3177 43.0635C68.2598 43.2809 68.2563 43.5092 68.3077 43.7282C68.4106 44.2089 68.6623 44.6449 69.027 44.9744C69.3871 45.3078 69.8249 45.5457 70.3006 45.6664C71.0756 45.8893 71.8791 45.9015 72.6683 45.7495C73.8031 45.5418 74.796 45.0403 75.5761 44.1852C76.1161 43.6178 76.4343 42.9532 76.4626 42.1588C76.4929 41.6994 76.3592 41.2442 76.0854 40.8741C75.8115 40.504 75.4153 40.243 74.9672 40.1376L74.2195 39.9988L71.9348 39.7961C71.6856 39.7819 71.4363 39.7404 71.2286 39.6158C70.9652 39.4496 70.8963 39.1315 71.0625 38.9238C71.1871 38.7718 71.3391 38.6746 71.5336 38.6604L71.9763 38.6199C72.8519 38.5308 73.674 38.1563 74.3157 37.554C74.6584 37.2368 74.9034 36.8284 75.0219 36.3767C75.1881 35.781 75.1881 35.1609 75.0493 34.553C75.0087 34.401 75.0219 34.3868 75.2154 34.4142L75.2215 34.4203ZM71.8274 41.3169C71.9105 41.3311 71.9936 41.3169 72.0766 41.3169C72.6582 41.3443 73.2539 41.3858 73.8213 41.5398C74.0066 41.5945 74.1871 41.664 74.3613 41.7475C74.9155 42.0514 75.1232 42.5783 75.0533 43.1457C74.9702 43.7688 74.6237 44.2115 74.0837 44.5033C73.7241 44.7059 73.3218 44.7941 72.9064 44.8356C72.7545 44.8498 72.6156 44.8356 72.4637 44.8356C71.9794 44.8498 71.5083 44.7951 71.0513 44.6006C70.7332 44.4759 70.4698 44.2966 70.2347 44.0464C69.7504 43.5621 69.5255 42.6756 70.2489 41.9552C70.6916 41.5499 71.1911 41.2632 71.8274 41.3169ZM73.4059 36.9968C73.1151 37.7303 72.4779 37.9522 71.8416 37.8549C71.26 37.7718 70.8305 37.4537 70.5549 36.9269C70.1952 36.2207 70.0989 35.4882 70.3056 34.7252C70.4576 34.1579 70.8041 33.7283 71.413 33.631C72.1881 33.4922 72.9328 33.7698 73.3239 34.5449C73.5265 34.9198 73.6146 35.3757 73.6146 36.0262C73.6004 36.2896 73.5457 36.6492 73.4069 36.9957L73.4059 36.9968ZM55.9612 36.0545C55.8366 35.3068 55.56 34.628 55.0474 34.0606C54.2855 33.2156 53.3169 32.8448 52.2227 32.8418C51.2672 32.8276 50.3686 33.1052 49.5641 33.6037C48.7733 34.0769 48.1936 34.835 47.9441 35.7222C47.709 36.5256 47.7212 37.3433 47.9035 38.1589C48.3878 40.3473 50.0778 41.2875 52.098 41.1497C52.6938 41.1092 53.2612 40.9147 53.8002 40.6512C54.6036 40.2764 55.1852 39.6816 55.5864 38.8924C55.9045 38.2419 56.0423 37.5489 56.0291 36.7597L55.9602 36.0535L55.9612 36.0545ZM53.9957 39.1285C53.8967 39.44 53.709 39.7159 53.4557 39.9225C53.2023 40.1291 52.8943 40.2573 52.5692 40.2916C51.9613 40.3747 51.3919 40.2227 50.8802 39.862C50.5108 39.5903 50.2118 39.2342 50.0079 38.8235C49.4405 37.6604 49.3432 36.4426 49.633 35.1964C49.7263 34.8107 49.9281 34.4598 50.2146 34.1852C50.7272 33.7141 51.322 33.6037 51.9876 33.7425C52.6259 33.8813 53.1092 34.2268 53.5074 34.7536C53.9055 35.2805 54.0889 35.8884 54.1993 36.5267C54.2551 36.8448 54.2551 37.1771 54.2682 37.3848C54.2682 38.0494 54.2125 38.6006 54.0048 39.1295L53.9957 39.1285ZM86.2144 36.166C86.113 35.3625 85.8131 34.629 85.2448 34.0201C84.497 33.2035 83.5274 32.857 82.4484 32.8428C81.5204 32.8286 80.6622 33.092 79.873 33.549C78.9864 34.0758 78.3775 34.8225 78.1425 35.8336C77.8618 36.9368 77.9794 38.1036 78.4748 39.1285C78.9307 40.0981 79.7068 40.7212 80.7321 40.9977C81.8669 41.3017 82.9479 41.1639 83.9996 40.6512C84.9134 40.2085 85.5639 39.5165 85.9378 38.5743C86.1607 38.0201 86.2417 37.4253 86.2559 36.7323C86.2701 36.6077 86.2417 36.3858 86.2154 36.165L86.2144 36.166ZM84.3035 38.9491C84.0806 39.6968 83.6115 40.1811 82.8223 40.2926C82.2407 40.3757 81.6875 40.2369 81.188 39.9045C80.7585 39.6138 80.4545 39.2257 80.2326 38.7698C79.9834 38.2855 79.8446 37.7728 79.7899 37.247C79.7068 36.5966 79.7068 35.9603 79.8588 35.3088C79.8877 35.1804 79.9295 35.0551 79.9834 34.935C80.3714 33.9654 81.2296 33.5226 82.2407 33.7445C82.9195 33.8965 83.4312 34.2713 83.8192 34.8387C84.1941 35.3929 84.3734 36.0018 84.4575 36.6624C84.4981 36.9258 84.5132 37.2024 84.4981 37.4375C84.4981 37.9775 84.4575 38.476 84.2954 38.9603L84.3035 38.9491Z" fill="#47474A"/>
</svg>
