<svg width="120" height="60" viewBox="0 0 120 60" fill="none" xmlns="http://www.w3.org/2000/svg">
<path fill-rule="evenodd" clip-rule="evenodd" d="M18.0468 44.926H20.8366V33.8742L25.1934 43.5099C25.6869 44.6682 26.3959 45.0972 27.7687 45.0972C29.1414 45.0972 29.8081 44.6677 30.3179 43.5099L34.6531 33.8742V44.926H37.4646V33.8742C37.4646 32.8016 37.035 32.2855 36.1336 32.0065C34.0091 31.3629 32.5926 31.9209 31.949 33.3581L27.6787 42.8866L23.558 33.3581C22.9356 31.9209 21.4975 31.3629 19.3517 32.0065C18.4715 32.2855 18.0425 32.8011 18.0425 33.8742L18.042 44.926H18.0468ZM39.7868 35.9343H42.5982V42.0078C42.577 42.3508 42.7055 43.1237 44.2336 43.1444C45.0272 43.166 50.2855 43.1444 50.3278 43.1444V35.891H53.1392V45.8274C53.1392 48.2737 50.1089 48.8096 48.6967 48.8317H39.8561V46.9654H48.7193C50.5221 46.7721 50.3076 45.8711 50.3076 45.5705V44.8404H44.3625C41.5939 44.8187 39.8123 43.5956 39.7916 42.2007V35.9333L39.7868 35.9343ZM100.091 28.8949C98.3748 28.8516 97.0434 29.0238 95.9275 29.4962C95.6062 29.626 95.0906 29.626 95.0483 30.033C95.22 30.2037 95.2407 30.4832 95.3912 30.7198C95.6485 31.1493 96.0997 31.728 96.5071 32.0281C96.9583 32.372 97.409 32.715 97.8803 33.0156C98.7173 33.5303 99.6615 33.8309 100.477 34.346C100.949 34.6467 101.421 35.0329 101.893 35.3552C102.134 35.5269 102.28 35.8063 102.58 35.9131V35.8482C102.43 35.6558 102.387 35.3768 102.237 35.1613C102.022 34.9473 101.808 34.7534 101.593 34.5394C100.971 33.7025 100.198 32.9723 99.3609 32.372C98.674 31.8997 97.1723 31.2561 96.8933 30.4625L96.851 30.4192C97.3224 30.3759 97.8803 30.2042 98.3315 30.0753C99.0617 29.8829 99.7264 29.9252 100.477 29.7323C100.821 29.6458 101.164 29.539 101.508 29.4317V29.2393C101.121 28.8531 100.842 28.3379 100.435 27.9733C99.3407 27.0292 98.1382 26.1061 96.8933 25.3336C96.2281 24.9046 95.3696 24.6251 94.6615 24.261C94.4032 24.1321 93.9747 24.0677 93.8246 23.8531C93.4374 23.3818 93.2234 22.7589 92.9444 22.2004C92.3225 21.0201 91.7212 19.7113 91.1849 18.4665C90.7987 17.6296 90.562 16.7926 90.0906 16.0201C87.88 12.3718 85.476 10.1616 81.7848 7.99379C80.9912 7.5431 80.047 7.34926 79.0432 7.11357L77.4338 7.02699C77.0898 6.87692 76.7469 6.46904 76.4463 6.27568C75.2231 5.5032 72.0683 3.82934 71.1664 6.03999C70.5868 7.43487 72.025 8.80811 72.5132 9.51662C72.8787 10.0101 73.3501 10.5681 73.6084 11.126C73.7527 11.4906 73.8008 11.8773 73.9514 12.2636C74.2943 13.2078 74.6166 14.2597 75.0673 15.1399C75.3078 15.5906 75.5603 16.0634 75.8609 16.4708C76.0326 16.7065 76.3332 16.8143 76.3972 17.2005C76.0966 17.63 76.0759 18.2731 75.9042 18.8104C75.1312 21.2356 75.4319 24.2399 76.5261 26.0205C76.87 26.5568 77.6805 27.7377 78.7801 27.2865C79.7459 26.9002 79.5304 25.6771 79.8094 24.604C79.8743 24.3466 79.831 24.1749 79.9595 24.0027V24.046L80.8397 25.8271C81.5049 26.8786 82.6641 27.9733 83.6294 28.7035C84.1441 29.0897 84.552 29.7554 85.1956 29.9911V29.9262H85.1532C85.0243 29.7338 84.831 29.6472 84.6593 29.4971C84.273 29.1109 83.844 28.6386 83.5434 28.2095C82.6424 27.008 81.8488 25.6771 81.1403 24.3038C80.7964 23.6386 80.4958 22.9089 80.2178 22.2437C80.0879 21.9859 80.0879 21.5992 79.8738 21.4713C79.5516 21.9426 79.0802 22.3515 78.8431 22.9306C78.4352 23.8531 78.3929 24.9907 78.2428 26.1711C78.1562 26.1927 78.1947 26.1711 78.1562 26.2143C77.4703 26.0431 77.2337 25.3341 76.9763 24.7338C76.3328 23.2101 76.225 20.7637 76.783 19.0038C76.933 18.5531 77.5776 17.1365 77.3202 16.7075C77.1904 16.2996 76.7623 16.0639 76.5256 15.7416C76.2467 15.3338 75.947 14.8191 75.7536 14.3684C75.239 13.1659 74.9816 11.836 74.4232 10.634C74.1649 10.076 73.7147 9.49641 73.3496 8.98175C72.9417 8.40215 72.492 7.99427 72.1698 7.30789C72.0625 7.0722 71.9124 6.68548 72.0841 6.42767C72.1265 6.25595 72.213 6.19198 72.3838 6.14869C72.6628 5.91301 73.4574 6.21314 73.7363 6.34109C74.53 6.66336 75.1952 6.9635 75.8604 7.41371C76.161 7.62823 76.4833 8.03611 76.8695 8.14386H77.3207C78.0076 8.29393 78.7796 8.18715 79.4227 8.37955C80.5602 8.7451 81.59 9.28093 82.5135 9.86101C85.3245 11.6421 87.6429 14.1746 89.209 17.201C89.4663 17.6945 89.5736 18.1452 89.8102 18.6603C90.2614 19.7123 90.8194 20.7849 91.2691 21.8156C91.7203 22.8243 92.1493 23.8551 92.7929 24.692C93.1151 25.1427 94.4023 25.3784 94.9814 25.6145C95.4109 25.8069 96.0757 25.9801 96.4629 26.2158C97.1921 26.6665 97.9217 27.1816 98.6081 27.6751C98.951 27.932 100.025 28.4688 100.089 28.8969L100.091 28.8949ZM78.2058 10.2458C77.9093 10.2432 77.6137 10.2792 77.3265 10.3531V10.3964H77.3688C77.5405 10.7398 77.8412 10.976 78.0557 11.2766L78.5497 12.3069L78.592 12.2636C78.8926 12.0491 79.0432 11.7056 79.0432 11.191C78.9143 11.0409 78.8931 10.8903 78.7858 10.7403C78.6569 10.5257 78.3779 10.418 78.2058 10.2468V10.2458Z" fill="#00678C"/>
<path fill-rule="evenodd" clip-rule="evenodd" d="M55.2817 44.926H63.3509C64.2951 44.926 65.197 44.7336 65.9261 44.3897C67.1493 43.8317 67.7289 43.0814 67.7289 42.0939V40.0338C67.7289 39.2402 67.0637 38.4884 65.7338 37.9737C65.0469 37.7164 64.1883 37.5658 63.3514 37.5658H59.9604C58.8228 37.5658 58.2865 37.2219 58.136 36.4716C58.1148 36.3859 58.1148 36.2998 58.1148 36.2142V34.9478C58.1148 34.8828 58.1148 34.7977 58.136 34.7121C58.286 34.1325 58.5867 33.9819 59.5789 33.8751H67.841V32.0074H59.9863C58.8488 32.0074 58.248 32.0724 57.7112 32.2441C56.0585 32.7588 55.3289 33.5745 55.3289 35.0117V36.6438C55.3289 37.9088 56.7454 38.9828 59.1489 39.2402C59.4063 39.2618 59.6852 39.2618 59.9642 39.2618H62.8617C62.969 39.2618 63.0758 39.2618 63.1614 39.2835C64.0416 39.3691 64.4279 39.5191 64.6852 39.8404C64.8569 40.0122 64.9002 40.1627 64.9002 40.3561V41.9866C64.9002 42.179 64.7713 42.4378 64.5139 42.6519C64.2566 42.8659 63.8478 43.0164 63.3115 43.0381C63.2042 43.0381 63.1407 43.0597 63.0325 43.0597H55.2817V44.926ZM85.1972 41.686C85.1972 43.5956 86.6402 44.6682 89.5117 44.8837C89.7907 44.9053 90.048 44.926 90.327 44.926H97.6237V43.0597H90.263C88.631 43.0597 88.0091 42.6519 88.0091 41.6649V32.0074H85.1919V41.6865L85.1972 41.686ZM69.5096 41.7712V35.119C69.5096 33.4235 70.7111 32.3927 73.0511 32.0714C73.3085 32.0498 73.5658 32.0281 73.8015 32.0281H79.1232C79.4022 32.0281 79.6388 32.0498 79.9178 32.0714C82.2569 32.3927 83.4368 33.423 83.4368 35.119V41.7712C83.4368 43.1444 82.9437 43.8745 81.7841 44.3685L84.5305 46.8572H81.2906L79.0587 44.8404L76.8048 44.9693H73.8005C73.25 44.9665 72.702 44.8946 72.1695 44.7552C70.3898 44.2608 69.5096 43.3171 69.5096 41.7712ZM72.535 41.622C72.535 41.7077 72.5831 41.7928 72.5999 41.901C72.75 42.673 73.4792 43.1025 74.5951 43.1025H77.128L74.8106 40.9992H78.0506L80.089 42.8452C80.4762 42.6302 80.7119 42.3296 80.7975 41.9433C80.8192 41.8577 80.8192 41.751 80.8192 41.6644V35.2902C80.8192 35.2046 80.8192 35.1195 80.7975 35.0329C80.6475 34.3037 79.9183 33.8963 78.8235 33.8963H74.5956C73.3508 33.8963 72.5355 34.4326 72.5355 35.2902L72.535 41.622Z" fill="#CE8B2C"/>
</svg>
