<svg width="120" height="60" viewBox="0 0 120 60" fill="none" xmlns="http://www.w3.org/2000/svg">
<path d="M106.081 25.368C105.812 25.368 105.55 25.4236 105.319 25.5547L97.9905 29.7866C97.5163 30.0597 97.228 30.5759 97.228 31.1248V39.5735C97.228 40.1222 97.5163 40.6375 97.9905 40.9115L99.9043 42.0143C100.834 42.4728 101.177 42.4654 101.6 42.4654C102.977 42.4654 103.763 41.6301 103.763 40.1782V31.8429C103.763 31.7251 103.661 31.6407 103.545 31.6407H102.627C102.509 31.6407 102.409 31.7272 102.409 31.8429V40.1825C102.409 40.826 101.739 41.4735 100.651 40.9294L98.6617 39.7625C98.5915 39.7243 98.5372 39.6544 98.5372 39.5759V31.1271C98.5372 31.0471 98.5908 30.9654 98.6617 30.9249L105.975 26.7081C106.043 26.6688 106.125 26.6688 106.192 26.7081L113.505 30.9249C113.575 30.9667 113.63 31.0445 113.63 31.1271V39.5759C113.63 39.6566 113.589 39.7392 113.521 39.7781L106.193 43.9949C106.128 44.0323 106.041 44.0323 105.975 43.9949L104.092 42.8748C104.036 42.8419 103.96 42.8445 103.906 42.8748C103.386 43.1693 103.288 43.2035 102.801 43.3726C102.681 43.4143 102.498 43.4794 102.863 43.684L105.322 45.1328C105.555 45.2682 105.816 45.335 106.084 45.335C106.355 45.335 106.612 45.2701 106.846 45.1328L114.175 40.916C114.649 40.6401 114.937 40.1267 114.937 39.5781V31.1293C114.937 30.5805 114.649 30.0654 114.175 29.7912L106.846 25.5592C106.617 25.4282 106.353 25.3726 106.084 25.3726L106.081 25.368ZM108.042 31.4052C105.955 31.4052 104.712 32.2934 104.712 33.7701C104.712 35.3703 105.946 35.8124 107.948 36.0104C110.345 36.2451 110.531 36.5969 110.531 37.0685C110.531 37.8866 109.879 38.2354 108.338 38.2354C106.401 38.2354 105.975 37.7519 105.833 36.7865C105.816 36.6832 105.736 36.5999 105.63 36.5999H104.679C104.621 36.6012 104.567 36.6245 104.526 36.6651C104.486 36.7057 104.462 36.7603 104.461 36.8177C104.461 38.0509 105.132 39.5093 108.335 39.5093C110.654 39.5093 111.992 38.6011 111.992 37.0043C111.992 35.4257 110.911 34.999 108.662 34.7013C106.392 34.3985 106.173 34.2536 106.173 33.721C106.173 33.2816 106.356 32.6939 108.04 32.6939C109.543 32.6939 110.099 33.0182 110.327 34.032C110.347 34.1271 110.431 34.205 110.529 34.205H111.481C111.539 34.205 111.596 34.1691 111.636 34.1271C111.676 34.0824 111.704 34.032 111.699 33.9714C111.552 32.2255 110.387 31.4042 108.042 31.4042L108.042 31.4052Z" fill="#83CD29"/>
<path d="M62.9978 14.2924C62.916 14.2925 62.8356 14.314 62.7645 14.3547C62.6938 14.396 62.6351 14.4551 62.5942 14.526C62.5533 14.597 62.5316 14.6774 62.5312 14.7593V26.662C62.5312 26.7787 62.4767 26.8834 62.3755 26.942C62.3259 26.9709 62.2695 26.9861 62.2121 26.9861C62.1547 26.9861 62.0983 26.9709 62.0487 26.942L60.1038 25.8218C59.9619 25.7398 59.8009 25.6965 59.637 25.6965C59.4731 25.6965 59.3121 25.7398 59.1703 25.8218L51.4066 30.3027C51.1164 30.4701 50.9395 30.7923 50.9395 31.1272V40.0892C50.9392 40.2532 50.9823 40.4143 51.0643 40.5564C51.1462 40.6984 51.2642 40.8163 51.4063 40.8982L59.1703 45.3792C59.3121 45.4615 59.4731 45.5049 59.637 45.5049C59.801 45.5049 59.962 45.4615 60.1038 45.3792L67.8677 40.8982C68.0098 40.8163 68.1278 40.6984 68.2098 40.5564C68.2918 40.4143 68.3348 40.2532 68.3346 40.0892V17.7465C68.3346 17.4066 68.1491 17.0876 67.8524 16.922L63.2314 14.3389C63.1587 14.2985 63.0783 14.2913 62.9978 14.2922V14.2924ZM13.0534 25.4793C12.9052 25.4854 12.7662 25.5111 12.6332 25.5883L4.8695 30.0691C4.72727 30.1509 4.60919 30.2687 4.52724 30.4108C4.44528 30.5529 4.40236 30.7141 4.40284 30.8781L4.41862 42.9056C4.41862 43.073 4.50512 43.2282 4.65217 43.31C4.79641 43.3965 4.97524 43.3965 5.11883 43.31L9.72425 40.6648C10.0162 40.4918 10.2065 40.19 10.2065 39.8561V34.239C10.2065 33.9039 10.3827 33.5968 10.6736 33.4303L12.6341 32.2945C12.7757 32.2122 12.9369 32.1692 13.1007 32.17C13.2647 32.169 13.4259 32.212 13.5676 32.2945L15.5272 33.4296C15.8177 33.5961 15.9939 33.9036 15.9939 34.2384V39.8552C15.9939 40.1895 16.1885 40.4931 16.4761 40.664L21.0816 43.3091C21.2264 43.3956 21.4048 43.3956 21.5482 43.3091C21.6909 43.2269 21.7818 43.0719 21.7818 42.9047L21.7973 30.8777C21.7983 30.7136 21.7555 30.5522 21.6735 30.41C21.5915 30.2679 21.4732 30.1501 21.3307 30.0687L13.567 25.5881C13.4357 25.5111 13.296 25.4851 13.1468 25.4791H13.0538L13.0534 25.4793ZM82.8199 25.5883C82.656 25.5878 82.4949 25.6308 82.3531 25.7128L74.5891 30.1939C74.2994 30.3615 74.122 30.6679 74.122 31.0027V39.9646C74.122 40.3015 74.3119 40.6069 74.6043 40.7734L82.3059 45.1632C82.5903 45.3254 82.9373 45.3377 83.2239 45.1783L87.8916 42.5799C88.0397 42.4977 88.1398 42.3442 88.1403 42.1755C88.1407 42.0069 88.0531 41.8551 87.9067 41.7712L80.0959 37.2901C79.9497 37.2066 79.8472 37.0377 79.8472 36.8699V34.0676C79.8472 33.9002 79.951 33.7466 80.0959 33.6632L82.523 32.2628C82.6675 32.1793 82.8448 32.1793 82.9901 32.2628L85.4184 33.6632C85.4894 33.704 85.5485 33.7629 85.5895 33.834C85.6304 33.905 85.6519 33.9856 85.6517 34.0676V36.277C85.6515 36.3589 85.6729 36.4395 85.7139 36.5106C85.7549 36.5816 85.8139 36.6405 85.885 36.6813C86.0305 36.7652 86.2068 36.7657 86.3521 36.6813L91.004 33.9746C91.2927 33.8068 91.4711 33.4995 91.4711 33.1658V31.0033C91.4711 30.8394 91.428 30.6783 91.346 30.5363C91.2641 30.3943 91.1462 30.2764 91.0042 30.1944L83.287 25.7133C83.1452 25.6312 82.9841 25.5882 82.8201 25.5887L82.8199 25.5883ZM59.6058 32.279C59.6492 32.2788 59.692 32.2894 59.7303 32.3099L62.3908 33.8502C62.4631 33.892 62.5154 33.9692 62.5154 34.0524V37.1331C62.5154 37.2168 62.4635 37.2938 62.3908 37.3353L59.7303 38.8756C59.6579 38.9167 59.5695 38.9167 59.4968 38.8756L56.8363 37.3353C56.7639 37.2935 56.7118 37.2163 56.7118 37.1331V34.052C56.7118 33.9685 56.7641 33.892 56.8363 33.8498L59.4968 32.3097C59.5331 32.2887 59.5651 32.2788 59.6058 32.2788V32.2785V32.279Z" fill="#404137"/>
<path d="M36.3766 25.5414C36.2127 25.5411 36.0516 25.584 35.9095 25.6659L28.1456 30.1314C27.8554 30.2988 27.679 30.6212 27.679 30.956V39.9179C27.6785 40.0819 27.7215 40.2431 27.8034 40.3851C27.8854 40.5272 28.0034 40.645 28.1456 40.7267L35.9095 45.2078C36.0513 45.29 36.2124 45.3334 36.3763 45.3334C36.5403 45.3334 36.7013 45.29 36.8431 45.2078L44.607 40.7267C44.7491 40.6448 44.8671 40.5269 44.9491 40.3849C45.0311 40.2429 45.0741 40.0817 45.0739 39.9177V30.9558C45.0739 30.6206 44.8974 30.2984 44.6068 30.1312L36.8429 25.6657C36.701 25.5834 36.5398 25.5404 36.3758 25.5411L36.3766 25.5414ZM82.8049 33.5388C82.774 33.5388 82.7396 33.5388 82.7115 33.554L81.2179 34.4254C81.1901 34.4409 81.1668 34.4634 81.1504 34.4907C81.134 34.518 81.1251 34.5491 81.1245 34.5809V36.2925C81.1245 36.357 81.1619 36.4158 81.2179 36.4482L82.7115 37.3039C82.7372 37.3198 82.7668 37.3282 82.7969 37.3282C82.8271 37.3282 82.8567 37.3198 82.8823 37.3039L84.376 36.4482C84.4313 36.4164 84.4694 36.357 84.4694 36.2925V34.5809C84.4694 34.5165 84.4315 34.4577 84.376 34.4252L82.8823 33.5538C82.8547 33.5373 82.8356 33.5386 82.8045 33.5386L82.8049 33.5388Z" fill="#83CD29"/>
</svg>
