<svg width="261" height="60" viewBox="0 0 261 60" fill="none" xmlns="http://www.w3.org/2000/svg">
<path d="M34.6668 39.2512C34.9521 37.2393 34.8663 36.9439 36.6346 37.2698L37.0845 37.3038C38.4444 37.3564 40.2229 37.1187 41.2679 36.707C43.5174 35.8225 44.8502 34.3454 42.6329 34.7333C37.5735 35.6179 37.2254 34.1646 37.2254 34.1646C42.5675 27.4456 44.801 18.9159 42.874 16.8276C37.6066 11.1341 28.4665 13.8352 28.3052 13.9057C27.3052 13.73 26.1864 13.6256 24.93 13.6086C22.6405 13.5763 20.9037 14.1179 19.5854 14.9643C19.5854 14.9643 3.3494 9.29365 4.10492 22.095C4.26621 24.8182 8.71018 42.7002 14.0098 37.2987C15.947 35.3233 17.8197 33.6536 17.8197 33.6536C18.7962 34.2004 19.9141 34.4423 21.0293 34.3479L21.1193 34.2826C21.0913 34.5288 21.1024 34.7665 21.1558 35.0517C19.7908 36.3445 20.1915 36.5712 17.4614 37.0483C14.7 37.5305 16.3222 38.3895 17.3816 38.6145C18.666 38.8861 21.6372 39.2724 23.6448 36.8912L23.565 37.1629C24.0998 37.5262 24.0641 39.7732 24.1405 41.3793C24.2169 42.9855 24.3443 44.4838 24.7297 45.3675C25.1151 46.2512 25.5718 48.5253 29.1592 47.8751C32.1575 47.3301 34.4504 46.5466 34.6601 39.2546" fill="#231F20"/>
<path d="M34.6668 39.2512C34.9521 37.2393 34.8663 36.9439 36.6346 37.2698L37.0845 37.3038C38.4444 37.3564 40.2229 37.1187 41.2679 36.707C43.5174 35.8225 44.8502 34.3454 42.6329 34.7333C37.5735 35.6179 37.2254 34.1646 37.2254 34.1646C42.5675 27.4456 44.801 18.9159 42.874 16.8276C37.6066 11.1341 28.4665 13.8352 28.3052 13.9057C27.3052 13.73 26.1864 13.6256 24.93 13.6086C22.6405 13.5763 20.9037 14.1179 19.5854 14.9643C19.5854 14.9643 3.3494 9.29365 4.10492 22.095C4.26621 24.8182 8.71018 42.7002 14.0098 37.2987C15.947 35.3233 17.8197 33.6536 17.8197 33.6536C18.7962 34.2004 19.9141 34.4423 21.0293 34.3479L21.1193 34.2826C21.0913 34.5288 21.1023 34.7665 21.1558 35.0517C19.7908 36.3445 20.1915 36.5712 17.4614 37.0483C14.7 37.5305 16.3222 38.3895 17.3816 38.6145C18.666 38.8861 21.6372 39.2724 23.6448 36.8912L23.565 37.1629C24.0998 37.5262 24.0641 39.7732 24.1405 41.3793C24.2169 42.9855 24.3443 44.4838 24.7297 45.3675C25.1151 46.2512 25.5718 48.5253 29.1592 47.8751C32.1575 47.3301 34.4504 46.5466 34.6601 39.2546" stroke="#231F20" stroke-width="3.48726"/>
<path d="M42.6318 34.7324C37.5724 35.6169 37.2243 34.1636 37.2243 34.1636C42.5664 27.4438 44.7999 18.9141 42.8729 16.8266C37.6148 11.1331 28.4654 13.8351 28.3041 13.9056C27.3041 13.7299 26.1853 13.6255 24.9281 13.6085C22.6386 13.5771 20.9018 14.1178 19.5843 14.9642C19.5843 14.9642 3.34745 9.29354 4.10296 22.0949C4.26425 24.8181 8.70737 42.701 14.0079 37.2986C15.9451 35.3232 17.8169 33.6534 17.8169 33.6534C18.7934 34.2003 19.9113 34.4422 21.0265 34.3478L21.1174 34.2825C21.0894 34.5287 21.1021 34.7663 21.1539 35.0516C19.7889 36.3444 20.1895 36.5711 17.4612 37.0482C14.6989 37.5303 16.322 38.3894 17.3814 38.6144C18.6658 38.886 21.6369 39.2723 23.6445 36.8911L23.5647 37.1628C24.0995 37.5261 24.4756 39.5253 24.4136 41.3393C24.3517 43.1534 24.3084 44.3954 24.7303 45.3682C25.1522 46.341 25.5724 48.5261 29.1615 47.8758C32.1598 47.3308 33.7141 45.92 33.9297 43.5651C34.0826 41.8911 34.4306 42.139 34.4518 40.6424L34.7303 39.9344C35.0511 37.6653 34.7812 36.9336 36.6284 37.274L37.0783 37.3079C38.4382 37.3606 40.2175 37.1229 41.2617 36.7112C43.5112 35.8266 44.844 34.3495 42.6267 34.7375L42.6318 34.7324Z" fill="#417BA2"/>
<path d="M19.5095 23.687C19.4806 23.861 19.8856 24.3236 20.4127 24.3865C20.9399 24.4493 21.389 24.0859 21.4187 23.9128C21.4484 23.7396 21.0435 23.5477 20.5154 23.4849C19.9874 23.4221 19.5375 23.5138 19.5095 23.687Z" fill="white"/>
<path d="M35.5461 23.3329C35.575 23.5069 35.1709 23.9696 34.6429 24.0324C34.1149 24.0952 33.6649 23.7319 33.6361 23.557C33.6072 23.3821 34.0121 23.192 34.5393 23.1292C35.0665 23.0663 35.5155 23.1572 35.5452 23.3312L35.5461 23.3329Z" fill="white"/>
<path d="M19.5095 23.687C19.4806 23.861 19.8856 24.3236 20.4127 24.3865C20.9399 24.4493 21.389 24.0859 21.4187 23.9128C21.4484 23.7396 21.0435 23.5477 20.5154 23.4849C19.9874 23.4221 19.5375 23.5138 19.5095 23.687Z" stroke="white" stroke-width="0.193548"/>
<path d="M35.5461 23.3329C35.575 23.5069 35.1709 23.9696 34.6429 24.0324C34.1149 24.0952 33.6649 23.7319 33.6361 23.557C33.6072 23.3821 34.0121 23.192 34.5393 23.1292C35.0665 23.0663 35.5155 23.1572 35.5452 23.3312L35.5461 23.3329Z" stroke="white" stroke-width="0.193548"/>
<path d="M29.5121 47.9321L29.6159 48.5038L29.616 48.5038L29.5121 47.9321ZM34.0741 44.0051L34.6435 44.1208L34.644 44.1181L34.0741 44.0051ZM35.181 36.5628L35.7608 36.5241L35.7608 36.5239L35.181 36.5628ZM4.07494 22.0459L3.4949 22.0805L3.495 22.082L4.07494 22.0459ZM13.9815 37.2411L13.5667 36.8343L13.5665 36.8344L13.9815 37.2411ZM42.8474 16.7743L43.2744 16.3802L43.2743 16.3801L42.8474 16.7743ZM42.5979 34.6784L42.6978 35.2508L42.6981 35.2508L42.5979 34.6784ZM41.2312 36.6529L41.4439 37.1937L41.444 37.1936L41.2312 36.6529ZM37.1888 34.1113L36.6266 34.2584L36.6266 34.2585L37.1888 34.1113ZM35.2872 31.5248L34.7647 31.7789L34.7648 31.7792L35.2872 31.5248ZM37.4282 22.1292L37.35 22.705L37.44 22.7172L37.5294 22.7014L37.4282 22.1292ZM24.8985 13.552L24.9065 12.9709L24.8985 13.552ZM21.1276 34.9968L21.5269 35.4189L21.9609 35.0083L21.5385 34.5859L21.1276 34.9968ZM17.4332 36.9934L17.3332 36.421L17.3329 36.421L17.4332 36.9934ZM17.3534 38.5596L17.2327 39.128L17.2332 39.1281L17.3534 38.5596ZM23.6165 36.8346L24.0609 37.209L24.061 37.2089L23.6165 36.8346ZM22.7736 34.6563L22.5809 35.2045L22.5817 35.2048L22.7736 34.6563ZM21.1267 34.9959L20.7276 34.5736L20.2933 34.9842L20.7159 35.4068L21.1267 34.9959ZM21.7965 32.2515L21.2643 32.0181L21.2641 32.0186L21.7965 32.2515ZM22.8151 24.0367L23.3782 23.8933L23.3782 23.8931L22.8151 24.0367ZM15.3219 28.7566L14.7486 28.6619L14.7486 28.6619L15.3219 28.7566ZM37.0289 25.8744L37.6096 25.8965L37.6096 25.8964L37.0289 25.8744ZM28.2093 13.9434L28.0777 14.5094L28.2093 13.9434ZM23.2887 36.014C23.2187 38.1372 23.227 40.2722 23.3149 42.0116C23.3588 42.8807 23.423 43.6587 23.5087 44.2907C23.5914 44.901 23.702 45.4412 23.8661 45.7888L24.917 45.2927C24.8371 45.1234 24.7429 44.7443 24.6603 44.1346C24.5806 43.5466 24.5186 42.8039 24.4756 41.953C24.3897 40.2525 24.381 38.1506 24.4502 36.0523L23.2887 36.014ZM23.8661 45.7888C24.1149 46.3158 24.5501 47.1982 25.4513 47.8416C26.3739 48.5003 27.6991 48.852 29.6159 48.5038L29.4082 47.3604C27.7359 47.6642 26.7449 47.3372 26.1266 46.8957C25.4868 46.439 25.1563 45.7997 24.917 45.2927L23.8661 45.7888ZM29.616 48.5038C31.1552 48.224 32.3007 47.7988 33.1243 47.0731C33.9614 46.3354 34.3933 45.3526 34.6435 44.1208L33.5046 43.8894C33.282 44.9853 32.9321 45.6935 32.3559 46.2012C31.7663 46.7208 30.8672 47.0952 29.4082 47.3604L29.616 48.5038ZM34.644 44.1181C34.9871 42.3884 35.672 37.6112 35.7598 36.6138L34.6022 36.5119C34.5185 37.4619 33.8402 42.1974 33.5041 43.8921L34.644 44.1181ZM19.5673 14.8668C19.7574 14.3177 19.7571 14.3176 19.7568 14.3175C19.7566 14.3174 19.7563 14.3173 19.7559 14.3172C19.7552 14.3169 19.7542 14.3166 19.7529 14.3162C19.7505 14.3153 19.747 14.3141 19.7426 14.3126C19.7338 14.3096 19.7211 14.3053 19.7046 14.2998C19.6718 14.2889 19.624 14.2731 19.5622 14.2534C19.4388 14.2138 19.2595 14.158 19.0326 14.092C18.579 13.9601 17.9337 13.7867 17.1622 13.6196C15.6247 13.2866 13.5613 12.9728 11.5063 13.0732C9.45959 13.1732 7.34334 13.688 5.78485 15.0889C4.20297 16.5109 3.29639 18.7528 3.4949 22.0805L4.65498 22.0113C4.47148 18.9353 5.31044 17.078 6.56175 15.9532C7.83646 14.8074 9.64103 14.3279 11.563 14.234C13.4765 14.1405 15.4294 14.4334 16.9162 14.7554C17.6568 14.9158 18.2755 15.0821 18.7079 15.2079C18.924 15.2708 19.0933 15.3234 19.2076 15.3601C19.2647 15.3784 19.3081 15.3927 19.3367 15.4022C19.351 15.407 19.3616 15.4106 19.3684 15.4129C19.3718 15.414 19.3742 15.4149 19.3757 15.4154C19.3764 15.4156 19.3769 15.4158 19.3772 15.4159C19.3773 15.4159 19.3773 15.4159 19.3774 15.4159C19.3773 15.4159 19.3772 15.4159 19.5673 14.8668ZM3.495 22.082C3.54126 22.8242 3.86366 24.4999 4.38711 26.4785C4.91432 28.4714 5.65898 30.8226 6.57047 32.9249C7.47164 35.0035 8.57316 36.929 9.85136 37.9812C10.5017 38.5165 11.2453 38.8646 12.0622 38.8341C12.8834 38.8033 13.6649 38.3945 14.3966 37.6478L13.5665 36.8344C12.9726 37.4405 12.4557 37.6564 12.0188 37.6727C11.5777 37.6892 11.1036 37.5067 10.5899 37.0839C9.54009 36.2197 8.52818 34.5188 7.6367 32.4627C6.75554 30.4302 6.02831 28.1383 5.51059 26.1813C4.9891 24.2101 4.6935 22.6292 4.65488 22.0097L3.495 22.082ZM14.3964 37.648C15.3573 36.6681 16.2729 35.7932 16.9486 35.163C17.2862 34.848 17.5635 34.5946 17.7562 34.4201C17.8524 34.3329 17.9275 34.2655 17.9784 34.22C18.0038 34.1973 18.0231 34.18 18.036 34.1686C18.0425 34.1628 18.0473 34.1585 18.0505 34.1557C18.0521 34.1543 18.0533 34.1533 18.054 34.1526C18.0544 34.1523 18.0547 34.152 18.0548 34.1519C18.0549 34.1518 18.055 34.1518 18.055 34.1517C18.055 34.1517 18.055 34.1517 18.055 34.1517C18.055 34.1517 18.055 34.1517 17.67 33.7165C17.285 33.2813 17.285 33.2813 17.2849 33.2813C17.2849 33.2814 17.2849 33.2814 17.2848 33.2814C17.2848 33.2815 17.2847 33.2816 17.2845 33.2817C17.2843 33.2819 17.2839 33.2823 17.2834 33.2827C17.2825 33.2835 17.2811 33.2847 17.2793 33.2863C17.2758 33.2895 17.2705 33.2941 17.2637 33.3002C17.25 33.3124 17.2298 33.3304 17.2036 33.3538C17.1511 33.4008 17.0742 33.4698 16.976 33.5587C16.7797 33.7365 16.4982 33.9938 16.1559 34.3131C15.4716 34.9514 14.543 35.8387 13.5667 36.8343L14.3964 37.648ZM28.727 14.2096C28.6901 14.282 28.6467 14.3264 28.6294 14.3432C28.6087 14.3632 28.5928 14.3747 28.5881 14.378C28.5791 14.3843 28.5828 14.3807 28.6081 14.3679C28.6569 14.3433 28.7419 14.3066 28.8672 14.2616C29.115 14.1725 29.4795 14.065 29.9391 13.9619C30.8571 13.7558 32.1253 13.5734 33.5525 13.5813C36.4128 13.5972 39.8408 14.3744 42.4205 17.1684L43.2743 16.3801C40.3981 13.2649 36.6048 12.4361 33.559 12.4192C32.0331 12.4107 30.6769 12.6052 29.6845 12.828C29.1888 12.9392 28.7765 13.0592 28.4741 13.1679C28.3244 13.2218 28.1909 13.2766 28.0839 13.3307C28.0313 13.3573 27.9728 13.3898 27.918 13.4285C27.8846 13.4521 27.7666 13.5348 27.6917 13.6817L28.727 14.2096ZM42.4203 17.1683C42.7447 17.5198 42.9692 18.2499 42.9481 19.4087C42.9276 20.537 42.6759 21.9535 42.1935 23.537C41.2293 26.7016 39.3693 30.4486 36.744 33.7505L37.6537 34.4737C40.3713 31.0557 42.2991 27.1779 43.3052 23.8757C43.8079 22.2257 44.087 20.6982 44.1101 19.4299C44.1326 18.1921 43.9136 17.0729 43.2744 16.3802L42.4203 17.1683ZM37.1905 34.1113C36.6247 34.2437 36.6249 34.2447 36.6251 34.2456C36.6252 34.246 36.6254 34.2469 36.6256 34.2476C36.6259 34.2489 36.6262 34.2502 36.6266 34.2516C36.6273 34.2544 36.628 34.2572 36.6288 34.2601C36.6303 34.266 36.632 34.2723 36.634 34.2789C36.6379 34.2922 36.6426 34.307 36.6484 34.3231C36.6599 34.3553 36.6754 34.3927 36.6963 34.434C36.7384 34.5172 36.8008 34.614 36.8925 34.715C37.0777 34.9189 37.3649 35.1216 37.8012 35.2748C38.6573 35.5755 40.1253 35.6998 42.6978 35.2508L42.498 34.106C40.0026 34.5415 38.7669 34.3823 38.1863 34.1784C37.9042 34.0793 37.7897 33.9743 37.7529 33.9337C37.7336 33.9124 37.7299 33.9027 37.7336 33.9099C37.7353 33.9133 37.7386 33.9204 37.7427 33.9318C37.7447 33.9375 37.7469 33.9442 37.7492 33.952C37.7504 33.956 37.7515 33.9602 37.7527 33.9647C37.7533 33.9669 37.7539 33.9692 37.7545 33.9716C37.7548 33.9728 37.7551 33.974 37.7554 33.9752C37.7555 33.9759 37.7557 33.9768 37.7558 33.9771C37.756 33.9781 37.7563 33.979 37.1905 34.1113ZM42.6981 35.2508C42.9533 35.2061 43.133 35.1929 43.2512 35.1964C43.3847 35.2003 43.3782 35.2238 43.3212 35.1871C43.2834 35.1627 43.2292 35.1145 43.1915 35.035C43.1539 34.9556 43.1502 34.8817 43.1557 34.8335C43.1642 34.7587 43.1917 34.7538 43.1321 34.8301C43.0234 34.9689 42.7798 35.1822 42.3953 35.425C42.0216 35.6611 41.5493 35.9033 41.0184 36.1122L41.444 37.1936C42.0379 36.9599 42.576 36.6854 43.0159 36.4076C43.4451 36.1366 43.8183 35.8389 44.0473 35.5463C44.1564 35.4068 44.2829 35.2061 44.3104 34.9649C44.3253 34.8336 44.3112 34.6839 44.2416 34.5372C44.1721 34.3906 44.0647 34.2837 43.9511 34.2105C43.7425 34.0759 43.4941 34.0408 43.285 34.0347C43.0605 34.0282 42.7968 34.0537 42.4978 34.106L42.6981 35.2508ZM41.0185 36.1122C40.184 36.4404 38.7648 36.6633 37.5337 36.675C36.9194 36.6808 36.397 36.6332 36.043 36.54C35.8635 36.4928 35.7668 36.4438 35.7259 36.4141C35.6927 36.39 35.7541 36.4243 35.7608 36.5241L34.6012 36.6016C34.6247 36.952 34.8301 37.1998 35.0431 37.3545C35.2486 37.5037 35.5006 37.599 35.7473 37.6639C36.2455 37.795 36.8855 37.8433 37.5447 37.8371C38.8606 37.8246 40.433 37.5913 41.4439 37.1937L41.0185 36.1122ZM35.7608 36.5239C35.7229 35.9599 35.8274 35.6586 35.9339 35.4931C36.0384 35.3306 36.1897 35.229 36.3907 35.1522C36.4934 35.1129 36.6025 35.0828 36.7211 35.0536C36.8239 35.0283 36.9736 34.995 37.0886 34.9606C37.1927 34.9295 37.3896 34.8659 37.5457 34.7166C37.6357 34.6306 37.7162 34.5128 37.755 34.3622C37.7929 34.2151 37.7805 34.0773 37.7509 33.9642L36.6266 34.2585C36.6183 34.2265 36.6074 34.1585 36.6296 34.0724C36.6526 33.9829 36.7002 33.9172 36.7425 33.8768C36.8032 33.8187 36.8456 33.8203 36.7558 33.8472C36.677 33.8707 36.5934 33.8882 36.4434 33.9251C36.3091 33.9582 36.1456 34.0017 35.9759 34.0666C35.632 34.198 35.2386 34.4258 34.9565 34.8643C34.6763 35.2999 34.5521 35.8713 34.6012 36.6018L35.7608 36.5239ZM37.7509 33.9643C37.6797 33.6921 37.518 33.4667 37.3725 33.2911C37.2267 33.1151 37.0361 32.92 36.8662 32.7383C36.5098 32.3571 36.1196 31.9068 35.8097 31.2704L34.7648 31.7792C35.151 32.5723 35.6351 33.1232 36.0173 33.532C36.2167 33.7452 36.3614 33.8922 36.4776 34.0325C36.5943 34.1734 36.6214 34.2386 36.6266 34.2584L37.7509 33.9643ZM35.8098 31.2706C35.7129 31.0715 35.4969 30.7438 35.2611 30.3852C35.0116 30.0058 34.706 29.5425 34.3886 29.0262C33.7486 27.9849 33.0879 26.7702 32.7618 25.6621C32.4267 24.5231 32.504 23.717 32.9964 23.2393C33.5263 22.7253 34.7547 22.3527 37.35 22.705L37.5063 21.5534C34.8673 21.1952 33.1351 21.4857 32.1873 22.4052C31.202 23.361 31.2846 24.7586 31.6469 25.9901C32.0184 27.2526 32.7473 28.5752 33.3985 29.6347C33.7267 30.1686 34.0421 30.6465 34.2901 31.0237C34.5518 31.4217 34.7098 31.6661 34.7647 31.7789L35.8098 31.2706ZM24.9065 12.9709C22.3488 12.9355 20.4084 13.5858 18.9493 14.6156C17.4954 15.6417 16.5589 17.0165 15.9562 18.3709C15.3543 19.7235 15.0778 21.0721 14.9506 22.0764C14.8868 22.5801 14.86 23.0013 14.8493 23.2987C14.8439 23.4475 14.8425 23.5656 14.8425 23.6479C14.8425 23.689 14.8428 23.7212 14.8432 23.7439C14.8433 23.7552 14.8435 23.7641 14.8437 23.7706C14.8438 23.7738 14.8438 23.7764 14.8439 23.7784C14.8439 23.7794 14.8439 23.7802 14.844 23.7809C14.844 23.7812 14.844 23.7816 14.844 23.7818C14.844 23.7821 14.844 23.7824 15.4248 23.7642C16.0056 23.7459 16.0056 23.7461 16.0056 23.7463C16.0056 23.7463 16.0056 23.7465 16.0056 23.7465C16.0056 23.7466 16.0056 23.7465 16.0056 23.7462C16.0056 23.7457 16.0055 23.7445 16.0055 23.7428C16.0054 23.7393 16.0053 23.7334 16.0051 23.7251C16.0049 23.7086 16.0046 23.6827 16.0046 23.6481C16.0046 23.5788 16.0058 23.4747 16.0106 23.3408C16.0204 23.0729 16.0447 22.6867 16.1036 22.2224C16.2216 21.2907 16.4763 20.0608 17.018 18.8433C17.5588 17.6278 18.3783 16.441 19.6194 15.565C20.8552 14.6928 22.5488 14.1005 24.8904 14.133L24.9065 12.9709ZM20.7283 34.5746C20.3705 34.913 20.1247 35.1857 19.9335 35.3899C19.7387 35.598 19.6136 35.72 19.4664 35.8194C19.1717 36.0185 18.7096 36.1804 17.3332 36.421L17.5332 37.5658C18.8868 37.3292 19.5886 37.1393 20.1168 36.7825C20.3812 36.604 20.5824 36.3972 20.7818 36.1842C20.9849 35.9674 21.2013 35.7269 21.5269 35.4189L20.7283 34.5746ZM17.3329 36.421C16.631 36.544 16.1063 36.7042 15.7759 36.9326C15.604 37.0515 15.4245 37.2304 15.354 37.4898C15.2789 37.7661 15.3594 38.0119 15.47 38.1857C15.6626 38.488 16.0147 38.6894 16.2861 38.8152C16.5874 38.9548 16.9295 39.0636 17.2327 39.128L17.4741 37.9912C17.2476 37.9431 16.9895 37.8603 16.7748 37.7608C16.6679 37.7112 16.5825 37.6625 16.521 37.6188C16.4545 37.5716 16.4424 37.5491 16.4503 37.5614C16.4645 37.5837 16.5082 37.674 16.4754 37.7947C16.4472 37.8984 16.389 37.9216 16.4369 37.8885C16.4822 37.8572 16.5823 37.8043 16.7714 37.7434C16.9563 37.6839 17.2055 37.6232 17.5335 37.5657L17.3329 36.421ZM17.2332 39.1281C18.537 39.4038 21.824 39.864 24.0609 37.209L23.1722 36.4602C21.3939 38.5709 18.7386 38.2586 17.4736 37.9911L17.2332 39.1281ZM24.061 37.2089C24.5496 36.6287 24.5139 35.9056 24.2716 35.3509C24.0326 34.8038 23.5555 34.3143 22.9655 34.1079L22.5817 35.2048C22.8313 35.2921 23.0812 35.5289 23.2066 35.816C23.3287 36.0956 23.2947 36.3147 23.1721 36.4603L24.061 37.2089ZM22.9663 34.1082C22.7661 34.0378 22.4249 33.9155 22.0173 33.9455C21.5878 33.9771 21.1563 34.1683 20.7276 34.5736L21.5259 35.4182C21.7958 35.163 21.9849 35.1132 22.1027 35.1045C22.2424 35.0942 22.3753 35.1323 22.5809 35.2045L22.9663 34.1082ZM20.7159 35.4068L20.7167 35.4076L21.5385 34.5859L21.5376 34.585L20.7159 35.4068ZM21.6102 34.8713C21.5668 34.6314 21.6068 34.325 21.7441 33.9063C21.8818 33.4867 22.09 33.0303 22.3288 32.4844L21.2641 32.0186C21.0395 32.5321 20.7998 33.0569 20.64 33.544C20.4798 34.0319 20.3725 34.5574 20.4666 35.0781L21.6102 34.8713ZM22.3286 32.4848C22.4954 32.1045 22.6975 31.7642 22.9482 31.2693C23.1864 30.7989 23.4311 30.2544 23.6095 29.5884C23.9687 28.2465 24.0388 26.4862 23.3782 23.8933L22.2521 24.1802C22.875 26.6254 22.7838 28.1788 22.4869 29.2878C22.3371 29.8473 22.13 30.3126 21.9114 30.7441C21.7053 31.1511 21.4456 31.6047 21.2643 32.0181L22.3286 32.4848ZM23.3782 23.8931C23.0863 22.7487 22.3511 22.0852 21.4383 21.7864C20.5659 21.5008 19.5596 21.5542 18.6527 21.7316C17.7357 21.911 16.8566 22.23 16.202 22.5392C15.8756 22.6933 15.5907 22.8518 15.3785 22.9983C15.2744 23.0701 15.1704 23.1509 15.0857 23.2381C15.0435 23.2816 14.9931 23.3398 14.9501 23.4116C14.9106 23.4774 14.8495 23.6004 14.8487 23.7621L16.0108 23.768C16.0102 23.8979 15.9617 23.9843 15.9468 24.0092C15.9283 24.04 15.9142 24.0531 15.9194 24.0477C15.9296 24.0373 15.9649 24.0056 16.0386 23.9547C16.182 23.8557 16.407 23.7276 16.6983 23.59C17.2791 23.3157 18.0666 23.0305 18.8759 22.8721C19.6954 22.7118 20.4751 22.6939 21.0768 22.8909C21.6381 23.0746 22.0652 23.4474 22.2521 24.1803L23.3782 23.8931ZM14.8487 23.7621C14.8456 24.3861 15.1375 26.3071 14.7486 28.6619L15.8952 28.8512C16.3026 26.3843 16.0088 24.1627 16.0108 23.768L14.8487 23.7621ZM14.7486 28.6619C14.155 32.2586 17.4355 35.1689 21.0502 34.873L20.9553 33.7148C17.9333 33.9622 15.4498 31.5499 15.8953 28.8512L14.7486 28.6619ZM36.8505 22.1658C36.8892 22.7754 36.8134 23.2919 36.7108 23.8661C36.6092 24.4351 36.4777 25.0761 36.4483 25.8523L37.6096 25.8964C37.6353 25.2193 37.7478 24.6697 37.8549 24.0704C37.9609 23.4764 38.0582 22.8468 38.0103 22.0922L36.8505 22.1658ZM36.4483 25.8522C36.426 26.4357 36.4971 27.027 36.5749 27.5891C36.6547 28.1659 36.7409 28.709 36.7732 29.2642C36.836 30.3439 36.6888 31.3953 35.8496 32.4583L36.7617 33.1784C37.8325 31.822 38.0066 30.4566 37.9334 29.1967C37.8976 28.5821 37.8015 27.9748 37.7261 27.4298C37.6486 26.87 37.5915 26.3682 37.6096 25.8965L36.4483 25.8522ZM37.5294 22.7014C37.8225 22.6495 37.9531 22.4246 37.9966 22.3073C38.0378 22.196 38.0408 22.0938 38.0402 22.0399C38.039 21.9216 38.0149 21.7971 37.9878 21.6883C37.9306 21.4592 37.8242 21.1622 37.6726 20.8232C37.3672 20.1405 36.8544 19.2346 36.1006 18.2814C34.5911 16.3724 32.0959 14.2506 28.3409 13.3775L28.0777 14.5094C31.5224 15.3104 33.8049 17.2517 35.189 19.0022C35.8821 19.8787 36.3451 20.7016 36.6117 21.2977C36.7461 21.5982 36.8248 21.828 36.8602 21.9697C36.8793 22.0464 36.8783 22.0682 36.8782 22.0518C36.8781 22.0488 36.8761 21.9864 36.907 21.9032C36.9401 21.8139 37.0549 21.6052 37.3269 21.557L37.5294 22.7014ZM28.3409 13.3775C27.2926 13.1337 26.1495 12.9882 24.9065 12.9709L24.8904 14.133C26.052 14.1491 27.1122 14.2849 28.0777 14.5094L28.3409 13.3775Z" fill="white"/>
<path d="M66.7298 27.478H56.8792V17.5714H67.2646C71.066 17.5714 72.9666 19.248 72.9666 22.6019C72.9666 25.8532 70.8868 27.4797 66.7298 27.4797V27.478ZM73.8096 17.4559C72.4513 16.2471 70.571 15.6427 68.144 15.6427L54.0371 15.7208V39.422H56.8792L56.8537 29.332H67.3512C69.9828 29.332 72.0558 28.7276 73.5676 27.5187C75.0795 26.3099 75.8359 24.6325 75.8359 22.4873C75.8359 20.3422 75.161 18.6656 73.8113 17.4559H73.8096ZM92.2068 34.4449C91.935 35.2202 91.4709 35.9139 90.8579 36.461C89.5846 37.7038 87.6423 38.3243 85.0294 38.3243C82.6695 38.3243 80.8597 37.7301 79.5965 36.5128C78.3333 35.2955 77.7009 33.6885 77.7009 31.6631C77.7009 30.6087 77.8665 29.6724 78.1967 28.8558C78.5269 28.0391 79.0065 27.3498 79.6347 26.7878C80.942 25.5968 82.74 25.0009 85.0303 25.0009C90.1033 25.0009 92.6406 27.2216 92.6406 31.6631C92.6406 32.7182 92.4963 33.6452 92.2162 34.4449H92.2068ZM92.7315 25.7013C90.9997 24.1223 88.436 23.3244 85.0388 23.3244C81.8299 23.3244 79.3495 24.1308 77.6007 25.7437C76.0218 27.2038 75.2238 29.1732 75.2238 31.6537C75.2238 34.1155 76.0388 36.1019 77.6687 37.613C78.5685 38.4279 79.6169 39.0187 80.8147 39.3838C82.0125 39.7488 83.4174 39.9313 85.0303 39.9313C88.4089 39.9313 90.9725 39.1503 92.7484 37.5883C94.3274 36.1622 95.1253 34.1928 95.1253 31.6529C95.1253 29.1062 94.3274 27.1198 92.7315 25.6919V25.7013ZM114.224 35.1299C114.224 38.3201 111.366 39.9152 105.65 39.9152C103.903 39.9152 102.431 39.8048 101.236 39.5824C100.04 39.36 99.0685 38.9924 98.3223 38.4805C97.7464 38.0909 97.2745 37.5664 96.9479 36.9525C96.6084 36.3243 96.3876 35.5349 96.2858 34.5756L98.9454 34.5501C98.9454 35.8065 99.4106 36.7301 100.342 37.3243C101.341 38.0374 103.109 38.3939 105.65 38.3939C109.645 38.3939 111.643 37.3922 111.643 35.3906C111.643 34.2191 110.964 33.4143 109.633 32.9712C109.361 32.8863 107.746 32.6614 104.794 32.2972C101.843 31.933 99.9895 31.6053 99.2612 31.3167C97.6839 30.6885 96.8953 29.5595 96.8953 27.9313C96.8953 26.3354 97.5999 25.1469 99.0175 24.3676C99.7136 24.0451 100.584 23.7955 101.629 23.6164C102.674 23.4373 103.883 23.349 105.259 23.349C110.761 23.349 113.512 25.0756 113.512 28.5272H110.983C110.983 26.0994 109.047 24.877 105.181 24.877C103.213 24.877 101.745 25.1317 100.778 25.6155C99.8112 26.0994 99.3282 26.8634 99.3282 27.8821C99.3282 28.8328 99.9819 29.5204 101.287 29.9449C102.051 30.1656 103.807 30.4203 106.556 30.7089C109.016 30.9296 110.704 31.2437 111.62 31.6427C113.369 32.3218 114.242 33.4763 114.242 35.1036L114.224 35.1299ZM124.67 39.4534L123.588 39.6062L122.913 39.6571C121.181 39.6571 119.942 39.4067 119.167 38.9041C118.392 38.4016 118.018 37.523 118.018 36.2726V25.4449H114.872V23.8541H118.002L118.028 18.7437H120.452V23.8541H124.675V25.4704L120.452 25.4449V35.9687C120.452 36.7522 120.66 37.2929 121.076 37.5816C121.492 37.8702 122.234 38.0281 123.304 38.0281C123.456 38.045 123.626 38.04 123.813 38.0111C124.096 37.9607 124.376 37.8966 124.653 37.8192L124.679 39.4321L124.67 39.4534ZM141.44 35.8625C140.778 36.4058 140.024 36.8201 139.176 37.1104C138.328 37.4007 137.353 37.5349 136.251 37.5349C131.18 37.5349 128.645 35.4406 128.645 31.253C128.645 29.3031 129.293 27.7768 130.591 26.6741C131.889 25.5714 133.715 25.0204 136.074 25.0204C138.448 25.0204 140.25 25.5765 141.479 26.6868C142.708 27.7972 143.324 29.2861 143.324 31.152C143.324 33.1868 142.696 34.7556 141.441 35.8574L141.44 35.8625ZM145.749 23.8583H143.325L143.299 26.5323C142.23 25.4457 141.466 24.7607 141.007 24.4721C139.649 23.725 137.894 23.3532 135.738 23.3532C132.582 23.3532 130.171 24.0748 128.509 25.5162C126.93 26.8405 126.142 28.7564 126.142 31.2666C126.142 32.506 126.342 33.6113 126.741 34.5773C127.14 35.5434 127.722 36.3795 128.487 37.0578C130.152 38.4483 132.506 39.1444 135.55 39.1444C139.203 39.1444 141.795 38.1452 143.326 36.1461V38.9135C143.326 40.6792 142.77 42.0442 141.658 43.0119C140.547 43.9797 138.719 44.4551 136.173 44.4551C133.779 44.4551 132.074 44.1155 131.057 43.4669C130.293 42.9602 129.766 42.0815 129.478 40.8311H126.982C127.253 42.5773 128.001 43.8405 129.189 44.6197C130.581 45.5179 132.924 45.9669 136.235 45.9669C142.568 45.9669 145.742 43.613 145.742 38.9041V23.8651L145.749 23.8583ZM158.865 25.4313C158.135 25.3125 157.457 25.2615 156.831 25.2615C152.845 25.2615 150.853 27.4474 150.853 31.8176V39.4186H148.454L148.428 23.8651L150.854 23.8889V26.6648H150.981C151.388 25.5714 152.034 24.742 152.915 24.1775C153.881 23.6308 155.322 23.3575 157.239 23.3575H158.866V25.4457L158.865 25.4313ZM161.12 30.6588C161.426 28.8914 162.113 27.523 163.18 26.5536C163.877 25.9933 164.666 25.5714 165.547 25.2912C166.428 25.0111 167.415 24.8702 168.525 24.8702C170.68 24.8702 172.43 25.461 173.805 26.6427C175.18 27.8243 175.853 29.1639 175.853 30.658H161.12V30.6588ZM176.089 25.86C175.24 25.0086 174.187 24.3795 172.931 23.9704C171.674 23.5612 170.214 23.3575 168.517 23.3575C165.376 23.3575 162.939 24.0875 161.206 25.5476C159.472 27.0077 158.608 28.9941 158.608 31.5086C158.608 34.023 159.44 36.0077 161.104 37.4933C162.904 39.1231 165.433 39.9381 168.717 39.9381C170.024 39.9381 171.232 39.7895 172.344 39.4941C173.456 39.1987 174.428 38.7793 175.259 38.2377C176.719 37.1894 177.643 35.8948 178.035 34.3583H175.414C174.514 37.0179 172.275 38.3481 168.696 38.3481C166.168 38.3481 164.225 37.6979 162.868 36.3973C161.697 35.2827 161.113 33.8388 161.113 32.0646H178.399C178.399 29.4262 177.635 27.3575 176.081 25.8676L176.089 25.86Z" fill="#231F20"/>
<path d="M204.023 33.0662C204.023 37.6842 200.299 39.9932 192.85 39.9932C188.388 39.9932 185.13 39.1978 183.077 37.6163C181.396 36.309 180.557 34.3158 180.557 31.6333H183.556C183.556 35.9439 186.654 38.0993 192.849 38.0993C195.821 38.0993 197.968 37.6579 199.301 36.7767C200.422 35.9974 200.982 34.7759 200.982 33.1146C200.982 31.4694 200.218 30.3166 198.69 29.6545C197.824 29.2979 195.719 28.848 192.349 28.3064C188.121 27.6613 185.381 27.0178 184.124 26.3735C182.308 25.4227 181.408 23.8124 181.408 21.5399C181.408 19.4202 182.172 17.843 183.725 16.8081C185.389 15.6723 188.242 15.1036 192.281 15.1036C199.581 15.1036 203.231 17.528 203.231 22.3769H200.207C200.207 18.7436 197.496 16.9287 192.076 16.9287C189.357 16.9287 187.369 17.2937 186.112 18.0323C184.922 18.8132 184.329 19.9592 184.329 21.4703C184.329 23.0492 185.093 24.1613 186.621 24.8064C187.436 25.18 189.83 25.6978 193.803 26.3599C197.538 26.9202 200.059 27.5738 201.358 28.3124C203.141 29.2292 204.032 30.8166 204.032 33.0662H204.023ZM228.387 35.4227C227.266 36.32 226 36.9932 224.59 37.4431C223.18 37.893 221.599 38.1163 219.849 38.1163C216.281 38.1163 213.398 37.1545 211.196 35.2317C208.994 33.309 207.896 30.7462 207.896 27.5433C207.896 24.2054 208.987 21.6044 211.17 19.7402C213.354 17.8761 216.247 16.9448 219.848 16.9448C223.501 16.9448 226.373 17.9194 228.463 19.8676C229.567 20.8183 230.382 21.927 230.91 23.1978C231.438 24.4686 231.699 25.9176 231.699 27.5441C231.699 30.865 230.594 33.4915 228.385 35.4219L228.387 35.4227ZM229.979 36.994C231.541 35.8922 232.697 34.5577 233.445 32.9889C234.193 31.4202 234.567 29.6103 234.567 27.5577C234.567 23.8777 233.345 20.9363 230.9 18.7054C229.593 17.4847 228.014 16.5772 226.163 15.9839C224.313 15.3905 222.199 15.0925 219.822 15.0925C215.204 15.0925 211.588 16.2131 208.956 18.4499C206.325 20.6868 205.009 23.7232 205.009 27.556C205.009 31.2861 206.337 34.2962 208.993 36.5849C211.649 38.8735 215.277 40.0186 219.876 40.0186C221.675 40.0186 223.244 39.8973 224.584 39.6536C225.925 39.41 227.063 39.0365 227.997 38.5331L232.427 41.6035L234.277 39.904L229.988 36.9949L229.979 36.994ZM257.017 39.4193H236.519V15.6842L239.336 15.6333V37.4304H257.034L257.008 39.4117L257.017 39.4193Z" fill="#367FAF"/>
</svg>
