<svg width="206" height="60" viewBox="0 0 206 60" fill="none" xmlns="http://www.w3.org/2000/svg">
<path d="M51.8165 11.0004C50.5352 11.0056 49.3099 11.1155 48.233 11.3116C45.0592 11.8719 44.4834 13.0458 44.4834 15.2101V18.0632H51.9825V19.0162H41.6697C39.4909 19.0162 37.5819 20.326 36.9853 22.8186C36.297 25.6754 36.2664 27.4578 36.9853 30.4401C37.5186 32.6604 38.7916 34.2426 40.9709 34.2426H43.5491V30.8162C43.5491 28.3407 45.6916 26.1578 48.2335 26.1578H55.7243C57.8097 26.1578 59.4738 24.4459 59.4738 22.3471V15.2049C59.4738 13.1724 57.7593 11.6462 55.7243 11.3064C54.4327 11.0953 53.1257 10.9929 51.817 11.0004H51.8165ZM47.7609 13.2985C48.5354 13.2985 49.1683 13.9417 49.1683 14.7318C49.1683 15.5192 48.5354 16.1563 47.7609 16.1563C46.9828 16.1563 46.3535 15.5192 46.3535 14.7318C46.3535 13.9412 46.9833 13.2985 47.7609 13.2985Z" fill="url(#paint0_linear)"/>
<path d="M60.4093 19.0162V22.3466C60.4093 24.9285 58.2202 27.1015 55.725 27.1015H48.2342C46.1825 27.1015 44.4846 28.8575 44.4846 30.9123V38.0534C44.4846 40.0859 46.252 41.2811 48.2342 41.8642C50.608 42.5624 52.8843 42.689 55.725 41.8642C57.6132 41.3174 59.4745 40.2177 59.4745 38.0534V35.2003H51.9827V34.2474H63.2241C65.4028 34.2474 66.2157 32.7274 66.9736 30.4449C67.7569 28.096 67.7232 25.8368 66.9736 22.8234C66.4352 20.6534 65.407 19.0209 63.2241 19.0209H60.4098L60.4093 19.0162ZM56.197 37.1C56.9752 37.1 57.6044 37.737 57.6044 38.5245C57.6044 39.3151 56.9746 39.9578 56.197 39.9578C55.4225 39.9578 54.7897 39.3145 54.7897 38.5245C54.7897 37.737 55.4225 37.1 56.197 37.1Z" fill="url(#paint1_linear)"/>
<path opacity="0.444" d="M52.0681 48.667C57.6185 48.667 62.1179 47.7944 62.1179 46.718C62.1179 45.6416 57.6185 44.769 52.0681 44.769C46.5178 44.769 42.0183 45.6416 42.0183 46.718C42.0183 47.7944 46.5178 48.667 52.0681 48.667Z" fill="url(#paint2_radial)"/>
<path d="M86.7289 30.4483C86.7289 26.375 85.5669 24.2844 83.245 24.1698C82.3205 24.1262 81.419 24.2735 80.5407 24.6144C79.8404 24.8649 79.3683 25.1134 79.1204 25.364V35.0854C80.6061 36.0176 81.9258 36.4513 83.0764 36.3833C85.5109 36.2277 86.7294 34.2461 86.7294 30.4488L86.7289 30.4483ZM89.594 30.6174C89.594 32.6924 89.109 34.4043 88.1327 35.7702C87.0448 37.316 85.5373 38.1118 83.6091 38.1554C82.1566 38.2073 80.6595 37.7466 79.1188 36.7921V45.628L76.6267 44.7389V25.1269C77.0355 24.6253 77.562 24.1947 78.1996 23.829C79.6832 22.9647 81.4848 22.5202 83.605 22.4984L83.6403 22.5336C85.5788 22.5093 87.0728 23.305 88.1223 24.9189C89.1012 26.3994 89.5919 28.2908 89.5919 30.6169L89.594 30.6174ZM104.823 36.416C104.823 39.1913 104.545 41.1133 103.989 42.182C103.433 43.2506 102.367 44.1039 100.796 44.7394C99.5234 45.241 98.1467 45.5139 96.6687 45.5601L96.2569 43.9898C97.7592 43.7854 98.8169 43.581 99.4301 43.3766C100.638 42.9679 101.467 42.3407 101.922 41.5008C102.287 40.8161 102.466 39.5109 102.466 37.578V36.9296C100.785 37.6981 98.9576 38.0934 97.1092 38.0885C95.9243 38.1049 94.7734 37.6934 93.8675 36.9296C92.8206 36.0871 92.2972 35.0185 92.2972 33.7237V23.3486L94.7888 22.4953V32.9326C94.7888 34.0479 95.1488 34.9064 95.8678 35.5087C96.5868 36.111 97.52 36.401 98.6623 36.3781C99.8046 36.3553 101.029 35.9113 102.329 35.0475V22.875H104.82V36.416H104.823ZM114.55 38.0241L113.729 38.0594C112.32 38.0594 111.221 37.7243 110.436 37.051C109.654 36.3776 109.261 35.4428 109.261 34.2621V24.4473H107.549V22.8797H109.261V18.712L111.75 17.826V22.875H114.55V24.4427H111.75V34.189C111.75 35.1243 112 35.7868 112.502 36.1737C112.933 36.4928 113.617 36.6754 114.55 36.7216V38.0241ZM129.637 37.8198H127.145V28.201C127.145 27.2221 126.917 26.3854 126.46 25.6768C125.934 24.8805 125.203 24.4826 124.266 24.4826C123.124 24.4826 121.695 25.0844 119.981 26.2899V37.8135H117.489V14.8245L119.981 14.0391V24.5106C121.574 23.3517 123.312 22.7712 125.202 22.7712C126.521 22.7712 127.59 23.2158 128.408 24.1018C129.228 24.9879 129.637 26.0918 129.637 27.4115V37.8151L129.637 37.8198ZM142.882 30.0556C142.882 28.4905 142.585 27.1983 141.993 26.1763C141.29 24.9303 140.197 24.2735 138.719 24.2051C135.987 24.3633 134.624 26.3205 134.624 30.067C134.624 31.7872 134.908 33.2241 135.48 34.3726C136.21 35.8423 137.306 36.567 138.768 36.5426C141.51 36.5208 142.881 34.356 142.881 30.0457L142.882 30.0556ZM145.611 30.0722C145.611 32.2997 145.041 34.1532 143.899 35.6332C142.647 37.2906 140.919 38.1222 138.713 38.1222C136.527 38.1222 134.823 37.2906 133.593 35.6332C132.478 34.1527 131.922 32.2992 131.922 30.0722C131.922 27.9785 132.523 26.2178 133.729 24.7835C135.002 23.262 136.676 22.4989 138.745 22.4989C140.815 22.4989 142.5 23.2625 143.797 24.7835C145.002 26.2173 145.604 27.979 145.604 30.0722H145.611ZM159.896 37.8146H157.404V27.6512C157.404 26.5358 157.069 25.6664 156.398 25.0392C155.727 24.4152 154.833 24.1122 153.718 24.1366C152.535 24.1584 151.41 24.5454 150.346 25.2955V37.8146H147.855V24.9879C149.288 23.9436 150.608 23.262 151.813 22.9429C152.954 22.6457 153.953 22.4984 154.822 22.4984C155.413 22.4984 155.97 22.5502 156.493 22.6696C157.472 22.8957 158.267 23.3159 158.881 23.9317C159.566 24.6133 159.906 25.4361 159.906 26.388V37.8135L159.896 37.8146Z" fill="#646464"/>
<path d="M164.748 20.6531H165.185V17.913H166.22V17.5862H163.713V17.913H164.748V20.6531ZM166.608 20.6531H166.981V18.1506L167.791 20.6526H168.206L169.05 18.1589V20.6531H169.458V17.5873H168.919L167.997 20.2142L167.21 17.5873H166.608L166.608 20.6531Z" fill="#646464"/>
<defs>
<linearGradient id="paint0_linear" x1="36.4562" y1="11.0009" x2="53.6088" y2="25.901" gradientUnits="userSpaceOnUse">
<stop stop-color="#5A9FD4"/>
<stop offset="1" stop-color="#306998"/>
</linearGradient>
<linearGradient id="paint1_linear" x1="56.016" y1="38.2848" x2="49.8905" y2="29.535" gradientUnits="userSpaceOnUse">
<stop stop-color="#FFD43B"/>
<stop offset="1" stop-color="#FFE873"/>
</linearGradient>
<radialGradient id="paint2_radial" cx="0" cy="0" r="1" gradientUnits="userSpaceOnUse" gradientTransform="translate(52.0682 46.7182) rotate(-90) scale(1.94875 8.56559)">
<stop stop-color="#B8B8B8" stop-opacity="0.498"/>
<stop offset="1" stop-color="#7F7F7F" stop-opacity="0"/>
</radialGradient>
</defs>
</svg>
