<svg width="120" height="60" viewBox="0 0 120 60" fill="none" xmlns="http://www.w3.org/2000/svg">
<path d="M25.9592 33.417C27.8638 33.417 29.4077 31.873 29.4077 29.9685C29.4077 28.064 27.8638 26.52 25.9592 26.52C24.0547 26.52 22.5107 28.064 22.5107 29.9685C22.5107 31.873 24.0547 33.417 25.9592 33.417Z" fill="#00D8FF"/>
<path fill-rule="evenodd" clip-rule="evenodd" d="M25.9595 22.957C30.5895 22.957 34.8907 23.6214 38.1338 24.7379C42.0413 26.0831 44.4437 28.1222 44.4437 29.9685C44.4437 31.8925 41.8976 34.0587 37.7015 35.449C34.5292 36.5 30.3546 37.0487 25.9595 37.0487C21.4533 37.0487 17.1862 36.5337 13.9781 35.4375C9.91928 34.0502 7.47461 31.8559 7.47461 29.9685C7.47461 28.1371 9.76846 26.1138 13.621 24.7707C16.8762 23.6358 21.2836 22.957 25.9589 22.957H25.9595Z" stroke="#00D8FF" stroke-width="1.64976"/>
<path fill-rule="evenodd" clip-rule="evenodd" d="M19.8556 26.483C22.1687 22.4721 24.8929 19.078 27.4803 16.8264C30.5976 14.1135 33.5642 13.0511 35.1636 13.9733C36.8304 14.9345 37.4349 18.2224 36.543 22.5518C35.8694 25.8251 34.2585 29.7153 32.0628 33.5227C29.8116 37.4263 27.2338 40.8655 24.6817 43.0963C21.4523 45.9193 18.3302 46.9409 16.6952 45.998C15.1087 45.0838 14.502 42.0853 15.263 38.0769C15.9061 34.6901 17.5199 30.533 19.8549 26.4829L19.8556 26.483Z" stroke="#00D8FF" stroke-width="1.64976"/>
<path fill-rule="evenodd" clip-rule="evenodd" d="M19.8613 33.533C17.5416 29.5267 15.9623 25.4707 15.3031 22.1046C14.5096 18.049 15.0706 14.9481 16.6686 14.0232C18.3337 13.0591 21.4842 14.1774 24.7895 17.1123C27.2886 19.3313 29.8548 22.6691 32.0569 26.4729C34.3146 30.3727 36.0067 34.3237 36.665 37.6488C37.4979 41.8565 36.8238 45.0716 35.1903 46.0172C33.6054 46.9347 30.705 45.9633 27.6124 43.3019C24.9994 41.0534 22.2038 37.5791 19.8613 33.5329V33.533Z" stroke="#00D8FF" stroke-width="1.64976"/>
<path fill-rule="evenodd" clip-rule="evenodd" d="M64.2385 38.779L60.0117 32.3932C62.1479 32.2047 64.0728 30.6568 64.0728 27.829C64.0728 24.9516 62.0308 23.1101 59.1663 23.1101H52.8757V38.7671H54.8244V32.546H57.9469L61.9375 38.7671L64.2385 38.779ZM58.9331 30.8444H54.8254V24.8584H58.9331C60.7886 24.8584 62.0556 26.0788 62.0556 27.84C62.0556 29.6011 60.7876 30.8463 58.9331 30.8463V30.8444ZM71.4925 39.0598C73.3479 39.0598 74.8729 38.4496 76.0001 37.3235L75.1547 36.1725C74.2617 37.0883 72.9481 37.6042 71.6572 37.6042C69.2164 37.6042 67.7132 35.8203 67.5723 33.685H76.7502V33.2385C76.7502 29.8353 74.731 27.1583 71.303 27.1583C68.0634 27.1583 65.7169 29.8115 65.7169 33.0977C65.7169 36.6428 68.1349 39.0509 71.4915 39.0509L71.4925 39.0598ZM75.0148 32.3922H67.5733C67.6675 30.6558 68.8631 28.6119 71.2821 28.6119C73.8649 28.6119 74.991 30.7015 75.0148 32.3922ZM88.4433 38.778V30.9843C88.4433 28.2378 86.449 27.1573 84.0538 27.1573C82.1984 27.1573 80.7438 27.7675 79.5234 29.0356L80.3449 30.256C81.354 29.1765 82.4583 28.6833 83.8197 28.6833C85.4627 28.6833 86.6841 29.5515 86.6841 31.0775V33.1195C85.7683 32.0628 84.4775 31.5697 82.9277 31.5697C81.0028 31.5697 78.9588 32.7672 78.9588 35.3023C78.9588 37.767 81.0008 39.0588 82.9277 39.0588C84.4537 39.0588 85.7455 38.5191 86.6841 37.4862V38.776L88.4433 38.778ZM83.5617 37.7918C81.9186 37.7918 80.7676 36.7599 80.7676 35.3271C80.7676 33.8716 81.9186 32.8387 83.5617 32.8387C84.8059 32.8387 86.0025 33.308 86.6841 34.2476V36.3838C86.0035 37.3225 84.8059 37.7928 83.5617 37.7928V37.7918ZM96.9565 39.0598C99.0222 39.0598 100.243 38.2145 101.112 37.0883L99.938 36.0088C99.1869 37.0179 98.2245 37.4872 97.0606 37.4872C94.6426 37.4872 93.1414 35.6089 93.1414 33.0977C93.1414 30.5864 94.6436 28.7319 97.0606 28.7319C98.2344 28.7319 99.1969 29.1784 99.938 30.2103L101.112 29.1308C100.244 28.0037 99.0222 27.1593 96.9565 27.1593C93.576 27.1593 91.2989 29.742 91.2989 33.0986C91.2989 36.4791 93.576 39.0519 96.9565 39.0519V39.0598ZM106.442 39.0598C107.474 39.0598 108.109 38.7542 108.555 38.3325L108.039 37.0179C107.804 37.2758 107.345 37.4872 106.842 37.4872C106.068 37.4872 105.691 36.877 105.691 36.0316V28.9889H107.993V27.4401H105.691V24.3414H103.93V27.4401H102.051V28.9899H103.93V36.4086C103.93 38.0994 104.775 39.0618 106.442 39.0618V39.0598Z" fill="#00D8FF"/>
</svg>
