<svg width="231" height="60" viewBox="0 0 231 60" fill="none" xmlns="http://www.w3.org/2000/svg">
<g clip-path="url(#clip0)">
<path fill-rule="evenodd" clip-rule="evenodd" d="M33.8889 21.3763C35.0613 21.3928 36.1056 21.4391 36.7877 21.4984C39.7239 21.7535 42.4709 22.335 44.776 23.1318C48.2979 24.3493 51.577 26.152 54.6131 28.5398C57.1787 30.818 58.9171 32.6816 59.8282 34.1306C60.3693 34.991 61.322 36.3568 62.0463 38.1442C62.248 38.6418 62.5521 39.3623 62.8293 40.3151C62.9472 40.72 63.1177 41.4216 63.341 42.4198C63.4745 43.6901 63.5454 44.5901 63.5538 45.1198C63.5712 46.2232 63.4483 47.1346 63.341 47.7908C63.2236 48.5093 63.0408 49.3951 62.641 50.3898C62.4888 50.7686 62.1891 51.3721 61.742 52.2002C60.4662 54.0422 59.0688 55.4971 57.5498 56.5649C56.0309 57.6327 54.0898 58.5326 51.7264 59.2644C49.708 59.909 47.2415 60.0931 44.3267 59.8169C43.0074 59.6918 41.4878 59.3384 40.1717 58.9474C39.3012 58.6887 38.0631 58.2017 36.4575 57.4865L40.0365 54.6255C40.9346 54.9954 41.5932 55.2457 42.0123 55.3764C43.0977 55.7149 44.0947 55.8914 44.776 56.0118C45.3858 56.1195 46.1175 56.2076 46.9818 56.2426C47.4221 56.2604 48.1585 56.2604 49.1912 56.2426C50.2254 56.0836 50.954 55.9481 51.377 55.8361C52.4842 55.543 53.3056 55.1523 53.9319 54.818C54.5236 54.5022 55.2565 54.066 55.9736 53.4175C56.2915 53.1299 56.77 52.6095 57.4089 51.8564C58.2312 50.6583 58.768 49.7868 59.0193 49.2419C59.4477 48.313 59.6065 47.3599 59.718 46.7125C59.8492 45.9503 59.989 44.933 59.8282 43.705C59.7642 43.2163 59.5647 42.4077 59.2295 41.2792C58.693 39.6587 58.0861 38.3417 57.4089 37.3279C56.3932 35.8073 55.6616 34.8771 55.0153 34.1306C54.2949 33.2984 53.1656 32.2378 51.7264 31.1634C51.1432 30.7281 50.1521 30.066 48.7531 29.1774C47.4032 28.4276 46.3653 27.8964 45.6395 27.5836C43.9009 26.8345 41.9564 26.2295 40.8216 25.9589C39.668 25.6838 37.7684 25.3433 35.7997 25.2196C35.2875 25.1874 34.413 25.0869 33.5389 25.0966C33.2289 25.1001 32.7735 25.1286 32.1727 25.1823C31.4922 26.7801 29.9089 27.9001 28.0642 27.9001C25.5986 27.9001 23.5999 25.8991 23.5999 23.4307C23.5999 20.9623 25.5986 18.9613 28.0642 18.9613C29.7899 18.9613 31.2869 19.9415 32.03 21.3761C32.8716 21.3706 33.4912 21.3707 33.8889 21.3763Z" fill="#764ABC"/>
<path fill-rule="evenodd" clip-rule="evenodd" d="M43.087 43.8144C42.4863 44.8226 41.9239 45.7048 41.5314 46.2666C39.8419 48.6847 37.9647 50.7756 36.1221 52.3757C33.3068 54.8205 30.1066 56.7621 26.5215 58.2005C23.2666 59.2858 20.7844 59.8612 19.0747 59.9266C18.0594 59.9655 16.4009 60.1086 14.4919 59.8429C13.9603 59.7689 13.1847 59.6724 12.2215 59.4363C11.8121 59.336 11.1196 59.1331 10.1441 58.8276C8.97807 58.3082 8.16375 57.9196 7.70112 57.662C6.73756 57.1255 6.01027 56.5632 5.49605 56.1421C4.93305 55.681 4.2579 55.0797 3.59702 54.2357C3.34539 53.9143 2.97304 53.3528 2.47998 52.5511C1.5241 50.5239 0.964004 48.5849 0.799702 46.7341C0.6354 44.8833 0.82766 42.7504 1.37648 40.3354C1.82825 38.2632 2.90265 36.0326 4.59967 33.6437C5.36785 32.5623 6.43375 31.4216 7.43046 30.4761C8.08979 29.8506 9.1305 29.0207 10.5526 27.9863L11.2382 32.5198C10.4689 33.1134 9.92292 33.5593 9.60016 33.8573C8.76427 34.6291 8.11279 35.4053 7.6679 35.9357C7.26962 36.4106 6.82744 37.0009 6.36477 37.7328C6.12911 38.1056 5.76073 38.7441 5.25963 39.6483C4.87996 40.6245 4.63278 41.3239 4.51809 41.7466C4.21788 42.8532 4.14518 43.7606 4.1212 44.4708C4.09854 45.1417 4.10934 45.9953 4.31197 46.9412C4.40182 47.3607 4.61282 48.0357 4.94498 48.9662C5.57046 50.2781 6.05615 51.1793 6.40205 51.6697C6.99162 52.5055 7.73693 53.1197 8.24145 53.5401C8.83543 54.0349 9.64584 54.6648 10.789 55.1394C11.2439 55.3283 12.0435 55.5595 13.1878 55.8332C14.8585 56.1783 16.3019 56.3107 17.5179 56.2304C19.3419 56.1101 20.5128 55.9409 21.4821 55.7538C22.5626 55.5453 24.0454 55.0965 25.695 54.3859C26.3635 54.0979 27.4322 53.5697 28.901 52.8011C30.225 52.0056 31.2039 51.3714 31.8376 50.8985C33.3555 49.7657 34.8517 48.3823 35.6536 47.5337C36.4686 46.6711 37.7135 45.1944 38.8053 43.5494C39.0894 43.1215 39.6138 42.4134 40.0425 41.6508C40.1946 41.3803 40.3977 40.9712 40.6518 40.4235C39.6095 39.0345 39.4322 37.1018 40.3549 35.5025C41.5882 33.3648 44.3196 32.6324 46.4558 33.8666C48.5919 35.1008 49.3238 37.8342 48.0905 39.9719C47.2273 41.4681 45.6303 42.2758 44.0171 42.2028C43.6008 42.9352 43.2908 43.4724 43.087 43.8144Z" fill="#764ABC"/>
<path fill-rule="evenodd" clip-rule="evenodd" d="M17.7627 39.3172C17.2085 38.283 16.7426 37.3465 16.4636 36.7208C15.2627 34.0272 14.4387 31.341 14.0172 28.9373C13.3732 25.2645 13.3584 21.5209 13.9727 17.7062C14.7194 14.3565 15.5049 11.9318 16.3293 10.4322C16.8188 9.54158 17.5504 8.0458 18.761 6.54564C19.0981 6.12795 19.5802 5.51261 20.2784 4.80821C20.5751 4.50879 21.1055 4.01949 21.8695 3.3403C22.9148 2.60789 23.6669 2.10966 24.1258 1.8456C25.0815 1.29562 25.9376 0.961486 26.5631 0.73737C27.2479 0.491994 28.1106 0.222675 29.1737 0.0905091C29.5785 0.040187 30.2512 0.0100173 31.1917 0C33.4201 0.224052 35.3692 0.742072 37.0389 1.55406C38.7086 2.36605 40.4362 3.62902 42.2219 5.34295C43.7639 6.7972 45.121 8.86685 46.293 11.5519C46.8236 12.7673 47.2516 14.2686 47.5481 15.6101C47.7442 16.4974 47.9191 17.8171 48.0726 19.569L43.8369 17.8229C43.7247 16.8576 43.624 16.1599 43.535 15.7297C43.3044 14.6155 42.9752 13.6573 42.75 13.0028C42.5484 12.4168 42.2706 11.7337 41.882 10.9602C41.6841 10.5662 41.327 9.92158 40.8106 9.02635C40.1701 8.19823 39.6984 7.62618 39.3954 7.31021C38.6024 6.48311 37.8626 5.95356 37.2667 5.56737C36.7038 5.20254 35.9673 4.77235 35.0528 4.45907C34.6473 4.32015 33.9605 4.15356 32.9925 3.9593C31.5469 3.82021 30.525 3.77272 29.9268 3.81683C28.9074 3.89202 27.9975 4.21488 27.3777 4.43109C26.6481 4.68564 25.6912 5.05623 24.6961 5.79212C24.3001 6.08496 23.6902 6.65151 22.8666 7.49176C21.7107 8.74672 20.854 9.91618 20.2966 11.0002C19.4603 12.6262 19.0022 13.7173 18.6632 14.6448C18.2854 15.6786 17.9062 17.1811 17.6653 18.9614C17.5676 19.6829 17.4698 20.8712 17.3716 22.5264C17.371 24.0712 17.4101 25.2371 17.4888 26.024C17.6772 27.9087 18.0915 29.9039 18.4054 31.0283C18.7244 32.1714 19.3481 33.9991 20.1946 35.7822C20.4148 36.2461 20.7512 37.0602 21.1835 37.8205C21.3368 38.0902 21.5826 38.475 21.9209 38.9748C23.6471 38.7962 25.3937 39.6392 26.2882 41.2538C27.4839 43.4118 26.7046 46.1311 24.5475 47.3273C22.3905 48.5236 19.6726 47.7438 18.4769 45.5857C17.64 44.0753 17.7707 42.29 18.664 40.9444C18.2511 40.2104 17.9507 39.668 17.7627 39.3172Z" fill="#764ABC"/>
<path fill-rule="evenodd" clip-rule="evenodd" d="M79.5557 13.1994H93.0235C94.165 13.2517 95.0033 13.3187 95.5386 13.4003C96.0738 13.4819 96.8393 13.6594 97.835 13.933C99.2926 14.4396 100.358 14.8945 101.032 15.2976C101.706 15.7007 102.569 16.4001 103.623 17.3958C104.464 18.6077 105.011 19.6102 105.265 20.4033C105.519 21.1964 105.685 22.4261 105.764 24.0925C105.634 25.7738 105.411 27.023 105.094 27.8401C104.777 28.6572 104.076 29.7914 102.992 31.2428C102.27 31.9726 101.68 32.4875 101.223 32.7873C100.766 33.0871 99.9137 33.5363 98.6652 34.1349C99.1356 34.4493 99.472 34.6871 99.6744 34.8484C99.8767 35.0097 100.144 35.2533 100.477 35.5791L101.456 36.7781L109.002 49.1722H101.032C100.381 49.1356 99.9281 49.0559 99.6744 48.9329C99.4206 48.81 99.0843 48.5075 98.6652 48.0254L92.4333 37.232C92.0518 36.6741 91.7639 36.3266 91.5698 36.1898C91.3756 36.0529 91.0368 35.9585 90.5533 35.9068H87.8503V49.1722H79.5557V13.1994ZM87.8708 19.424V30.1245H91.7751C95.6011 29.811 97.5204 27.9906 97.5329 24.6633C97.5453 21.3359 95.6261 19.5895 91.7751 19.424H87.8708Z" fill="black"/>
<path fill-rule="evenodd" clip-rule="evenodd" d="M119.732 23.1612C123.669 23.1612 126.714 24.5118 128.867 27.2129C131.02 29.914 131.769 33.1636 131.114 36.9616C130.961 37.3448 130.77 37.5784 130.543 37.6624C130.315 37.7463 129.757 37.7892 128.867 37.791H114.878C115.106 40.8528 116.328 42.7844 118.545 43.5858C120.509 44.2957 122.852 43.9046 125.672 42.4876C125.915 42.3658 126.302 42.1779 126.834 41.9238C127.289 41.817 127.632 41.778 127.865 41.8067C128.098 41.8354 128.393 41.9534 128.752 42.1607L131.114 45.2164C129.878 46.8782 128.064 48.0877 125.672 48.8451C123.281 49.6024 120.844 49.8355 118.363 49.5444C114.815 49.0782 112.057 47.6355 110.089 45.2164C108.12 42.7973 107.116 39.7388 107.075 36.0408C107.016 32.7066 108.067 29.7639 110.227 27.2129C112.387 24.6619 115.555 23.3113 119.732 23.1612ZM114.938 33.2891H124.426C124.426 31.7802 124.011 30.5812 123.18 29.6919C122.349 28.8027 121.183 28.3959 119.682 28.4715C118.141 28.5598 117.013 29.0424 116.298 29.9195C115.583 30.7965 115.13 31.9197 114.938 33.2891Z" fill="black"/>
<path fill-rule="evenodd" clip-rule="evenodd" d="M149.838 12.1957H157.495V49.1699H152.289C151.699 49.0742 151.303 48.8736 151.1 48.5681C150.898 48.2626 150.608 47.4299 150.232 46.0698C148.014 48.4179 145.456 49.6096 142.559 49.6447C139.661 49.6799 137.302 48.4883 135.482 46.0698C133.743 43.5679 132.896 40.2778 132.942 36.1993C132.987 32.1208 134.103 28.9026 136.29 26.5449C137.723 24.7654 139.813 23.6386 142.559 23.1646C145.304 22.6907 147.731 23.3731 149.838 25.2118V12.1957ZM149.75 30.4403C149.104 29.7173 148.496 29.2487 147.926 29.0346C147.357 28.8206 146.463 28.7242 145.244 28.7457C142.912 29.0577 141.545 30.6408 141.143 33.4951C140.954 34.8329 140.834 36.1169 140.924 37.8467C140.964 38.6308 141.173 39.7733 141.55 41.2744C142.036 42.9358 143.267 43.7594 145.244 43.7453C147.221 43.7311 148.723 42.9075 149.75 41.2744V30.4403Z" fill="black"/>
<path fill-rule="evenodd" clip-rule="evenodd" d="M184.762 23.5781V49.2406H179.546C178.975 49.0653 178.59 48.8331 178.393 48.5438C178.195 48.2545 177.957 47.5745 177.677 46.5038C175.543 48.5839 173.06 49.6295 170.229 49.6405C167.397 49.6516 165.108 48.606 163.36 46.5038C162.496 45.0627 161.964 43.8986 161.762 43.0115C161.561 42.1243 161.458 40.4903 161.453 38.1092V23.5781H169.184V40.2292C169.279 42.1883 170.096 43.3756 171.635 43.7909C173.175 44.2063 174.978 43.5656 177.046 41.8688V23.5781H184.762Z" fill="black"/>
<path fill-rule="evenodd" clip-rule="evenodd" d="M194.55 23.5564C194.973 23.7133 195.255 23.8554 195.396 23.9828C195.536 24.1102 195.714 24.3633 195.928 24.742L200.359 32.0754L204.653 24.3501C204.914 24.046 205.133 23.8454 205.309 23.7483C205.485 23.6512 205.745 23.5872 206.089 23.5564H213.287L204.992 35.5939L213.591 49.204H205.76C205.288 49.1048 204.94 48.96 204.716 48.7696C204.493 48.5792 204.192 48.171 203.813 47.5452L199.493 40.1314L195.054 47.8362C194.697 48.3604 194.419 48.702 194.219 48.8609C194.019 49.0197 193.723 49.1341 193.332 49.204H186.168L194.748 36.0146L186.482 23.5564H194.55Z" fill="black"/>
</g>
<defs>
<clipPath id="clip0">
<rect width="229.688" height="60" fill="white" transform="translate(0.74292)"/>
</clipPath>
</defs>
</svg>
