<svg width="121" height="60" viewBox="0 0 121 60" fill="none" xmlns="http://www.w3.org/2000/svg">
<path d="M65.9409 38.0234H59.9722C58.6492 35.9505 57.4513 34.1589 56.3784 32.6484C55.3159 31.138 54.1597 29.5807 52.9097 27.9766H50.6441V35.0078C50.644 35.3724 50.7013 35.6953 50.8159 35.9766C50.9305 36.2474 51.1753 36.4557 51.5503 36.6016C51.7378 36.6745 52.0659 36.7422 52.5347 36.8047C53.0034 36.8672 53.3992 36.9037 53.7222 36.9141V38.0234H44.3472V36.9141C44.5972 36.8932 44.9565 36.8568 45.4253 36.8047C45.9045 36.7526 46.2378 36.6849 46.4253 36.6016C46.7378 36.4662 46.9617 36.2682 47.0972 36.0078C47.243 35.7474 47.3159 35.4141 47.3159 35.0078V18.9766C47.3159 18.612 47.2638 18.2891 47.1597 18.0078C47.0555 17.7266 46.8107 17.513 46.4253 17.3672C46.1649 17.2735 45.8263 17.1901 45.4097 17.1172C44.993 17.0339 44.6388 16.9818 44.3472 16.9609V15.8516H54.5816C55.519 15.8516 56.3992 15.9506 57.2222 16.1484C58.0451 16.336 58.7899 16.6433 59.4566 17.0703C60.1024 17.487 60.618 18.0339 61.0034 18.7109C61.3888 19.3776 61.5815 20.1849 61.5816 21.1328C61.5815 21.987 61.4513 22.7422 61.1909 23.3984C60.9305 24.0547 60.5451 24.6224 60.0347 25.1016C59.5659 25.5495 59.0034 25.9401 58.3472 26.2734C57.6909 26.5964 56.967 26.8724 56.1753 27.1016C57.269 28.5495 58.1753 29.7682 58.8941 30.7578C59.6232 31.7474 60.5138 32.9505 61.5659 34.3672C62.0242 34.9922 62.4357 35.4557 62.8003 35.7578C63.1753 36.0495 63.5451 36.2891 63.9097 36.4766C64.1805 36.612 64.519 36.7162 64.9253 36.7891C65.3315 36.862 65.6701 36.9037 65.9409 36.9141V38.0234ZM57.7222 21.4922C57.7222 20.1485 57.3367 19.086 56.5659 18.3047C55.7951 17.513 54.7065 17.1172 53.3003 17.1172H50.6441V26.6328H52.6909C54.1284 26.6328 55.3263 26.1745 56.2847 25.2578C57.243 24.3307 57.7222 23.0755 57.7222 21.4922Z" fill="black"/>
<path d="M82.894 37.7422L77.8784 38.0859L77.644 37.8672V35.9141H77.5503C77.3003 36.1745 77.019 36.4557 76.7065 36.7578C76.394 37.0495 76.0347 37.3151 75.6284 37.5547C75.1597 37.8359 74.7065 38.0495 74.269 38.1953C73.8315 38.3412 73.2117 38.4141 72.4097 38.4141C71.0451 38.4141 70.0034 37.9714 69.2847 37.0859C68.5763 36.1901 68.2222 34.8932 68.2222 33.1953V25.8203C68.2222 25.4453 68.1493 25.1328 68.0034 24.8828C67.868 24.6224 67.6649 24.3985 67.394 24.2109C67.2065 24.086 66.9722 23.9974 66.6909 23.9453C66.4097 23.8828 66.1128 23.8412 65.8003 23.8203V22.8047L70.9409 22.4297L71.1753 22.6484V33.3516C71.1753 34.4662 71.4253 35.3047 71.9253 35.8672C72.4253 36.4297 73.0242 36.7109 73.7222 36.7109C74.2951 36.7109 74.8055 36.6224 75.2534 36.4453C75.7013 36.2682 76.0763 36.0599 76.3784 35.8203C76.6597 35.6016 76.9044 35.3724 77.1128 35.1328C77.3315 34.8828 77.4982 34.6537 77.6128 34.4453V25.7109C77.6128 25.3672 77.5399 25.0651 77.394 24.8047C77.2482 24.5339 77.0451 24.3047 76.7847 24.1172C76.5972 23.9922 76.3159 23.9193 75.9409 23.8984C75.5763 23.8672 75.1649 23.8412 74.7065 23.8203V22.8047L80.3003 22.4297L80.5347 22.6484V34.8828C80.5346 35.237 80.6076 35.5391 80.7534 35.7891C80.8992 36.0391 81.1024 36.2526 81.3628 36.4297C81.5503 36.5443 81.7742 36.6224 82.0347 36.6641C82.2951 36.6953 82.5815 36.7162 82.894 36.7266V37.7422" fill="black"/>
<path d="M100.457 30.3047C100.457 32.6172 99.7274 34.5599 98.2691 36.1328C96.8107 37.7057 95.118 38.4922 93.191 38.4922C92.3472 38.4922 91.5139 38.362 90.691 38.1016C89.8785 37.8411 89.1128 37.4922 88.3941 37.0547L87.2378 38.8516L86.2691 38.6328C86.3212 37.862 86.3576 36.9349 86.3785 35.8516C86.3993 34.7682 86.4097 33.7214 86.4097 32.7109V17.4609C86.4097 17.1068 86.3264 16.7526 86.1597 16.3984C86.0034 16.0443 85.8003 15.7891 85.5503 15.6328C85.3524 15.4974 85.019 15.3985 84.5503 15.3359C84.092 15.263 83.7222 15.2162 83.4409 15.1953V14.1953L89.0972 13.8359L89.3159 14.0703V24.2266L89.4253 24.2578C90.0711 23.5703 90.7742 23.0547 91.5347 22.7109C92.3055 22.3672 93.0607 22.1953 93.8003 22.1953C95.6961 22.1953 97.2794 22.9453 98.5503 24.4453C99.8211 25.9453 100.457 27.8984 100.457 30.3047H100.457ZM97.1909 30.4141C97.1909 29.6432 97.1076 28.8568 96.9409 28.0547C96.7742 27.2526 96.5138 26.5547 96.1597 25.9609C95.8055 25.3568 95.3419 24.8672 94.769 24.4922C94.1961 24.1172 93.5086 23.9297 92.7065 23.9297C91.9774 23.9297 91.3367 24.0755 90.7847 24.3672C90.243 24.6484 89.7534 25.0339 89.3159 25.5234V34.4922C89.3784 34.7422 89.4982 35.0339 89.6753 35.3672C89.8628 35.7005 90.1128 36.0182 90.4253 36.3203C90.7378 36.612 91.0919 36.8516 91.4878 37.0391C91.8836 37.2161 92.368 37.3047 92.9409 37.3047C94.2117 37.3047 95.2378 36.6901 96.019 35.4609C96.8003 34.2318 97.1909 32.5495 97.1909 30.4141Z" fill="black"/>
<path d="M101.582 43.0547C101.582 42.5338 101.722 42.1068 102.003 41.7734C102.295 41.4505 102.654 41.2891 103.082 41.2891C103.415 41.2891 103.701 41.3516 103.941 41.4766C104.18 41.6016 104.394 41.763 104.582 41.9609C104.738 42.1172 104.904 42.3307 105.082 42.6016C105.259 42.8724 105.399 43.0963 105.503 43.2734C106.024 42.9922 106.644 42.2578 107.363 41.0703C108.092 39.8828 108.618 38.8411 108.941 37.9453C107.951 35.4766 107.055 33.2682 106.253 31.3203C105.451 29.3724 104.613 27.3568 103.738 25.2734C103.54 24.7943 103.207 24.4245 102.738 24.1641C102.269 23.8932 101.8 23.7214 101.332 23.6484V22.6172H108.363V23.7109C108.05 23.7214 107.675 23.7891 107.238 23.9141C106.8 24.0287 106.582 24.1901 106.582 24.3984C106.582 24.3985 106.608 24.4766 106.66 24.6328C106.722 24.7891 106.774 24.9401 106.816 25.0859C107.212 26.1172 107.816 27.6068 108.628 29.5547C109.441 31.4922 110.071 33.0443 110.519 34.2109C110.988 33.0964 111.472 31.9453 111.972 30.7578C112.483 29.5599 113.05 28.1484 113.675 26.5234C113.748 26.3255 113.852 26.0547 113.988 25.7109C114.123 25.3568 114.191 25.0547 114.191 24.8047C114.191 24.5339 113.951 24.2839 113.472 24.0547C113.003 23.8151 112.555 23.6693 112.128 23.6172V22.6172H117.847V23.5859C117.535 23.638 117.123 23.8203 116.613 24.1328C116.102 24.4349 115.722 24.8672 115.472 25.4297C114.233 28.3047 113.128 30.9245 112.16 33.2891C111.201 35.6536 110.472 37.3932 109.972 38.5078C109.316 39.9661 108.727 41.1016 108.207 41.9141C107.696 42.737 107.196 43.3828 106.707 43.8516C106.227 44.2891 105.79 44.5807 105.394 44.7266C105.009 44.8828 104.608 44.9609 104.191 44.9609C103.378 44.9609 102.738 44.7682 102.269 44.3828C101.811 43.9974 101.582 43.5547 101.582 43.0547" fill="black"/>
<path fill-rule="evenodd" clip-rule="evenodd" d="M32.2023 30.6242L11.7126 42.7909L38.2429 40.9906L40.2862 14.239L32.2023 30.6242Z" fill="url(#paint0_linear)"/>
<path fill-rule="evenodd" clip-rule="evenodd" d="M38.2862 40.9723L36.0059 25.2338L29.7947 33.4354L38.2862 40.9723Z" fill="url(#paint1_linear)"/>
<path fill-rule="evenodd" clip-rule="evenodd" d="M38.317 40.9723L21.6114 39.6609L11.8013 42.7566L38.317 40.9723Z" fill="url(#paint2_linear)"/>
<path fill-rule="evenodd" clip-rule="evenodd" d="M11.8248 42.7601L15.9981 29.0883L6.8147 31.0519L11.8248 42.7601Z" fill="url(#paint3_linear)"/>
<path fill-rule="evenodd" clip-rule="evenodd" d="M29.7932 33.4807L25.9532 18.4395L14.9639 28.7404L29.7932 33.4807Z" fill="url(#paint4_linear)"/>
<path fill-rule="evenodd" clip-rule="evenodd" d="M39.4149 18.6515L29.027 10.1672L26.1343 19.5191L39.4149 18.6515Z" fill="url(#paint5_linear)"/>
<path fill-rule="evenodd" clip-rule="evenodd" d="M34.5569 7.14233L28.4473 10.5186L24.5928 7.09705L34.5569 7.14233Z" fill="url(#paint6_linear)"/>
<path fill-rule="evenodd" clip-rule="evenodd" d="M4.39844 35.638L6.95783 30.9702L4.88749 25.4094L4.39844 35.638Z" fill="url(#paint7_linear)"/>
<path fill-rule="evenodd" clip-rule="evenodd" d="M4.74976 25.2338L6.83277 31.1423L15.8839 29.1116L26.2175 19.508L29.1338 10.2451L24.5419 7.00281L16.7351 9.92447C14.2755 12.2122 9.50266 16.7387 9.33059 16.8238C9.16032 16.9107 6.17889 22.5458 4.74976 25.2338Z" fill="white"/>
<path fill-rule="evenodd" clip-rule="evenodd" d="M12.064 14.6194C17.3947 9.33397 24.2668 6.21125 26.9041 8.87208C29.5398 11.5329 26.7447 17.9993 21.414 23.283C16.0833 28.5666 9.29626 31.8614 6.66078 29.2005C4.0235 26.5415 6.73324 19.903 12.064 14.6194Z" fill="url(#paint8_linear)"/>
<path fill-rule="evenodd" clip-rule="evenodd" d="M11.825 42.7546L15.9656 29.0393L29.7172 33.4571C24.7451 38.1195 19.2151 42.0609 11.825 42.7546Z" fill="url(#paint9_linear)"/>
<path fill-rule="evenodd" clip-rule="evenodd" d="M26.2358 19.481L29.7661 33.4643C33.9195 29.0973 37.6472 24.4023 39.4728 18.5952L26.2358 19.481Z" fill="url(#paint10_linear)"/>
<path fill-rule="evenodd" clip-rule="evenodd" d="M39.4366 18.6659C40.8494 14.4021 41.1754 8.28523 34.5132 7.14954L29.0466 10.169L39.4366 18.6659Z" fill="url(#paint11_linear)"/>
<path fill-rule="evenodd" clip-rule="evenodd" d="M4.39844 35.5764C4.59406 42.6135 9.67119 42.7184 11.8339 42.7802L6.83829 31.1133L4.39844 35.5764Z" fill="#9E1209"/>
<path fill-rule="evenodd" clip-rule="evenodd" d="M26.2554 19.5027C29.4469 21.4643 35.8791 25.404 36.0095 25.4764C36.2122 25.5905 38.7826 21.1419 39.3659 18.6278L26.2554 19.5027Z" fill="url(#paint12_radial)"/>
<path fill-rule="evenodd" clip-rule="evenodd" d="M15.9602 29.0393L21.4956 39.7189C24.7687 37.9438 27.3317 35.781 29.6792 33.4644L15.9602 29.0393Z" fill="url(#paint13_radial)"/>
<path fill-rule="evenodd" clip-rule="evenodd" d="M6.81653 31.1278L6.03223 40.467C7.51208 42.4884 9.548 42.6641 11.6835 42.5065C10.1385 38.6611 7.052 30.972 6.81653 31.1278Z" fill="url(#paint14_linear)"/>
<path fill-rule="evenodd" clip-rule="evenodd" d="M29.0144 10.1926L40.0109 11.7358C39.4241 9.2489 37.6218 7.64407 34.5498 7.14233L29.0144 10.1926Z" fill="url(#paint15_linear)"/>
<defs>
<linearGradient id="paint0_linear" x1="35.9289" y1="46.0456" x2="28.358" y2="32.6789" gradientUnits="userSpaceOnUse">
<stop stop-color="#FB7655"/>
<stop offset="0.41" stop-color="#E42B1E"/>
<stop offset="0.99" stop-color="#990000"/>
<stop offset="1" stop-color="#990000"/>
</linearGradient>
<linearGradient id="paint1_linear" x1="39.7001" y1="34.817" x2="29.943" y2="28.2694" gradientUnits="userSpaceOnUse">
<stop stop-color="#871101"/>
<stop offset="0.99" stop-color="#911209"/>
<stop offset="1" stop-color="#911209"/>
</linearGradient>
<linearGradient id="paint2_linear" x1="31.8934" y1="46.4507" x2="22.1366" y2="39.9032" gradientUnits="userSpaceOnUse">
<stop stop-color="#871101"/>
<stop offset="0.99" stop-color="#911209"/>
<stop offset="1" stop-color="#911209"/>
</linearGradient>
<linearGradient id="paint3_linear" x1="11.4075" y1="30.0773" x2="12.9201" y2="39.9075" gradientUnits="userSpaceOnUse">
<stop stop-color="white"/>
<stop offset="0.23" stop-color="#E57252"/>
<stop offset="0.46" stop-color="#DE3B20"/>
<stop offset="0.99" stop-color="#A60003"/>
<stop offset="1" stop-color="#A60003"/>
</linearGradient>
<linearGradient id="paint4_linear" x1="21.8112" y1="20.8984" x2="22.3685" y2="30.9307" gradientUnits="userSpaceOnUse">
<stop stop-color="white"/>
<stop offset="0.23" stop-color="#E4714E"/>
<stop offset="0.56" stop-color="#BE1A0D"/>
<stop offset="0.99" stop-color="#A80D00"/>
<stop offset="1" stop-color="#A80D00"/>
</linearGradient>
<linearGradient id="paint5_linear" x1="31.0435" y1="11.6255" x2="32.7119" y2="18.8156" gradientUnits="userSpaceOnUse">
<stop stop-color="white"/>
<stop offset="0.18" stop-color="#E46342"/>
<stop offset="0.4" stop-color="#C82410"/>
<stop offset="0.99" stop-color="#A80D00"/>
<stop offset="1" stop-color="#A80D00"/>
</linearGradient>
<linearGradient id="paint6_linear" x1="25.9487" y1="9.09339" x2="33.1383" y2="5.49859" gradientUnits="userSpaceOnUse">
<stop stop-color="white"/>
<stop offset="0.54" stop-color="#C81F11"/>
<stop offset="0.99" stop-color="#BF0905"/>
<stop offset="1" stop-color="#BF0905"/>
</linearGradient>
<linearGradient id="paint7_linear" x1="5.10545" y1="27.5712" x2="5.69719" y2="33.4957" gradientUnits="userSpaceOnUse">
<stop stop-color="white"/>
<stop offset="0.31" stop-color="#DE4024"/>
<stop offset="0.99" stop-color="#BF190B"/>
<stop offset="1" stop-color="#BF190B"/>
</linearGradient>
<linearGradient id="paint8_linear" x1="1.03741" y1="35.0972" x2="28.854" y2="6.49395" gradientUnits="userSpaceOnUse">
<stop stop-color="#BD0012"/>
<stop offset="0.07" stop-color="white"/>
<stop offset="0.17" stop-color="white"/>
<stop offset="0.27" stop-color="#C82F1C"/>
<stop offset="0.33" stop-color="#820C01"/>
<stop offset="0.46" stop-color="#A31601"/>
<stop offset="0.72" stop-color="#B31301"/>
<stop offset="0.99" stop-color="#E82609"/>
<stop offset="1" stop-color="#E82609"/>
</linearGradient>
<linearGradient id="paint9_linear" x1="22.3441" y1="37.9824" x2="13.9655" y2="35.9145" gradientUnits="userSpaceOnUse">
<stop stop-color="#8C0C01"/>
<stop offset="0.54" stop-color="#990C00"/>
<stop offset="0.99" stop-color="#A80D0E"/>
<stop offset="1" stop-color="#A80D0E"/>
</linearGradient>
<linearGradient id="paint10_linear" x1="36.7353" y1="27.9262" x2="29.292" y2="21.255" gradientUnits="userSpaceOnUse">
<stop stop-color="#7E110B"/>
<stop offset="0.99" stop-color="#9E0C00"/>
<stop offset="1" stop-color="#9E0C00"/>
</linearGradient>
<linearGradient id="paint11_linear" x1="39.4698" y1="15.6857" x2="35.7621" y2="11.722" gradientUnits="userSpaceOnUse">
<stop stop-color="#79130D"/>
<stop offset="0.99" stop-color="#9E120B"/>
<stop offset="1" stop-color="#9E120B"/>
</linearGradient>
<radialGradient id="paint12_radial" cx="0" cy="0" r="1" gradientUnits="userSpaceOnUse" gradientTransform="translate(30.4508 21.3825) scale(9.12138)">
<stop stop-color="#A80D00"/>
<stop offset="0.99" stop-color="#7E0E08"/>
<stop offset="1" stop-color="#7E0E08"/>
</radialGradient>
<radialGradient id="paint13_radial" cx="0" cy="0" r="1" gradientUnits="userSpaceOnUse" gradientTransform="translate(17.819 33.403) scale(12.1257)">
<stop stop-color="#A30C00"/>
<stop offset="0.99" stop-color="#800E08"/>
<stop offset="1" stop-color="#800E08"/>
</radialGradient>
<linearGradient id="paint14_linear" x1="9.22919" y1="42.7467" x2="6.20769" y2="32.4957" gradientUnits="userSpaceOnUse">
<stop stop-color="#8B2114"/>
<stop offset="0.43" stop-color="#9E100A"/>
<stop offset="0.99" stop-color="#B3100C"/>
<stop offset="1" stop-color="#B3100C"/>
</linearGradient>
<linearGradient id="paint15_linear" x1="32.409" y1="8.77758" x2="39.183" y2="11.7677" gradientUnits="userSpaceOnUse">
<stop stop-color="#B31000"/>
<stop offset="0.44" stop-color="#910F08"/>
<stop offset="0.99" stop-color="#791C12"/>
<stop offset="1" stop-color="#791C12"/>
</linearGradient>
</defs>
</svg>
