<svg width="232" height="60" viewBox="0 0 232 60" fill="none" xmlns="http://www.w3.org/2000/svg">
<path d="M26.2471 15C19.7642 15 15.7182 18.2644 14.1089 24.7473C16.5458 21.4829 19.3964 20.2875 22.6149 21.1151C24.454 21.5748 25.7873 22.9082 27.2586 24.4255C29.6495 26.8623 32.4081 29.6669 38.4312 29.6669C44.9141 29.6669 48.9602 26.4025 50.5694 19.9196C48.1326 23.1841 45.282 24.3795 42.0635 23.5519C40.2244 23.0921 38.891 21.7587 37.4197 20.2415C35.0289 17.8046 32.2702 15 26.2471 15ZM14.063 29.575C7.58008 29.575 3.53403 32.8394 1.9248 39.3223C4.36163 36.0579 7.21226 34.8624 10.4307 35.69C12.2698 36.1498 13.6032 37.4832 15.0745 39.0005C17.4653 41.4373 20.224 44.2419 26.2471 44.2419C32.73 44.2419 36.776 40.9775 38.3853 34.4946C35.9484 37.7591 33.0978 38.9545 29.8794 38.1269C28.0402 37.6671 26.7069 36.3337 25.2356 34.8165C22.8907 32.3796 20.132 29.575 14.063 29.575Z" fill="url(#paint0_linear)"/>
<path d="M68.439 27.2761H64.255V35.5061C64.255 37.713 65.6803 37.667 68.485 37.5291V40.8395C62.7837 41.5292 60.5308 39.9659 60.5308 35.5061V27.2761H57.4043V23.7358H60.5308V19.138L64.209 18.0345V23.7358H68.439V27.2761ZM84.6692 23.7358H88.3474V40.8395H84.6692V38.3567C83.3818 40.1499 81.3588 41.2533 78.6921 41.2533C74.0483 41.2533 70.1861 37.2992 70.1861 32.2417C70.1861 27.1381 74.0483 23.23 78.6921 23.23C81.3588 23.23 83.3818 24.3335 84.6692 26.1266V23.7358ZM79.2438 37.759C82.3243 37.759 84.6692 35.4601 84.6692 32.2876C84.6692 29.1152 82.3243 26.8163 79.2438 26.8163C76.1633 26.8163 73.8184 29.1152 73.8184 32.2876C73.8644 35.4601 76.1633 37.759 79.2438 37.759ZM94.5084 21.161C93.2211 21.161 92.1636 20.0575 92.1636 18.8161C92.1636 17.5287 93.2211 16.4712 94.5084 16.4712C95.7958 16.4712 96.8533 17.5287 96.8533 18.8161C96.8993 20.0575 95.7958 21.161 94.5084 21.161ZM92.6693 40.8395V23.7358H96.3476V40.8395H92.6693ZM100.624 40.8395V15.8735H104.302V40.8395H100.624ZM128.348 23.7358H132.256L126.877 40.8395H123.245L119.704 29.2991L116.118 40.8395H112.486L107.106 23.7358H111.015L114.325 35.5521L117.911 23.7358H121.451L124.992 35.5521L128.348 23.7358ZM136.808 21.161C135.521 21.161 134.463 20.0575 134.463 18.8161C134.463 17.5287 135.521 16.4712 136.808 16.4712C138.095 16.4712 139.153 17.5287 139.153 18.8161C139.199 20.0575 138.141 21.161 136.808 21.161ZM134.969 40.8395V23.7358H138.647V40.8395H134.969ZM151.935 23.276C155.751 23.276 158.51 25.8967 158.51 30.3106V40.8395H154.831V30.7244C154.831 28.1037 153.314 26.7703 151.015 26.7703C148.578 26.7703 146.647 28.1956 146.647 31.6899V40.8855H142.969V23.7817H146.647V25.9887C147.797 24.1496 149.636 23.276 151.935 23.276ZM176.073 16.885H179.751V40.8395H176.073V38.3567C174.786 40.1499 172.763 41.2533 170.096 41.2533C165.452 41.2533 161.59 37.2992 161.59 32.2417C161.59 27.1381 165.452 23.23 170.096 23.23C172.763 23.23 174.786 24.3335 176.073 26.1266V16.885ZM170.648 37.759C173.728 37.759 176.073 35.4601 176.073 32.2876C176.073 29.1152 173.728 26.8163 170.648 26.8163C167.567 26.8163 165.222 29.1152 165.222 32.2876C165.222 35.4601 167.567 37.759 170.648 37.759ZM192.119 41.2993C186.97 41.2993 183.062 37.3452 183.062 32.2876C183.062 27.1841 186.924 23.276 192.119 23.276C195.476 23.276 198.372 25.0231 199.752 27.6898L196.579 29.529C195.844 27.9197 194.143 26.9082 192.074 26.9082C189.039 26.9082 186.786 29.2071 186.786 32.2876C186.786 35.3682 189.085 37.6671 192.074 37.6671C194.143 37.6671 195.798 36.6096 196.625 35.0463L199.798 36.8394C198.418 39.5521 195.476 41.2993 192.119 41.2993ZM205.959 28.4255C205.959 31.552 215.154 29.6669 215.154 36.0119C215.154 39.4142 212.166 41.2993 208.488 41.2993C205.085 41.2993 202.602 39.7361 201.499 37.2992L204.671 35.4601C205.223 37.0234 206.603 37.9429 208.488 37.9429C210.143 37.9429 211.384 37.3912 211.384 36.0119C211.384 32.9773 202.189 34.6785 202.189 28.5634C202.189 25.345 204.947 23.322 208.442 23.322C211.246 23.322 213.591 24.6093 214.787 26.8623L211.66 28.6094C211.062 27.276 209.867 26.6783 208.442 26.6783C207.108 26.6324 205.959 27.2301 205.959 28.4255ZM221.729 28.4255C221.729 31.552 230.925 29.6669 230.925 36.0119C230.925 39.4142 227.936 41.2993 224.258 41.2993C220.856 41.2993 218.373 39.7361 217.269 37.2992L220.442 35.4601C220.994 37.0234 222.373 37.9429 224.258 37.9429C225.913 37.9429 227.155 37.3912 227.155 36.0119C227.155 32.9773 217.959 34.6785 217.959 28.5634C217.959 25.345 220.718 23.322 224.212 23.322C227.017 23.322 229.362 24.6093 230.557 26.8623L227.431 28.6094C226.833 27.276 225.637 26.6783 224.212 26.6783C222.879 26.6324 221.729 27.2301 221.729 28.4255Z" fill="#2D3748"/>
<defs>
<linearGradient id="paint0_linear" x1="0.622339" y1="24.264" x2="42.6336" y2="48.4867" gradientUnits="userSpaceOnUse">
<stop stop-color="#2298BD"/>
<stop offset="1" stop-color="#0ED7B5"/>
</linearGradient>
</defs>
</svg>
