<svg width="121" height="60" viewBox="0 0 121 60" fill="none" xmlns="http://www.w3.org/2000/svg">
<path fill-rule="evenodd" clip-rule="evenodd" d="M43.5991 11.9519H52.0812L30.6636 48.8597L9.10498 11.9519H17.78L30.6636 34.1711L43.5991 11.9519Z" fill="#41B883"/>
<path fill-rule="evenodd" clip-rule="evenodd" d="M35.5833 11.9448H43.6505L30.6525 34.2104L17.7588 11.9448H25.6999L30.6525 20.5167L35.5833 11.9448Z" fill="#35495E"/>
<path fill-rule="evenodd" clip-rule="evenodd" d="M57.1426 19.2309C57.1426 18.9587 57.2937 18.7318 57.596 18.5502C57.8983 18.3687 58.2143 18.278 58.5441 18.278C59.0021 18.278 59.2861 18.4504 59.396 18.7953L64.2326 34.9684L69.0417 18.7953C69.1699 18.4504 69.4447 18.278 69.8661 18.278C70.2142 18.278 70.5394 18.3778 70.8417 18.5775C71.1439 18.7771 71.2951 19.004 71.2951 19.2582C71.2951 19.2763 71.2906 19.3035 71.2813 19.3398C71.2721 19.3761 71.2676 19.4124 71.2676 19.4487L65.6891 37.5551C65.4875 38.0815 65.0021 38.3447 64.2326 38.3447C63.4631 38.3447 62.996 38.0815 62.8311 37.5551L57.1978 19.4487C57.1612 19.3398 57.1428 19.2672 57.1428 19.2309H57.1426ZM71.5116 33.1712V26.0922C71.5116 25.8744 71.6261 25.6838 71.8551 25.5205C72.0841 25.3571 72.3544 25.2754 72.6658 25.2754C72.9589 25.2754 73.22 25.3616 73.449 25.5341C73.678 25.7065 73.7925 25.8926 73.7925 26.0922V33.1712C73.7925 33.988 74.104 34.7232 74.7269 35.3766C75.3498 36.0301 76.0917 36.3568 76.9528 36.3568C77.7956 36.3568 78.5283 36.0346 79.1512 35.3902C79.7741 34.7459 80.0856 34.0062 80.0856 33.1712V26.0646C80.0856 25.8649 80.2001 25.6834 80.4291 25.5201C80.6581 25.3567 80.9283 25.275 81.2398 25.275C81.5696 25.275 81.8398 25.3522 82.0505 25.5064C82.2612 25.6607 82.3665 25.8468 82.3665 26.0646V33.1712C82.3665 34.5689 81.8306 35.7896 80.7589 36.8333C79.6872 37.877 78.4185 38.3989 76.9528 38.3989C75.4689 38.3989 74.1911 37.877 73.1193 36.8333C72.0476 35.7896 71.5117 34.5689 71.5117 33.1712H71.5116ZM84.2314 33.1168V30.2579C84.2314 28.8602 84.7673 27.6531 85.8391 26.6366C86.9108 25.6201 88.1978 25.1119 89.7001 25.1119C91.1291 25.1119 92.3657 25.5884 93.41 26.5414C94.4542 27.4943 94.9764 28.6878 94.9764 30.1218C94.9764 30.6481 94.9122 31.0702 94.784 31.3879C94.6558 31.7055 94.4588 31.9324 94.1932 32.0686C93.9275 32.2047 93.6802 32.2909 93.4512 32.3272C93.2222 32.3635 92.9153 32.3817 92.5306 32.3817H86.5122V33.1985C86.5122 34.1968 86.874 34.9955 87.5977 35.5945C88.3214 36.1935 89.2603 36.493 90.4145 36.493C91.0191 36.493 91.5458 36.4023 91.9946 36.2208C92.4434 36.0392 92.8053 35.8623 93.0801 35.6898C93.3549 35.5174 93.5747 35.4312 93.7396 35.4312C93.9961 35.4312 94.2159 35.5446 94.3992 35.7715C94.5824 35.9984 94.674 36.2299 94.674 36.4658C94.674 36.8833 94.2572 37.3099 93.4236 37.7455C92.59 38.1811 91.5595 38.3989 90.332 38.3989C88.5366 38.3989 87.071 37.9134 85.9352 36.9423C84.7993 35.9712 84.2313 34.696 84.2313 33.1168L84.2314 33.1168ZM86.5123 30.8569H91.5962C92.0725 30.8569 92.3931 30.7979 92.5581 30.6799C92.723 30.5619 92.8054 30.3305 92.8054 29.9856C92.8054 29.1688 92.5031 28.4518 91.8985 27.8347C91.294 27.2175 90.552 26.9089 89.6726 26.9089C88.8115 26.9089 88.0696 27.1948 87.4467 27.7665C86.8238 28.3383 86.5123 29.0417 86.5123 29.8767L86.5123 30.8569ZM96.1272 36.9285C96.1272 36.5292 96.2646 36.1889 96.5394 35.9075C96.8142 35.6262 97.1531 35.4855 97.5562 35.4855C97.9409 35.4855 98.2707 35.6262 98.5455 35.9075C98.8203 36.1889 98.9577 36.5292 98.9577 36.9285C98.9577 37.3097 98.8203 37.641 98.5455 37.9223C98.2707 38.2037 97.9409 38.3444 97.5562 38.3444C97.1531 38.3444 96.8142 38.2037 96.5394 37.9223C96.2646 37.641 96.1272 37.3097 96.1272 36.9285ZM98.1574 43.436C98.1574 43.1455 98.2489 42.9051 98.4321 42.7144C98.6154 42.5239 98.8352 42.4286 99.0917 42.4286C99.8062 42.4286 100.273 42.1654 100.493 41.639C100.713 41.1126 100.823 40.323 100.823 39.2702V26.0648C100.823 25.8288 100.928 25.6382 101.139 25.493C101.35 25.3478 101.62 25.2752 101.95 25.2752C102.279 25.2752 102.554 25.3478 102.774 25.493C102.994 25.6382 103.104 25.8288 103.104 26.0648V39.2702C103.104 40.8494 102.792 42.1018 102.17 43.0276C101.547 43.9533 100.603 44.4162 99.3391 44.4162C98.5513 44.4162 98.1574 44.0895 98.1574 43.436L98.1574 43.436ZM100.521 20.4287C100.521 20.0838 100.658 19.7843 100.933 19.5302C101.208 19.2761 101.547 19.149 101.95 19.149C102.334 19.149 102.664 19.2761 102.939 19.5302C103.214 19.7843 103.351 20.0838 103.351 20.4287C103.351 20.7736 103.214 21.0776 102.939 21.3408C102.664 21.604 102.334 21.7356 101.95 21.7356C101.565 21.7356 101.231 21.604 100.947 21.3408C100.663 21.0776 100.521 20.7736 100.521 20.4287H100.521ZM104.804 36.3294C104.804 36.0934 104.882 35.8619 105.038 35.6351C105.193 35.4082 105.381 35.2947 105.601 35.2947C105.748 35.2947 105.958 35.4036 106.233 35.6215C106.508 35.8393 106.902 36.0526 107.415 36.2613C107.928 36.47 108.532 36.5744 109.228 36.5744C110.145 36.5744 110.809 36.4111 111.221 36.0843C111.633 35.7576 111.839 35.3492 111.839 34.8591C111.839 34.2601 111.61 33.7836 111.152 33.4296C110.694 33.0757 110.135 32.8079 109.476 32.6264C108.816 32.4449 108.157 32.2452 107.497 32.0274C106.838 31.8096 106.279 31.4465 105.821 30.9383C105.363 30.4301 105.134 29.7584 105.134 28.9235C105.134 27.8889 105.505 26.9949 106.247 26.2416C106.989 25.4883 108.12 25.1117 109.641 25.1117C110.612 25.1117 111.5 25.2614 112.306 25.5609C113.112 25.8604 113.515 26.2007 113.515 26.5819C113.515 26.7997 113.428 27.0448 113.254 27.3171C113.08 27.5893 112.865 27.7255 112.608 27.7255C112.535 27.7255 112.183 27.5939 111.55 27.3307C110.918 27.0675 110.291 26.9359 109.668 26.9359C108.825 26.9359 108.198 27.131 107.786 27.5213C107.373 27.9115 107.167 28.3517 107.167 28.8418C107.167 29.35 107.396 29.7494 107.854 30.0398C108.312 30.3302 108.876 30.5571 109.544 30.7205C110.213 30.8839 110.877 31.0835 111.537 31.3195C112.196 31.5555 112.755 31.9594 113.213 32.5311C113.671 33.1029 113.9 33.8426 113.9 34.7502C113.9 35.8756 113.497 36.765 112.691 37.4184C111.885 38.0719 110.758 38.3986 109.311 38.3986C108.065 38.3986 107.003 38.1763 106.123 37.7315C105.244 37.2868 104.804 36.8194 104.804 36.3293L104.804 36.3294Z" fill="#010101"/>
</svg>
