<svg width="48" height="48" viewBox="0 0 48 48" fill="none" xmlns="http://www.w3.org/2000/svg">
<rect width="48" height="48" rx="24" fill="#EFF2F6"/>
<path d="M14.9843 18.4438C16.6298 18.4438 17.9685 17.105 17.9685 15.4595C17.9685 13.8141 16.6298 12.4752 14.9843 12.4752C13.3388 12.4752 12 13.814 12 15.4595C12 17.1051 13.3387 18.4438 14.9843 18.4438Z" fill="#18214D"/>
<path d="M12.2941 21.8718V27.4636C12.2941 28.8871 13.4481 30.0411 14.8715 30.0411H18.2306V36.0687C18.2306 36.4174 18.5134 36.7001 18.8621 36.7001H21.8386C22.1873 36.7001 22.47 36.4174 22.47 36.0687V28.0157C22.47 26.8141 21.496 25.84 20.2943 25.84H17.6745V21.8719C17.6745 20.3861 16.47 19.1816 14.9843 19.1816C13.4985 19.1816 12.2941 20.3861 12.2941 21.8718Z" fill="#18214D"/>
<path d="M28.1404 20.9204C28.2338 20.9578 28.3301 20.9754 28.4249 20.9754C28.7291 20.9754 29.0171 20.793 29.137 20.4933L32.1136 13.0518C32.2708 12.6586 32.0797 12.2125 31.6865 12.0552C31.2931 11.8976 30.8471 12.0891 30.6899 12.4822L27.7133 19.9237C27.556 20.3169 27.7473 20.7631 28.1404 20.9204Z" fill="#18214D"/>
<path d="M27.7937 23.9517H30.7703C31.1937 23.9517 31.537 23.6085 31.537 23.185V18.7202C31.537 18.2968 31.1937 17.9535 30.7703 17.9535C30.3468 17.9535 30.0036 18.2968 30.0036 18.7202V22.4184H27.7937C27.3703 22.4184 27.027 22.7617 27.027 23.1851C27.027 23.6086 27.3703 23.9517 27.7937 23.9517Z" fill="#18214D"/>
<path d="M34.4665 36.0688C34.4665 36.4922 34.8098 36.8355 35.2332 36.8355C35.6566 36.8355 35.9999 36.4922 35.9999 36.0688V28.0086H34.4665V36.0688Z" fill="#18214D"/>
<path d="M35.2332 24.3828H24.8152C24.3918 24.3828 24.0485 24.726 24.0485 25.1494V27.4636H36V25.1494C35.9999 24.726 35.6566 24.3828 35.2332 24.3828Z" fill="#18214D"/>
<path d="M24.0485 36.0688C24.0485 36.4922 24.3918 36.8355 24.8152 36.8355C25.2387 36.8355 25.5819 36.4922 25.5819 36.0688V28.0086H24.0485V36.0688Z" fill="#18214D"/>
</svg>
